<?xml version="1.0" encoding="UTF-8" standalone="no"?>
<svg width="36px" height="15px" viewBox="0 0 36 15" version="1.1" xmlns="http://www.w3.org/2000/svg" xmlns:xlink="http://www.w3.org/1999/xlink" xmlns:sketch="http://www.bohemiancoding.com/sketch/ns">
    <!-- Generator: Sketch 3.3.2 (12043) - http://www.bohemiancoding.com/sketch -->
    <title>BYR</title>
    <desc>Created with Sketch.</desc>
    <defs></defs>
    <g id="Page-1" stroke="none" stroke-width="1" fill="none" fill-rule="evenodd" sketch:type="MSPage">
        <g id="BYR" sketch:type="MSLayerGroup" fill="#4A4A4A">
            <path d="M0.0610351562,0.0087890625 L4.29589844,0.0087890625 C6.2851662,0.0087890625 7.72411665,0.30614937 8.61279297,0.900878906 C9.50146929,1.49560844 9.94580078,2.43554045 9.94580078,3.72070312 C9.94580078,4.60937944 9.69800052,5.34252641 9.20239258,5.92016602 C8.70678463,6.49780562 7.98389147,6.87206946 7.03369141,7.04296875 L7.03369141,7.14550781 C9.31006998,7.5351582 10.4482422,8.7314353 10.4482422,10.734375 C10.4482422,12.0742254 9.99536586,13.1201134 9.08959961,13.8720703 C8.18383336,14.6240272 6.9174886,15 5.29052734,15 L0.0610351562,15 L0.0610351562,0.0087890625 Z M1.80419922,6.42773438 L4.67529297,6.42773438 C5.90576787,6.42773438 6.79101292,6.23462107 7.33105469,5.84838867 C7.87109645,5.46215627 8.14111328,4.81103974 8.14111328,3.89501953 C8.14111328,3.05419501 7.84033504,2.44751163 7.23876953,2.07495117 C6.63720402,1.70239072 5.68018234,1.51611328 4.36767578,1.51611328 L1.80419922,1.51611328 L1.80419922,6.42773438 Z M1.80419922,7.90429688 L1.80419922,13.5131836 L4.93164062,13.5131836 C6.14160761,13.5131836 7.05248718,13.2790551 7.66430664,12.810791 C8.27612611,12.342527 8.58203125,11.60938 8.58203125,10.6113281 C8.58203125,9.68163598 8.26929024,8.99804906 7.64379883,8.56054688 C7.01830742,8.12304469 6.06641264,7.90429688 4.78808594,7.90429688 L1.80419922,7.90429688 Z M17.2773438,7.50439453 L21.2763672,0.0087890625 L23.1630859,0.0087890625 L18.1591797,9.18603516 L18.1591797,15 L16.3955078,15 L16.3955078,9.26806641 L11.4018555,0.0087890625 L13.309082,0.0087890625 L17.2773438,7.50439453 Z M26.9672852,8.765625 L26.9672852,15 L25.2241211,15 L25.2241211,0.0087890625 L29.3359375,0.0087890625 C31.1748139,0.0087890625 32.5334429,0.360836323 33.4118652,1.06494141 C34.2902876,1.76904649 34.7294922,2.82860621 34.7294922,4.24365234 C34.7294922,6.22608413 33.7246194,7.56591448 31.7148438,8.26318359 L35.7856445,15 L33.7246094,15 L30.0947266,8.765625 L26.9672852,8.765625 Z M26.9672852,7.26855469 L29.3564453,7.26855469 C30.5869202,7.26855469 31.4892549,7.02417237 32.0634766,6.53540039 C32.6376982,6.04662842 32.9248047,5.31348145 32.9248047,4.3359375 C32.9248047,3.34472161 32.6325713,2.63037328 32.0480957,2.19287109 C31.4636201,1.75536891 30.5253971,1.53662109 29.2333984,1.53662109 L26.9672852,1.53662109 L26.9672852,7.26855469 Z" sketch:type="MSShapeGroup"></path>
        </g>
    </g>
</svg>