<?xml version="1.0" encoding="UTF-8" standalone="no"?>
<svg width="12px" height="17px" viewBox="0 0 12 17" version="1.1" xmlns="http://www.w3.org/2000/svg" xmlns:xlink="http://www.w3.org/1999/xlink" xmlns:sketch="http://www.bohemiancoding.com/sketch/ns">
    <!-- Generator: Sketch 3.3.2 (12043) - http://www.bohemiancoding.com/sketch -->
    <title>€</title>
    <desc>Created with Sketch.</desc>
    <defs></defs>
    <g id="Page-1" stroke="none" stroke-width="1" fill="none" fill-rule="evenodd" sketch:type="MSPage">
        <g id="€" sketch:type="MSLayerGroup" fill="#4A4A4A">
            <path d="M8.15185547,2.33154297 C5.9711805,2.33154297 4.61084254,3.7089706 4.07080078,6.46386719 L9.30029297,6.46386719 L9.30029297,7.78662109 L3.92724609,7.78662109 L3.90673828,8.37109375 L3.90673828,9.02734375 L3.92724609,9.48876953 L8.67480469,9.48876953 L8.67480469,10.8115234 L4.09130859,10.8115234 C4.34423955,12.0419983 4.81762348,12.9938931 5.51147461,13.6672363 C6.20532573,14.3405795 7.13329497,14.6772461 8.29541016,14.6772461 C9.36182174,14.6772461 10.4179635,14.4516624 11.4638672,14.0004883 L11.4638672,15.5385742 C10.4658153,15.9829124 9.38233006,16.2050781 8.21337891,16.2050781 C6.59325362,16.2050781 5.28931158,15.7453659 4.30151367,14.8259277 C3.31371576,13.9064895 2.66259923,12.5683682 2.34814453,10.8115234 L0.645996094,10.8115234 L0.645996094,9.48876953 L2.20458984,9.48876953 L2.18408203,9.05810547 L2.18408203,8.60693359 L2.20458984,7.78662109 L0.645996094,7.78662109 L0.645996094,6.46386719 L2.32763672,6.46386719 C2.59423961,4.67967858 3.22655751,3.28857921 4.22460938,2.29052734 C5.22266124,1.29247548 6.53173018,0.793457031 8.15185547,0.793457031 C9.52588578,0.793457031 10.7768498,1.12499668 11.9047852,1.78808594 L11.1767578,3.21337891 C10.0419865,2.62548534 9.03369582,2.33154297 8.15185547,2.33154297 L8.15185547,2.33154297 Z" sketch:type="MSShapeGroup"></path>
        </g>
    </g>
</svg>