<?xml version="1.0" encoding="UTF-8" standalone="no"?>
<svg width="12px" height="16px" viewBox="0 0 12 16" version="1.1" xmlns="http://www.w3.org/2000/svg" xmlns:xlink="http://www.w3.org/1999/xlink" xmlns:sketch="http://www.bohemiancoding.com/sketch/ns">
    <!-- Generator: Sketch 3.2.2 (9983) - http://www.bohemiancoding.com/sketch -->
    <title>Type something</title>
    <desc>Created with Sketch.</desc>
    <defs></defs>
    <g id="Page-1" stroke="none" stroke-width="1" fill="none" fill-rule="evenodd" sketch:type="MSPage">
        <path d="M0.948,7.684 L2.51,7.684 L2.51,0.666 L6.536,0.666 C7.28400374,0.666 7.96599692,0.75033249 8.582,0.919 C9.19800308,1.08766751 9.7259978,1.34433161 10.166,1.689 C10.6060022,2.03366839 10.9506654,2.46999736 11.2,2.998 C11.4493346,3.52600264 11.574,4.156663 11.574,4.89 C11.574,5.623337 11.4420013,6.26133062 11.178,6.804 C10.9139987,7.34666938 10.5546689,7.79766487 10.1,8.157 C9.64533106,8.51633513 9.11000308,8.78399912 8.494,8.96 C7.87799692,9.13600088 7.21067026,9.224 6.492,9.224 L4.27,9.224 L4.27,11.446 L7.812,11.446 L7.812,12.898 L4.27,12.898 L4.27,16 L2.51,16 L2.51,12.898 L0.948,12.898 L0.948,11.446 L2.51,11.446 L2.51,9.224 L0.948,9.224 L0.948,7.684 Z M6.536,7.684 C7.54800506,7.684 8.34366377,7.45300231 8.923,6.991 C9.50233623,6.52899769 9.792,5.82867136 9.792,4.89 C9.792,3.95132864 9.50233623,3.26933546 8.923,2.844 C8.34366377,2.41866454 7.54800506,2.206 6.536,2.206 L4.27,2.206 L4.27,7.684 L6.536,7.684 Z" id="Type-something" fill="#4A4A4A" sketch:type="MSShapeGroup"></path>
    </g>
</svg>