<?xml version="1.0" encoding="UTF-8" standalone="no"?>
<svg width="10px" height="18px" viewBox="0 0 10 18" version="1.1" xmlns="http://www.w3.org/2000/svg" xmlns:xlink="http://www.w3.org/1999/xlink" xmlns:sketch="http://www.bohemiancoding.com/sketch/ns">
    <!-- Generator: Sketch 3.3.2 (12043) - http://www.bohemiancoding.com/sketch -->
    <title>$</title>
    <desc>Created with Sketch.</desc>
    <defs></defs>
    <g id="Page-1" stroke="none" stroke-width="1" fill="none" fill-rule="evenodd" sketch:type="MSPage">
        <g id="$" sketch:type="MSLayerGroup" fill="#4A4A4A">
            <path d="M9.62304688,11.3959961 C9.62304688,12.3256882 9.27441755,13.0930146 8.57714844,13.697998 C7.87987933,14.3029815 6.90576797,14.6840812 5.65478516,14.8413086 L5.65478516,17.2202148 L4.33203125,17.2202148 L4.33203125,14.9335938 C3.56640242,14.9335938 2.82471062,14.8737799 2.10693359,14.7541504 C1.38915657,14.6345209 0.801271821,14.4687511 0.343261719,14.2568359 L0.343261719,12.6572266 C0.910647368,12.9101575 1.56518184,13.1169426 2.30688477,13.2775879 C3.04858769,13.4382332 3.72362977,13.5185547 4.33203125,13.5185547 L4.33203125,9.00683594 C2.93065706,8.56249778 1.94800087,8.04638966 1.3840332,7.45849609 C0.82006554,6.87060253 0.538085938,6.11182105 0.538085938,5.18212891 C0.538085938,4.28661662 0.885006296,3.55176068 1.57885742,2.97753906 C2.27270855,2.40331744 3.19042398,2.05468812 4.33203125,1.93164062 L4.33203125,0.0654296875 L5.65478516,0.0654296875 L5.65478516,1.91113281 C6.91260395,1.94531267 8.12597072,2.19823983 9.29492188,2.66992188 L8.76171875,4.01318359 C7.74315897,3.60986126 6.70752479,3.37060584 5.65478516,3.29541016 L5.65478516,7.74560547 C6.72803271,8.08740405 7.53124733,8.42065267 8.06445312,8.74536133 C8.59765892,9.07006998 8.99072139,9.44262485 9.24365234,9.86303711 C9.4965833,10.2834494 9.62304688,10.7944306 9.62304688,11.3959961 L9.62304688,11.3959961 Z M7.87988281,11.5292969 C7.87988281,11.0371069 7.72778472,10.6389175 7.42358398,10.3347168 C7.11938324,10.0305161 6.52978953,9.72802885 5.65478516,9.42724609 L5.65478516,13.4160156 C7.13819101,13.2109365 7.87988281,12.5820365 7.87988281,11.5292969 L7.87988281,11.5292969 Z M2.27099609,5.16162109 C2.27099609,5.68115494 2.42480315,6.09814296 2.73242188,6.41259766 C3.0400406,6.72705235 3.57323839,7.02441266 4.33203125,7.3046875 L4.33203125,3.33642578 C3.65527005,3.44580133 3.14257987,3.65942224 2.79394531,3.97729492 C2.44531076,4.2951676 2.27099609,4.68993905 2.27099609,5.16162109 L2.27099609,5.16162109 Z" sketch:type="MSShapeGroup"></path>
        </g>
    </g>
</svg>