<?xml version="1.0" encoding="UTF-8" standalone="no"?>
<svg width="36px" height="25px" viewBox="0 0 36 25" version="1.1" xmlns="http://www.w3.org/2000/svg" xmlns:xlink="http://www.w3.org/1999/xlink" xmlns:sketch="http://www.bohemiancoding.com/sketch/ns">
    <!-- Generator: Sketch 3.2.2 (9983) - http://www.bohemiancoding.com/sketch -->
    <title>master card</title>
    <desc>Created with Sketch.</desc>
    <defs></defs>
    <g id="Page-1" stroke="none" stroke-width="1" fill="none" fill-rule="evenodd" sketch:type="MSPage">
        <g id="platron_payment-card" sketch:type="MSArtboardGroup" transform="translate(-542.000000, -165.000000)">
            <g id="Content" sketch:type="MSLayerGroup" transform="translate(30.000000, 100.000000)">
                <g id="cards" transform="translate(270.000000, 64.000000)" sketch:type="MSShapeGroup">
                    <g id="master-card" transform="translate(242.000000, 1.000000)">
                        <rect id="Rectangle-2" fill="#006E95" x="0" y="0" width="36" height="25" rx="4"></rect>
                        <path d="M7.19747899,12.1430556 L8.9462521,12.1430556 L8.09087395,10.1444444 L7.19747899,12.1430556 L7.19747899,12.1430556 Z M32.4201681,8.33333333 L27.9575798,8.33333333 L26.9223529,9.32361111 L25.9616975,8.33333333 L15.6415966,8.33333333 L14.7949916,10.1041667 L14.022958,8.33333333 L6.39620168,8.33333333 L3.17647059,15.2736111 L7.01763025,15.2736111 L7.52647059,14.1472222 L8.56169748,14.1472222 L9.07053782,15.2736111 L25.8856639,15.2736111 L26.8843361,14.2 L27.9005546,15.2736111 L32.4201681,15.2736111 L29.0308235,11.8041667 L32.4201681,8.33333333 L32.4201681,8.33333333 Z M18.4738487,14.2833333 L17.2032101,14.2833333 L17.2032101,10.4208333 L15.359395,14.2833333 L14.2671429,14.2833333 L12.3970084,10.3013889 L12.3970084,14.2833333 L9.87327731,14.2833333 L9.36151261,13.1388889 L6.72226891,13.1388889 L6.24559664,14.2833333 L4.93986555,14.2833333 L7.2252605,9.32361111 L9.00766387,9.32361111 L11.1673109,13.9972222 L11.1673109,9.32361111 L13.2509244,9.32361111 L14.9075798,12.7097222 L16.4399496,9.32361111 L18.4738487,9.32361111 L18.4738487,14.2833333 L18.4738487,14.2833333 Z M29.9651597,14.2833333 L28.3245882,14.2833333 L26.8390084,12.6513889 L25.2349916,14.2833333 L19.6026555,14.2833333 L19.6026555,9.32361111 L25.3782857,9.32361111 L26.8390084,10.9583333 L28.4196303,9.32361111 L30.0485042,9.32361111 L27.6358992,11.8041667 L29.9651597,14.2833333 L29.9651597,14.2833333 Z M23.7625714,10.3263889 L20.8148067,10.3263889 L20.8148067,11.2513889 L23.6675294,11.2513889 L23.6675294,12.2666667 L20.8148067,12.2666667 L20.8148067,13.2486111 L23.7742689,13.2486111 L23.7742689,14.0736111 L26.0318824,11.8041667 L23.7625714,9.49027778 L23.7625714,10.3263889 L23.7625714,10.3263889 Z" id="Imported-Layers" fill="#FFFFFF"></path>
                    </g>
                </g>
            </g>
        </g>
    </g>
</svg>