<?xml version="1.0" encoding="UTF-8" standalone="no"?>
<svg width="36px" height="25px" viewBox="0 0 36 25" version="1.1" xmlns="http://www.w3.org/2000/svg" xmlns:xlink="http://www.w3.org/1999/xlink" xmlns:sketch="http://www.bohemiancoding.com/sketch/ns">
    <!-- Generator: Sketch 3.2.2 (9983) - http://www.bohemiancoding.com/sketch -->
    <title>master card</title>
    <desc>Created with Sketch.</desc>
    <defs></defs>
    <g id="Page-1" stroke="none" stroke-width="1" fill="none" fill-rule="evenodd" sketch:type="MSPage">
        <g id="platron_payment-card" sketch:type="MSArtboardGroup" transform="translate(-498.000000, -165.000000)">
            <g id="Content" sketch:type="MSLayerGroup" transform="translate(30.000000, 100.000000)">
                <g id="cards" transform="translate(270.000000, 64.000000)" sketch:type="MSShapeGroup">
                    <g id="master-card" transform="translate(198.000000, 1.000000)">
                        <rect id="Rectangle-2" fill="#006BAB" x="0" y="0" width="36" height="25" rx="4"></rect>
                        <path d="M6.35294118,12.5725092 C6.35294118,7.60301749 10.3077594,4.16576775 15.1127961,4.16666684 L20.5652565,4.16666684 C25.313512,4.16576775 29.6470588,7.60157893 29.6470588,12.5725092 C29.6470588,17.1179865 25.313512,20.8332372 20.5652565,20.8332372 L15.1127961,20.8332372 C10.3077594,20.8551752 6.35294118,17.1196049 6.35294118,12.5725092 Z M15.1322853,4.85591499 C10.7412078,4.85753336 7.18367038,8.27194603 7.1829208,12.4854766 C7.18367038,16.6984676 10.7412078,20.1123408 15.1322853,20.1132399 C19.5233629,20.1123408 23.0816498,16.6984676 23.0827742,12.4854766 C23.0816498,8.27194603 19.5233629,4.85753336 15.1322853,4.85591499 L15.1322853,4.85591499 Z M13.3274685,16.996968 L13.3274685,7.9729062 C11.4379484,8.67114532 10.0976878,10.425824 10.0928155,12.4854766 C10.0976878,14.5447695 11.4379484,16.2994481 13.3274685,16.996968 L13.3274685,16.996968 Z M20.1719425,12.4854766 C20.1685694,10.4252845 18.8264348,8.66790857 16.9352282,7.9720071 L16.9352282,16.9985864 C18.8264348,16.3017858 20.1685694,14.5463878 20.1719425,12.4854766 L20.1719425,12.4854766 Z" id="Fill-2" fill="#FFFFFF"></path>
                    </g>
                </g>
            </g>
        </g>
    </g>
</svg>