<?xml version="1.0" encoding="UTF-8" standalone="no"?>
<svg width="78px" height="78px" viewBox="0 0 78 78" version="1.1" xmlns="http://www.w3.org/2000/svg" xmlns:xlink="http://www.w3.org/1999/xlink" xmlns:sketch="http://www.bohemiancoding.com/sketch/ns">
    <!-- Generator: Sketch 3.2.2 (9983) - http://www.bohemiancoding.com/sketch -->
    <title>Imported Layers</title>
    <desc>Created with Sketch.</desc>
    <defs></defs>
    <g id="Page-1" stroke="none" stroke-width="1" fill="none" fill-rule="evenodd" sketch:type="MSPage">
        <g id="platron_payment-process-error" sketch:type="MSArtboardGroup" transform="translate(-460.000000, -247.000000)" fill="#E74C3C">
            <g id="Content" sketch:type="MSLayerGroup" transform="translate(30.000000, 100.000000)">
                <g id="Есть-много-вариантов-+-Произошла-ошибка!-+-Imported-Layers" transform="translate(159.000000, 147.000000)" sketch:type="MSShapeGroup">
                    <path d="M326.064242,22.5090909 C325.140606,21.5854545 323.642424,21.5854545 322.716364,22.5090909 L309.787879,35.44 L296.85697,22.5090909 C295.933333,21.5854545 294.435152,21.5854545 293.509091,22.5090909 C292.585455,23.4351515 292.585455,24.9333333 293.509091,25.8569697 L306.44,38.7878788 L293.509091,51.7187879 C292.585455,52.6424242 292.585455,54.1406061 293.509091,55.0666667 C294.435152,55.990303 295.933333,55.990303 296.85697,55.0666667 L309.787879,42.1357576 L322.716364,55.0666667 C323.642424,55.990303 325.140606,55.990303 326.064242,55.0666667 C326.990303,54.1406061 326.990303,52.6424242 326.064242,51.7187879 L313.135758,38.7878788 L326.064242,25.8569697 C326.990303,24.9333333 326.990303,23.4351515 326.064242,22.5090909 L326.064242,22.5090909 Z M309.787879,0 C288.364848,0 271,17.3648485 271,38.7878788 C271,60.2109091 288.364848,77.5757576 309.787879,77.5757576 C331.208485,77.5757576 348.575758,60.2109091 348.575758,38.7878788 C348.575758,17.3648485 331.208485,0 309.787879,0 L309.787879,0 Z M309.787879,72.7272727 C291.043636,72.7272727 275.848485,57.5321212 275.848485,38.7878788 C275.848485,20.0436364 291.043636,4.84848485 309.787879,4.84848485 C328.532121,4.84848485 343.727273,20.0436364 343.727273,38.7878788 C343.727273,57.5321212 328.532121,72.7272727 309.787879,72.7272727 L309.787879,72.7272727 Z" id="Imported-Layers"></path>
                </g>
            </g>
        </g>
    </g>
</svg>