<?xml version="1.0" encoding="UTF-8" standalone="no"?>
<svg width="39px" height="39px" viewBox="0 0 39 39" version="1.1" xmlns="http://www.w3.org/2000/svg" xmlns:xlink="http://www.w3.org/1999/xlink" xmlns:sketch="http://www.bohemiancoding.com/sketch/ns">
    <!-- Generator: Sketch 3.2.2 (9983) - http://www.bohemiancoding.com/sketch -->
    <title>icon-error-white</title>
    <desc>Created with Sketch.</desc>
    <defs></defs>
    <g id="Page-1" stroke="none" stroke-width="1" fill="none" fill-rule="evenodd" sketch:type="MSPage">
        <g id="platron_payment-global-error-popup" sketch:type="MSArtboardGroup" transform="translate(-234.000000, -25.000000)" fill="#FFFFFF">
            <g id="Block-/-Error" sketch:type="MSLayerGroup">
                <path d="M261.532121,36.2545455 C261.070303,35.7927273 260.321212,35.7927273 259.858182,36.2545455 L253.393939,42.72 L246.928485,36.2545455 C246.466667,35.7927273 245.717576,35.7927273 245.254545,36.2545455 C244.792727,36.7175758 244.792727,37.4666667 245.254545,37.9284848 L251.72,44.3939394 L245.254545,50.8593939 C244.792727,51.3212121 244.792727,52.070303 245.254545,52.5333333 C245.717576,52.9951515 246.466667,52.9951515 246.928485,52.5333333 L253.393939,46.0678788 L259.858182,52.5333333 C260.321212,52.9951515 261.070303,52.9951515 261.532121,52.5333333 C261.995152,52.070303 261.995152,51.3212121 261.532121,50.8593939 L255.067879,44.3939394 L261.532121,37.9284848 C261.995152,37.4666667 261.995152,36.7175758 261.532121,36.2545455 L261.532121,36.2545455 Z M253.393939,25 C242.682424,25 234,33.6824242 234,44.3939394 C234,55.1054545 242.682424,63.7878788 253.393939,63.7878788 C264.104242,63.7878788 272.787879,55.1054545 272.787879,44.3939394 C272.787879,33.6824242 264.104242,25 253.393939,25 L253.393939,25 Z M253.393939,61.3636364 C244.021818,61.3636364 236.424242,53.7660606 236.424242,44.3939394 C236.424242,35.0218182 244.021818,27.4242424 253.393939,27.4242424 C262.766061,27.4242424 270.363636,35.0218182 270.363636,44.3939394 C270.363636,53.7660606 262.766061,61.3636364 253.393939,61.3636364 L253.393939,61.3636364 Z" id="icon-error-white" sketch:type="MSShapeGroup"></path>
            </g>
        </g>
    </g>
</svg>