<?xml version="1.0" encoding="UTF-8" standalone="no"?>
<svg width="78px" height="78px" viewBox="0 0 78 78" version="1.1" xmlns="http://www.w3.org/2000/svg" xmlns:xlink="http://www.w3.org/1999/xlink" xmlns:sketch="http://www.bohemiancoding.com/sketch/ns">
    <!-- Generator: Sketch 3.2.2 (9983) - http://www.bohemiancoding.com/sketch -->
    <title>Imported Layers</title>
    <desc>Created with Sketch.</desc>
    <defs></defs>
    <g id="Page-1" stroke="none" stroke-width="1" fill="none" fill-rule="evenodd" sketch:type="MSPage">
        <g id="platron_payment-process-succes" sketch:type="MSArtboardGroup" transform="translate(-460.000000, -244.000000)" fill="#8CC144">
            <g id="Content" sketch:type="MSLayerGroup" transform="translate(30.000000, 100.000000)">
                <g id="Ваш-заказ-«Лорем-ипс-+-Imported-Layers" transform="translate(159.000000, 144.000000)" sketch:type="MSShapeGroup">
                    <path d="M326.355152,24.9333333 L303.727273,47.5612121 L293.220606,37.0545455 C292.29697,36.1309091 290.798788,36.1309091 289.872727,37.0545455 C288.949091,37.9806061 288.949091,39.4787879 289.872727,40.4024242 L301.763636,52.2957576 C301.843636,52.409697 301.892121,52.5381818 301.993939,52.6424242 C302.471515,53.1175758 303.101818,53.3381818 303.727273,53.3236364 C304.352727,53.3381818 304.980606,53.1175758 305.460606,52.6424242 C305.562424,52.5381818 305.610909,52.409697 305.690909,52.2933333 L329.700606,28.2812121 C330.626667,27.3575758 330.626667,25.8593939 329.700606,24.9333333 C328.77697,24.009697 327.278788,24.009697 326.355152,24.9333333 L326.355152,24.9333333 Z M309.787879,0 C288.364848,0 271,17.3648485 271,38.7878788 C271,60.2109091 288.364848,77.5757576 309.787879,77.5757576 C331.208485,77.5757576 348.575758,60.2109091 348.575758,38.7878788 C348.575758,17.3648485 331.208485,0 309.787879,0 L309.787879,0 Z M309.787879,72.7272727 C291.043636,72.7272727 275.848485,57.5321212 275.848485,38.7878788 C275.848485,20.0436364 291.043636,4.84848485 309.787879,4.84848485 C328.532121,4.84848485 343.727273,20.0436364 343.727273,38.7878788 C343.727273,57.5321212 328.532121,72.7272727 309.787879,72.7272727 L309.787879,72.7272727 Z" id="Imported-Layers"></path>
                </g>
            </g>
        </g>
    </g>
</svg>