<?xml version="1.0" encoding="UTF-8" standalone="no"?>
<svg width="23px" height="23px" viewBox="0 0 23 23" version="1.1" xmlns="http://www.w3.org/2000/svg" xmlns:xlink="http://www.w3.org/1999/xlink" xmlns:sketch="http://www.bohemiancoding.com/sketch/ns">
    <!-- Generator: Sketch 3.2.2 (9983) - http://www.bohemiancoding.com/sketch -->
    <title>Imported Layers</title>
    <desc>Created with Sketch.</desc>
    <defs></defs>
    <g id="Page-1" stroke="none" stroke-width="1" fill="none" fill-rule="evenodd" sketch:type="MSPage">
        <g id="platron_payment-process-bank" sketch:type="MSArtboardGroup" transform="translate(-361.000000, -296.000000)" fill="#FFFFFF">
            <g id="Content" sketch:type="MSLayerGroup" transform="translate(30.000000, 100.000000)">
                <g id="button-2" transform="translate(312.000000, 182.000000)" sketch:type="MSShapeGroup">
                    <g id="Rectangle-27-+-Распечатать-квитанци-+-Imported-Layers">
                        <path d="M26,32 L33,32 L33,31 L26,31 L26,32 Z M26,30 L36,30 L36,29 L26,29 L26,30 Z M39,19 L39,14 L22,14 L22,19 L19,19 L19,30 L22,30 L22,37 L39,37 L39,30 L42,30 L42,19 L39,19 L39,19 Z M24,28 L37,28 L37,35 L24,35 L24,28 Z M24,16 L37,16 L37,19 L24,19 L24,16 Z M39,21 C39.223875,21 39,20.776125 39,20 C39,20.2238337 39.223875,20 39,20 C39.7760836,20 40,20.2238337 40,20 C40,20.776125 39.7760836,21 39,21 L39,21 Z" id="Imported-Layers"></path>
                    </g>
                </g>
            </g>
        </g>
    </g>
</svg>