<?xml version="1.0" encoding="UTF-8" standalone="no"?>
<svg width="78px" height="78px" viewBox="0 0 78 78" version="1.1" xmlns="http://www.w3.org/2000/svg" xmlns:xlink="http://www.w3.org/1999/xlink" xmlns:sketch="http://www.bohemiancoding.com/sketch/ns">
    <!-- Generator: Sketch 3.2.2 (9983) - http://www.bohemiancoding.com/sketch -->
    <title>Imported Layers + Rectangle 229 + Rectangle 230</title>
    <desc>Created with Sketch.</desc>
    <defs></defs>
    <g id="Page-1" stroke="none" stroke-width="1" fill="none" fill-rule="evenodd" sketch:type="MSPage">
        <g id="platron_payment-process-timer" sketch:type="MSArtboardGroup" transform="translate(-460.000000, -263.000000)" fill="#00C7F4">
            <g id="Content" sketch:type="MSLayerGroup" transform="translate(30.000000, 100.000000)">
                <g id="Imported-Layers-+-Rectangle-229-+-Rectangle-230" transform="translate(430.000000, 163.000000)" sketch:type="MSShapeGroup">
                    <path d="M39,0 C17.4598125,0 0,17.4598125 0,39 C0,60.5401875 17.4598125,78 39,78 C60.53775,78 78,60.5401875 78,39 C78,17.4598125 60.53775,0 39,0 L39,0 Z M4.875,39 C4.875,20.15325 20.15325,4.875 39,4.875 C57.84675,4.875 73.125,20.15325 73.125,39 C73.125,57.84675 57.84675,73.125 39,73.125 C20.15325,73.125 4.875,57.84675 4.875,39 Z" id="Imported-Layers"></path>
                    <rect id="Rectangle-229" x="36" y="17" width="6" height="25" rx="8"></rect>
                    <rect id="Rectangle-230" transform="translate(48.000000, 48.000000) rotate(-225.000000) translate(-48.000000, -48.000000) " x="45" y="33" width="6" height="30" rx="8"></rect>
                </g>
            </g>
        </g>
    </g>
</svg>