<?xml version="1.0" encoding="UTF-8" standalone="no"?>
<svg width="16px" height="16px" viewBox="0 0 16 16" version="1.1" xmlns="http://www.w3.org/2000/svg" xmlns:xlink="http://www.w3.org/1999/xlink" xmlns:sketch="http://www.bohemiancoding.com/sketch/ns">
    <!-- Generator: Sketch 3.2.2 (9983) - http://www.bohemiancoding.com/sketch -->
    <title>Imported Layers</title>
    <desc>Created with Sketch.</desc>
    <defs></defs>
    <g id="Page-1" stroke="none" stroke-width="1" fill="none" fill-rule="evenodd" sketch:type="MSPage">
        <g id="platron_payment-process-bank" sketch:type="MSArtboardGroup" transform="translate(-271.000000, -401.000000)" fill="#000000" opacity="0.25">
            <g id="Content" sketch:type="MSLayerGroup" transform="translate(30.000000, 100.000000)">
                <g id="rules" transform="translate(220.000000, 282.000000)" sketch:type="MSShapeGroup">
                    <path d="M29,35 C24.582,35 21,31.418 21,27 C21,22.582 24.582,19 29,19 C33.418,19 37,22.582 37,27 C37,31.418 33.418,35 29,35 L29,35 Z M28,29 L30,29 L30,22 L28,22 L28,29 Z M29,32 C29.5522847,32 30,31.5522847 30,31 C30,30.4477153 29.5522847,30 29,30 C28.4477153,30 28,30.4477153 28,31 C28,31.5522847 28.4477153,32 29,32 Z" id="Imported-Layers"></path>
                </g>
            </g>
        </g>
    </g>
</svg>