<?xml version="1.0" encoding="UTF-8" standalone="no"?>
<svg width="20px" height="24px" viewBox="0 0 20 24" version="1.1" xmlns="http://www.w3.org/2000/svg" xmlns:xlink="http://www.w3.org/1999/xlink" xmlns:sketch="http://www.bohemiancoding.com/sketch/ns">
    <!-- Generator: Sketch 3.2.2 (9983) - http://www.bohemiancoding.com/sketch -->
    <title>lock</title>
    <desc>Created with Sketch.</desc>
    <defs></defs>
    <g id="Page-1" stroke="none" stroke-width="1" fill="none" fill-rule="evenodd" sketch:type="MSPage">
        <g id="platron_payment-card" sketch:type="MSArtboardGroup" transform="translate(-300.000000, -126.000000)">
            <g id="Content" sketch:type="MSLayerGroup" transform="translate(30.000000, 100.000000)">
                <g id="Title" transform="translate(270.000000, 20.000000)" sketch:type="MSShapeGroup">
                    <g id="icon-lock" transform="translate(0.000000, 6.000000)">
                        <g id="lock">
                            <path d="M3,14 L17,14 L17,7 C17,3.13400675 13.8659932,0 10,0 C6.13400675,0 3,3.13400675 3,7 L3,14 Z" id="Oval-1" fill="#93A5A6"></path>
                            <path d="M6,11 L14,11 L14,7 C14,4.790861 12.209139,3 10,3 C7.790861,3 6,4.790861 6,7 L6,11 Z" id="Oval-2" fill="#FFFFFF"></path>
                            <rect id="Rectangle-69" fill="#FB9B00" x="0" y="10" width="20" height="14" rx="2"></rect>
                            <rect id="Rectangle-71" opacity="0.500349813" fill="#FFFFFF" x="3" y="12" width="14" height="2" rx="2"></rect>
                            <rect id="Rectangle-71" opacity="0.500349813" fill="#FFFFFF" x="3" y="16" width="14" height="2" rx="2"></rect>
                            <rect id="Rectangle-71" opacity="0.500349813" fill="#FFFFFF" x="3" y="20" width="14" height="2" rx="2"></rect>
                        </g>
                    </g>
                </g>
            </g>
        </g>
    </g>
</svg>