<?xml version="1.0" encoding="UTF-8" standalone="no"?>
<!-- Created with Inkscape (http://www.inkscape.org/) -->

<svg
   xmlns:dc="http://purl.org/dc/elements/1.1/"
   xmlns:cc="http://creativecommons.org/ns#"
   xmlns:rdf="http://www.w3.org/1999/02/22-rdf-syntax-ns#"
   xmlns:svg="http://www.w3.org/2000/svg"
   xmlns="http://www.w3.org/2000/svg"
   xmlns:sodipodi="http://sodipodi.sourceforge.net/DTD/sodipodi-0.dtd"
   xmlns:inkscape="http://www.inkscape.org/namespaces/inkscape"
   width="31.75mm"
   height="8.7002573mm"
   viewBox="0 0 31.75 8.7002573"
   version="1.1"
   id="svg137"
   inkscape:version="0.92.0 r15299">
  <defs
     id="defs131">
    <clipPath
       clipPathUnits="userSpaceOnUse"
       id="clipPath18">
      <path
         d="M 0,283.46 H 283.46 V 0 H 0 Z"
         id="path16"
         inkscape:connector-curvature="0" />
    </clipPath>
  </defs>
  <sodipodi:namedview
     id="base"
     pagecolor="#ffffff"
     bordercolor="#666666"
     borderopacity="1.0"
     inkscape:pageopacity="0.0"
     inkscape:pageshadow="2"
     inkscape:zoom="5.1232383"
     inkscape:cx="-0.1458615"
     inkscape:cy="-47.019544"
     inkscape:document-units="mm"
     inkscape:current-layer="layer1"
     showgrid="false"
     units="px"
     fit-margin-top="0"
     fit-margin-left="0"
     fit-margin-right="0"
     fit-margin-bottom="0"
     inkscape:window-width="1920"
     inkscape:window-height="1017"
     inkscape:window-x="-8"
     inkscape:window-y="-8"
     inkscape:window-maximized="1" />
  <metadata
     id="metadata134">
    <rdf:RDF>
      <cc:Work
         rdf:about="">
        <dc:format>image/svg+xml</dc:format>
        <dc:type
           rdf:resource="http://purl.org/dc/dcmitype/StillImage" />
        <dc:title></dc:title>
      </cc:Work>
    </rdf:RDF>
  </metadata>
  <g
     inkscape:label="Layer 1"
     inkscape:groupmode="layer"
     id="layer1"
     transform="translate(-4.0485833,-282.98229)">
    <g
       transform="matrix(0.16146661,0,0,-0.16146661,-2.9610536,310.21702)"
       id="g12">
      <g
         id="g14"
         clip-path="url(#clipPath18)">
        <g
           id="g20"
           transform="translate(59.3203,134.5943)">
          <path
             d="m 0,0 c -4.553,0 -8.379,3.401 -9.467,8.005 -0.202,0.856 -0.31,1.753 -0.31,2.679 0,0.925 0.108,1.822 0.31,2.679 1.088,4.603 4.914,8.004 9.467,8.004 5.4,0 10.666,-4.783 10.666,-10.683 C 10.666,4.783 5.4,0 0,0 m -15.908,7.934 v -27.74 h 6.441 v 17.251 c 2.66,-1.955 5.929,-3.111 9.467,-3.111 8.914,0 16.14,7.32 16.14,16.35 0,9.029 -7.226,16.349 -16.14,16.349 -7.978,0 -15.324,-5.989 -15.903,-15.032 z"
             style="fill:#2ca4e1;fill-opacity:1;fill-rule:nonzero;stroke:none"
             id="path22"
             inkscape:connector-curvature="0" />
        </g>
        <path
           d="m 87.097,128.926 h -6.283 v 39.716 h 6.283 z"
           style="fill:#2ca4e1;fill-opacity:1;fill-rule:nonzero;stroke:none"
           id="path24"
           inkscape:connector-curvature="0" />
        <g
           id="g26"
           transform="translate(107.2735,134.054)">
          <path
             d="m 0,0 c -5.297,0 -9.591,4.759 -9.591,10.63 0,5.871 4.294,10.631 9.591,10.631 5.297,0 9.591,-4.76 9.591,-10.631 C 9.591,4.759 5.297,0 0,0 m 16.181,10.63 c 0,9.03 -7.245,16.351 -16.181,16.351 -8.936,0 -16.181,-7.321 -16.181,-16.351 0,-9.03 7.245,-16.35 16.181,-16.35 3.713,0 7.131,1.267 9.861,3.391 v -2.989 h 6.32 V 10.594 H 16.18 c 0,0.012 0.001,0.024 0.001,0.036"
             style="fill:#2ca4e1;fill-opacity:1;fill-rule:nonzero;stroke:none"
             id="path28"
             inkscape:connector-curvature="0" />
        </g>
        <g
           id="g30"
           transform="translate(147.254,136.138)">
          <path
             d="m 0,0 c 0,0 -3.016,-2.982 -7.08,-2.026 -4.063,0.955 -4.287,4.962 -4.287,4.962 v 15.855 h 9.155 v 5.77 h -9.155 v 7.972 H -18.06 V 3.236 c 0,0 0.425,-11.008 11.949,-11.003 0,0 5.568,0 8.038,2.679 z"
             style="fill:#2ca4e1;fill-opacity:1;fill-rule:nonzero;stroke:none"
             id="path32"
             inkscape:connector-curvature="0" />
        </g>
        <g
           id="g34"
           transform="translate(159.1927,149.4669)">
          <path
             d="M 0,0 V -20.278 H -6.378 V 0 c 0,0 0.321,11.884 12.408,11.561 0,0 5.046,0.147 9.364,-4.171 L 11.733,2.414 c 0,0 -2.34,3.829 -6.506,3.769 C 1.794,6.134 0,2.066 0,0"
             style="fill:#2ca4e1;fill-opacity:1;fill-rule:nonzero;stroke:none"
             id="path36"
             inkscape:connector-curvature="0" />
        </g>
        <g
           id="g38"
           transform="translate(226.1306,161.0187)">
          <path
             d="M 0,0 C -12.579,0 -13.807,-11.587 -13.807,-12.825 V -31.78 h 5.989 v 18.365 c 0,0 0.155,7.725 7.508,7.952 6.945,0.214 8.196,-6.731 8.196,-7.665 V -31.78 h 5.993 c 0,0 0.085,18.159 0,18.955 C 13.794,-12.029 13.254,0 0,0"
             style="fill:#2ca4e1;fill-opacity:1;fill-rule:nonzero;stroke:none"
             id="path40"
             inkscape:connector-curvature="0" />
        </g>
        <g
           id="g42"
           transform="translate(192.2505,161.3715)">
          <path
             d="M 0,0 C 2.602,0 5.066,-0.606 7.261,-1.682 7.606,-1.845 7.95,-2.025 8.294,-2.224 l -1.525,-1.365 -2.292,2.37 -3.869,-3.451 -2.297,2.508 -7.207,-6.496 4.62,-5.091 -1.815,-1.597 4.55,-5.099 -1.805,-1.593 6.503,-7.238 3.86,3.553 3.336,-3.808 C 9.69,-30.046 8.967,-30.532 8.17,-30.981 5.757,-32.357 2.968,-33.145 0,-33.145 c -9.128,0 -16.572,7.446 -16.572,16.572 C -16.572,-7.444 -9.128,0 0,0"
             style="fill:#2ca4e1;fill-opacity:1;fill-rule:evenodd;stroke:none"
             id="path44"
             inkscape:connector-curvature="0" />
        </g>
        <g
           id="g46"
           transform="translate(189.2303,145.8465)">
          <path
             d="M 0,0 3.941,3.549 7.489,-0.393 3.549,-3.941 Z"
             style="fill:#2ca4e1;fill-opacity:1;fill-rule:evenodd;stroke:none"
             id="path48"
             inkscape:connector-curvature="0" />
        </g>
        <g
           id="g50"
           transform="translate(192.0327,139.0368)">
          <path
             d="M 0,0 3.941,3.548 7.49,-0.393 3.549,-3.942 Z"
             style="fill:#2ca4e1;fill-opacity:1;fill-rule:evenodd;stroke:none"
             id="path52"
             inkscape:connector-curvature="0" />
        </g>
        <g
           id="g54"
           transform="translate(186.4106,152.5761)">
          <path
             d="M 0,0 3.941,3.548 7.488,-0.393 3.548,-3.941 Z"
             style="fill:#2ca4e1;fill-opacity:1;fill-rule:evenodd;stroke:none"
             id="path56"
             inkscape:connector-curvature="0" />
        </g>
        <g
           id="g58"
           transform="translate(193.642,154.4858)">
          <path
             d="M 0,0 2.956,2.661 5.616,-0.295 2.661,-2.956 Z"
             style="fill:#2ca4e1;fill-opacity:1;fill-rule:evenodd;stroke:none"
             id="path60"
             inkscape:connector-curvature="0" />
        </g>
        <g
           id="g62"
           transform="translate(198.8934,142.2967)">
          <path
             d="M 0,0 2.956,2.662 5.617,-0.295 2.662,-2.956 Z"
             style="fill:#2ca4e1;fill-opacity:1;fill-rule:evenodd;stroke:none"
             id="path64"
             inkscape:connector-curvature="0" />
        </g>
        <g
           id="g66"
           transform="translate(201.4936,136.3269)">
          <path
             d="M 0,0 2.955,2.662 5.616,-0.294 2.661,-2.955 Z"
             style="fill:#2ca4e1;fill-opacity:1;fill-rule:evenodd;stroke:none"
             id="path68"
             inkscape:connector-curvature="0" />
        </g>
        <g
           id="g70"
           transform="translate(202.684,150.0095)">
          <path
             d="M 0,0 1.97,1.774 3.744,-0.196 1.775,-1.97 Z"
             style="fill:#2ca4e1;fill-opacity:1;fill-rule:evenodd;stroke:none"
             id="path72"
             inkscape:connector-curvature="0" />
        </g>
        <g
           id="g74"
           transform="translate(200.1664,155.8639)">
          <path
             d="M 0,0 1.971,1.774 3.745,-0.196 1.774,-1.97 Z"
             style="fill:#2ca4e1;fill-opacity:1;fill-rule:evenodd;stroke:none"
             id="path76"
             inkscape:connector-curvature="0" />
        </g>
        <g
           id="g78"
           transform="translate(205.2032,144.1553)">
          <path
             d="M 0,0 1.97,1.774 3.744,-0.196 1.774,-1.97 Z"
             style="fill:#2ca4e1;fill-opacity:1;fill-rule:evenodd;stroke:none"
             id="path80"
             inkscape:connector-curvature="0" />
        </g>
        <g
           id="g82"
           transform="translate(196.3664,148.5419)">
          <path
             d="M 0,0 2.956,2.662 5.616,-0.294 2.662,-2.955 Z"
             style="fill:#2ca4e1;fill-opacity:1;fill-rule:evenodd;stroke:none"
             id="path84"
             inkscape:connector-curvature="0" />
        </g>
      </g>
    </g>
  </g>
</svg>
