<?xml version="1.0" encoding="UTF-8" standalone="no"?>
<svg width="53px" height="39px" viewBox="0 0 53 39" version="1.1" xmlns="http://www.w3.org/2000/svg" xmlns:xlink="http://www.w3.org/1999/xlink" xmlns:sketch="http://www.bohemiancoding.com/sketch/ns">
    <!-- Generator: Sketch 3.2.2 (9983) - http://www.bohemiancoding.com/sketch -->
    <title>shopping-cart-11-icon + shopping-cart-11-icon 2</title>
    <desc>Created with Sketch.</desc>
    <defs></defs>
    <g id="Page-1" stroke="none" stroke-width="1" fill="none" fill-rule="evenodd" sketch:type="MSPage">
        <g id="platron_payment-process-without-timer" sketch:type="MSArtboardGroup" transform="translate(-59.000000, -21.000000)">
            <g id="Logo-/-Demo" sketch:type="MSLayerGroup" transform="translate(42.000000, 0.000000)">
                <g id="shopping-cart-11-icon-+-shopping-cart-11-icon-2" transform="translate(17.000000, 21.000000)" sketch:type="MSShapeGroup">
                    <path d="M19,35.5 C19,37.4330631 17.4330631,39 15.5,39 C13.5669369,39 12,37.432933 12,35.5 C12,33.567067 13.5669369,32 15.5,32 C17.4330631,32 19,33.5669369 19,35.5 L19,35.5 Z M43.7226185,1 L36.0941597,24.9159822 L14.0400766,24.9159822 L5.67145876,5.89336711 L0,5.89336711 L10.6878343,30 L10.7232825,30 L39.8643044,30 L47.4925054,6.08401778 L51.3570068,6.08401778 L53,1 L43.7226185,1 L43.7226185,1 Z M34.5,32 C32.5669369,32 31,33.5669369 31,35.5 C31,37.4330631 32.5669369,39 34.5,39 C36.4330631,39 38,37.4330631 38,35.5 C38,33.5669369 36.432933,32 34.5,32 L34.5,32 Z" id="shopping-cart-11-icon" fill="#9DA5B3"></path>
                    <path d="M21.2899132,6.63136813 L14,7.63937915 L19.3060618,12.7457754 L18.0107023,20 L24.5,16.5245963 L30.9892977,20 L29.6939382,12.7457754 L35,7.63937915 L27.7100868,6.63136813 L24.5,0 L21.2899132,6.63136813 L21.2899132,6.63136813 Z" id="shopping-cart-11-icon-2" fill="#00C7F4"></path>
                </g>
            </g>
        </g>
    </g>
</svg>