<?xml version="1.0" encoding="UTF-8" standalone="no"?>
<svg width="122px" height="23px" viewBox="0 0 122 23" version="1.1" xmlns="http://www.w3.org/2000/svg" xmlns:xlink="http://www.w3.org/1999/xlink" xmlns:sketch="http://www.bohemiancoding.com/sketch/ns">
    <!-- Generator: Sketch 3.2.2 (9983) - http://www.bohemiancoding.com/sketch -->
    <title>Оплата квитанцией в  + Imported Layers</title>
    <desc>Created with Sketch.</desc>
    <defs>
        <path d="M3,18 L15,18 L15,20 L3,20 L3,18 Z M3,14 L15,14 L15,16 L3,16 L3,14 Z M3,10 L15,10 L15,12 L3,12 L3,10 Z M0,25 L1.5,23.5 L3,25 L4.5,23.5 L6,25 L7.5,23.5 L9,25 L10.5,23.5 L12,25 L13.5,23.5 L15,25 L16.5,23.5 L18,25 L18,5 L16.5,6.5 L15,5 L13.5,6.5 L12,5 L10.5,6.5 L9,5 L7.5,6.5 L6,5 L4.5,6.5 L3,5 L1.5,6.5 L0,5 L0,25 L0,25 Z" id="path-1"></path>
    </defs>
    <g id="Page-1" stroke="none" stroke-width="1" fill="none" fill-rule="evenodd" sketch:type="MSPage">
        <g id="platron_payment-banks" sketch:type="MSArtboardGroup" transform="translate(-314.000000, -289.000000)">
            <g id="Content" sketch:type="MSLayerGroup" transform="translate(30.000000, 100.000000)">
                <g id="Оплата-квитанцией-в--+-Imported-Layers" transform="translate(284.000000, 186.000000)">
                    <text id="Оплата-квитанцией-в-" sketch:type="MSTextLayer" font-family="Open Sans" font-size="10" font-weight="normal" fill="#333333">
                        <tspan x="26" y="11">Оплата квитанцией </tspan>
                        <tspan x="26" y="25">в банке</tspan>
                    </text>
                    <g id="Imported-Layers">
                        <use fill-opacity="0.35" fill="#00C7F4" sketch:type="MSShapeGroup" xlink:href="#path-1"></use>
                        <use fill-opacity="0.147418478" fill="#000000" xlink:href="#path-1"></use>
                    </g>
                </g>
            </g>
        </g>
    </g>
</svg>