<?xml version="1.0"?>
<svg width="56.00000000000001" height="24" xmlns="http://www.w3.org/2000/svg" xmlns:svg="http://www.w3.org/2000/svg">
 <g>
  <title>Layer 1</title>
  <g stroke="null" id="svg_1">
   <path stroke="null" id="svg_2" d="m10.15564,12.19383c0.46273,0 0.838279,0.390004 0.838279,0.870544c0,0.298596 -0.155082,0.549313 -0.374711,0.706881c0.244778,0.104465 0.512189,0.163662 0.79385,0.163662c1.157664,0 2.095698,-0.975009 2.095698,-2.176359s-0.938034,-2.176359 -2.095698,-2.176359s-2.095698,0.975009 -2.095698,2.176359c0,0.292503 0.057003,0.570206 0.157596,0.825275c0.151729,-0.229824 0.393153,-0.390004 0.680683,-0.390004z" fill="#36b5d2"/>
   <path stroke="null" id="svg_3" d="m11.413058,5.664753c-7.265365,0 -10.897629,6.964349 -10.897629,6.964349s1.631291,2.244262 5.029675,3.917446c1.580156,0.778266 3.373235,1.741087 5.867954,1.741087c2.522382,0 4.279415,-0.948893 5.867954,-1.741087c3.359823,-1.674926 5.029675,-3.917446 5.029675,-3.917446s-3.632264,-6.964349 -10.897629,-6.964349zm0,3.046903c1.617879,0 2.933977,1.366754 2.933977,3.046903s-1.316098,3.046903 -2.933977,3.046903s-2.933977,-1.366754 -2.933977,-3.046903s1.316098,-3.046903 2.933977,-3.046903zm5.142843,6.265303l-0.250645,0.124488c-1.416692,0.710364 -2.882842,1.445102 -4.892197,1.445102c-1.973309,0 -3.44868,-0.730386 -4.875432,-1.437268l-0.273279,-0.135805c-1.70506,-0.839204 -2.912182,-1.84207 -3.627234,-2.539376c0.507997,-0.60851 2.257486,-2.500201 5.065721,-3.509161c-0.564162,0.793936 -0.900312,1.771556 -0.900312,2.83362c0,2.643841 2.064682,4.78799 4.610535,4.78799s4.610535,-2.144149 4.610535,-4.78799c0,-1.060322 -0.335312,-2.036202 -0.896959,-2.829267c2.822486,1.021148 4.551856,2.939826 5.028837,3.524831c-0.728465,0.699917 -1.929719,1.690596 -3.599571,2.522836z" fill="#36b5d2"/>
  </g>
  <path id="svg_4" d="m46.810939,10.572014c-0.33021,0.328862 -0.702337,0.687863 -1.141191,1.099163c-0.37726,0.369638 -1.425206,1.299494 -3.062567,2.108797c-0.034219,0.016842 -0.066726,0.031911 -0.100945,0.048753c-0.223277,0.108143 -0.457674,0.211855 -0.701482,0.313793c-0.005988,0.001773 -0.011977,0.005319 -0.016254,0.007091c-0.62449,0.257949 -1.317417,0.484873 -2.076215,0.660384c-0.044484,0.010637 -0.088968,0.020388 -0.131742,0.031025c-0.145429,0.031911 -0.293425,0.062936 -0.443131,0.091301c-1.483377,0.281882 -2.503092,0.231356 -2.503092,0.231356s-1.019715,0.050526 -2.503948,-0.232243c-0.149706,-0.028365 -0.297702,-0.05939 -0.443131,-0.091301c-0.043629,-0.009751 -0.088113,-0.020388 -0.131742,-0.031025c-0.758798,-0.175512 -1.45087,-0.403322 -2.076215,-0.660384c-0.004277,-0.001773 -0.010266,-0.005319 -0.016254,-0.007091c-0.243808,-0.101052 -0.479061,-0.20565 -0.701482,-0.313793c-0.033363,-0.016842 -0.066726,-0.031911 -0.100945,-0.048753c-1.637361,-0.809303 -2.685306,-1.739159 -3.062567,-2.108797c-0.438854,-0.410413 -0.810981,-0.770301 -1.141191,-1.099163c-0.695494,0.551354 2.698138,7.031984 10.177474,7.031984s10.873823,-6.480629 10.176618,-7.031097z" fill="#36b5d2"/>
 </g>
</svg>