<?xml version="1.0" encoding="UTF-8" standalone="no"?>
<svg width="100px" height="30px" viewBox="0 0 100 30" version="1.1" xmlns="http://www.w3.org/2000/svg" xmlns:xlink="http://www.w3.org/1999/xlink" xmlns:sketch="http://www.bohemiancoding.com/sketch/ns">
    <!-- Generator: Sketch 3.2.2 (9983) - http://www.bohemiancoding.com/sketch -->
    <title>Imported Layers</title>
    <desc>Created with Sketch.</desc>
    <defs></defs>
    <g id="Page-1" stroke="none" stroke-width="1" fill="none" fill-rule="evenodd" sketch:type="MSPage">
        <g id="platron_payment-internet-banking" sketch:type="MSArtboardGroup" transform="translate(-655.000000, -285.000000)" fill="#DB342A">
            <g id="Content" sketch:type="MSLayerGroup" transform="translate(30.000000, 100.000000)">
                <path d="M634.472,185 C636.481111,185 637.112667,186.460526 637.640444,187.922857 C637.864444,188.541128 643.082889,203.046241 643.238889,203.481353 C643.282667,203.601353 643.253778,203.80188 643.069556,203.873383 C642.884667,203.944662 640.172667,205.015188 640.023111,205.072256 C639.873111,205.129549 639.704222,205.044962 639.649111,204.893609 C639.593556,204.743158 638.469778,201.581429 638.342667,201.227293 L630.610889,201.227293 C630.483778,201.581429 629.348222,204.748797 629.295778,204.893609 C629.243778,205.038421 629.081333,205.13609 628.922889,205.072256 C628.763778,205.00797 626.039778,203.936767 625.878889,203.873383 C625.722889,203.813158 625.651333,203.633383 625.706667,203.481353 C625.898667,202.936842 631.037333,188.665188 631.300667,187.922857 C631.808889,186.483985 632.463778,185 634.472,185 L634.472,185 Z M625.293111,210.953383 C625.130889,210.953383 625,211.089624 625,211.25812 L625,214.646316 C625,214.815263 625.130889,214.950827 625.293111,214.950827 L643.651111,214.950827 C643.812,214.950827 643.941778,214.815263 643.941778,214.646316 L643.941778,211.25812 C643.941778,211.089624 643.812,210.953383 643.651111,210.953383 L625.293111,210.953383 L625.293111,210.953383 Z M634.456444,189.736842 L631.841556,197.704887 L637.112667,197.704887 L634.489111,189.736842 L634.456444,189.736842 L634.456444,189.736842 Z M702.758889,201.430526 C702.758889,202.332331 702.267556,202.925564 701.361778,202.925564 C701.003778,202.925564 700.710222,202.926692 700.242667,202.797218 L700.242667,200.067895 C700.449111,200.033609 700.875556,199.966391 701.361778,199.984211 C702.282444,200.019624 702.758889,200.45609 702.758889,201.430526 L702.758889,201.430526 Z M704.617778,201.29609 C704.617778,199.624211 703.652889,198.472256 701.625556,198.472256 C701.127556,198.472256 700.779778,198.520526 700.242667,198.649323 L700.238889,196.242556 C700.572889,196.194511 701.145111,196.152105 701.775333,196.152105 C702.371556,196.152105 703.126889,196.185263 703.789556,196.267368 L703.835778,194.872707 C703.082667,194.701278 701.990222,194.596617 701.142444,194.596617 C700.307111,194.596617 699.008444,194.808647 698.389778,194.978496 L698.389111,203.87406 C699.353333,204.23203 700.294222,204.396015 701.260222,204.396015 C703.470667,204.396015 704.617778,203.206617 704.617778,201.29609 L704.617778,201.29609 Z M683.530444,200.811128 C683.530444,202.051955 683.043556,202.852256 682.242,202.852256 C681.905556,202.852256 681.727111,202.835113 681.346889,202.709023 L681.346889,198.982932 C681.764222,198.78015 681.988889,198.782406 682.326,198.782406 C683.128667,198.782406 683.530444,199.455714 683.530444,200.811128 L683.530444,200.811128 Z M677.422667,200.853083 C677.422667,199.498571 677.824667,198.782406 678.626222,198.782406 C678.964667,198.782406 679.189333,198.78015 679.606667,198.982932 L679.606667,202.709023 C679.227778,202.835113 679.048667,202.852256 678.710889,202.852256 C677.797333,202.852256 677.422667,202.095489 677.422667,200.853083 L677.422667,200.853083 Z M681.346889,206.436015 L681.346889,204.011429 C681.568222,204.144286 682.009556,204.340526 682.753778,204.340526 C684.233556,204.340526 685.324,203.092256 685.324,200.811128 C685.324,198.35406 684.240667,197.302256 682.460222,197.302256 C682.007778,197.302256 681.713333,197.349398 681.346889,197.526692 L681.346889,194.629774 L679.606667,194.629774 L679.606667,197.526692 C679.240667,197.349398 678.944444,197.302256 678.492667,197.302256 C676.712222,197.302256 675.628444,198.397594 675.628444,200.853083 C675.628444,203.135113 676.608222,204.340526 678.196444,204.340526 C678.943778,204.340526 679.385333,204.144286 679.606667,204.011429 L679.606667,206.436015 L681.346889,206.436015 L681.346889,206.436015 Z M668.125111,204.225489 L668.125111,197.722932 C667.166,197.432857 666.427778,197.306992 665.465111,197.306992 C664.503333,197.306992 663.783556,197.432857 662.823778,197.722932 L662.823778,201.052256 C662.823778,201.957444 662.808444,202.229248 662.711333,202.521805 C662.614667,202.778271 662.485111,203.086165 662.133111,203.324135 L662.609333,204.362406 C664.012222,203.960226 664.540667,203.340602 664.540667,201.371203 L664.540667,198.921579 C665.004222,198.853008 665.095778,198.836992 665.465111,198.836992 C665.836889,198.836992 665.914444,198.853008 666.376667,198.921579 L666.376667,204.225489 L668.125111,204.225489 L668.125111,204.225489 Z M689.647778,202.799925 C689.263556,202.934812 689.010889,202.96594 688.707556,202.96594 C688.082667,202.96594 687.727111,202.715338 687.727111,202.064586 C687.727111,201.387444 688.175556,201.158045 689.041556,201.158045 C689.249778,201.158045 689.459556,201.190301 689.557778,201.224812 L689.557778,201.710451 C689.557778,202.234211 689.583111,202.576617 689.647778,202.799925 L689.647778,202.799925 Z M691.867778,203.577895 C691.406667,202.866015 691.286889,202.446015 691.286889,201.550526 L691.286889,199.732707 C691.286889,198.750602 691.174889,198.390376 690.918444,198.030376 C690.564889,197.525338 689.973111,197.306992 688.882667,197.306992 C688.113778,197.306992 687.357333,197.391579 686.634667,197.57812 L686.893778,198.880075 C687.385333,198.810602 687.896889,198.750602 688.267333,198.750602 C689.424444,198.750602 689.557778,198.921579 689.557778,199.801278 L689.557778,200.131053 C689.300667,200.060902 689.010889,200.010376 688.674444,200.010376 C686.926222,200.010376 686.006444,200.875188 686.006444,202.303008 C686.006444,203.644887 686.988889,204.377519 688.193778,204.377519 C688.641111,204.377519 689.108,204.292932 689.477111,204.141579 C689.699111,204.04188 689.796,203.985714 690.085111,203.792632 C690.259556,204.052481 690.607333,204.315038 690.749778,204.362406 L691.867778,203.577895 L691.867778,203.577895 Z M708.924444,202.799925 C708.540889,202.934812 708.288222,202.96594 707.983556,202.96594 C707.358,202.96594 707.005778,202.715338 707.005778,202.064586 C707.005778,201.387444 707.453556,201.158045 708.319556,201.158045 C708.529778,201.158045 708.737556,201.190301 708.833111,201.224812 L708.833111,201.710451 C708.833111,202.234211 708.861111,202.576617 708.924444,202.799925 L708.924444,202.799925 Z M711.145778,203.577895 C710.682889,202.866015 710.563111,202.446015 710.563111,201.550526 L710.563111,199.732707 C710.563111,198.750602 710.452444,198.390376 710.196444,198.030376 C709.841111,197.525338 709.250444,197.306992 708.159333,197.306992 C707.389111,197.306992 706.634667,197.391579 705.912667,197.57812 L706.171111,198.880075 C706.660667,198.810602 707.175556,198.750602 707.544889,198.750602 C708.699778,198.750602 708.833111,198.921579 708.833111,199.801278 L708.833111,200.131053 C708.576667,200.060902 708.288222,200.010376 707.951111,200.010376 C706.204222,200.010376 705.284444,200.875188 705.284444,202.303008 C705.284444,203.644887 706.267556,204.377519 707.470667,204.377519 C707.918444,204.377519 708.384,204.292932 708.753111,204.141579 C708.976444,204.04188 709.073556,203.985714 709.361111,203.792632 C709.535778,204.052481 709.885333,204.315038 710.027333,204.362406 L711.145778,203.577895 L711.145778,203.577895 Z M673.092,201.889549 C673.092,202.555414 672.860667,203.011504 672.021556,203.011504 C671.738889,203.011504 671.622667,203.011504 671.256,202.907068 L671.256,200.960902 C671.711333,200.871128 671.751556,200.856015 672.021556,200.856015 C672.823556,200.856015 673.092,201.25188 673.092,201.889549 L673.092,201.889549 Z M669.510222,197.415714 L669.503111,203.870677 C670.331556,204.225489 671.241556,204.385414 672.050222,204.385414 C673.905778,204.385414 674.898667,203.41188 674.898667,201.807218 C674.898667,200.355263 674.019778,199.456842 672.377111,199.456842 C671.959778,199.456842 671.715111,199.513008 671.256889,199.624887 L671.256889,197.415714 L669.510222,197.415714 L669.510222,197.415714 Z M717.532444,204.225489 L717.532444,197.477068 L715.784444,197.477068 L715.784444,200.028647 L713.805778,200.028647 L713.805778,197.477068 L712.061111,197.477068 L712.061111,204.225489 L713.805778,204.225489 L713.805778,201.469774 L715.784444,201.469774 L715.784444,204.225489 L717.532444,204.225489 L717.532444,204.225489 Z M724.704222,204.225489 C724.704222,204.225489 723.751111,202.160226 723.517556,201.693308 C723.254444,201.163233 723.012222,200.797594 722.473778,200.667669 L722.473778,200.636541 C722.834444,200.567519 723.120889,200.345564 723.430889,199.671128 C723.729778,199.011128 723.818222,198.87015 723.992667,198.714286 C724.164667,198.556165 724.398889,198.616391 724.398889,198.616391 L724.487556,197.38797 C724.236889,197.354135 723.960222,197.353684 723.674444,197.369474 C723.202444,197.399023 722.955556,197.535263 722.724444,197.775038 C722.543556,197.957519 722.418444,198.229774 722.264889,198.548947 C722.100889,198.89 721.971778,199.165865 721.807111,199.513008 C721.639111,199.868722 721.557111,200.027519 721.104667,200.027519 L720.811111,200.027519 L720.811111,197.477068 L719.056444,197.477068 L719.056444,204.225489 L720.811111,204.225489 L720.811111,201.46797 L721.05,201.46391 C721.548667,201.46391 721.634,201.590226 721.898889,202.124135 C722.210889,202.762481 722.8,204.225489 722.8,204.225489 L724.704222,204.225489 L724.704222,204.225489 Z M659.575778,204.225489 L661.588889,204.225489 L658.548444,194.79218 C658.228667,194.682556 657.828889,194.613985 657.406889,194.613985 C656.946,194.613985 656.781556,194.676015 656.42,194.79218 L653.195778,204.225489 L655.124,204.225489 C655.124,204.225489 655.382667,203.399474 655.698667,202.373158 L659.032889,202.373158 C659.333333,203.398797 659.575778,204.225489 659.575778,204.225489 L659.575778,204.225489 Z M656.188889,200.792406 C656.188889,200.792406 656.745333,198.901955 656.83,198.605789 C657.054889,197.836617 657.391333,196.625564 657.391333,196.625564 L657.446444,196.625564 C657.446444,196.625564 657.756222,197.880827 657.958444,198.594737 C658.037556,198.872406 658.569111,200.792406 658.569111,200.792406 L656.188889,200.792406 L656.188889,200.792406 Z M694.837111,199.716015 C694.221778,199.716015 693.721778,200.225564 693.721778,200.84812 C693.721778,201.476992 694.221778,201.981805 694.837111,201.981805 C695.451778,201.981805 695.951111,201.476992 695.951111,200.84812 C695.951111,200.225564 695.451778,199.716015 694.837111,199.716015 L694.837111,199.716015 Z" id="Imported-Layers" sketch:type="MSShapeGroup"></path>
            </g>
        </g>
    </g>
</svg>