<?xml version="1.0" encoding="UTF-8" standalone="no"?>
<svg width="97px" height="21px" viewBox="0 0 97 21" version="1.1" xmlns="http://www.w3.org/2000/svg" xmlns:xlink="http://www.w3.org/1999/xlink" xmlns:sketch="http://www.bohemiancoding.com/sketch/ns">
    <!-- Generator: Sketch 3.3.2 (12043) - http://www.bohemiancoding.com/sketch -->
    <title>payment-receipt copy 5</title>
    <desc>Created with Sketch.</desc>
    <defs></defs>
    <g id="Page-1" stroke="none" stroke-width="1" fill="none" fill-rule="evenodd" sketch:type="MSPage">
        <g id="payment-receipt-copy-5" sketch:type="MSLayerGroup" transform="translate(0.000000, -2.000000)">
            <g id="Page-1">
                <g id="platron_payment-banks">
                    <g id="Content">
                        <g id="Оплата-квитанцией-в--+-Imported-Layers">
                            <g id="Оплата-квитанцией-в-" transform="translate(26.000000, 0.000000)" font-size="7.34313374" font-family="Open Sans" fill="#333333" sketch:type="MSTextLayer" font-weight="normal">
                                <text id="Оплата-квитанцией">
                                    <tspan x="0" y="8" fill="#000000">Оплата </tspan>
                                    <tspan x="27.9741843" y="8" font-size="7.343" fill="#000000">квитанцией</tspan>
                                </text>
                                <text id="в-банке">
                                    <tspan x="0" y="22" fill="#000000">в банке</tspan>
                                </text>
                            </g>
                            <g id="Imported-Layers" transform="translate(0.000000, 2.000000)" sketch:type="MSShapeGroup">
                                <g id="path-1-link" fill-opacity="0.35" fill="#00C7F4">
                                    <path d="M3,13 L15,13 L15,15 L3,15 L3,13 L3,13 Z M3,9 L15,9 L15,11 L3,11 L3,9 L3,9 Z M3,5 L15,5 L15,7 L3,7 L3,5 L3,5 Z M0,20 L1.5,18.5 L3,20 L4.5,18.5 L6,20 L7.5,18.5 L9,20 L10.5,18.5 L12,20 L13.5,18.5 L15,20 L16.5,18.5 L18,20 L18,0 L16.5,1.5 L15,0 L13.5,1.5 L12,0 L10.5,1.5 L9,0 L7.5,1.5 L6,0 L4.5,1.5 L3,0 L1.5,1.5 L0,0 L0,20 L0,20 Z" id="path-1"></path>
                                </g>
                                <g id="path-1-link" fill-opacity="0.147418478" fill="#000000">
                                    <path d="M3,13 L15,13 L15,15 L3,15 L3,13 L3,13 Z M3,9 L15,9 L15,11 L3,11 L3,9 L3,9 Z M3,5 L15,5 L15,7 L3,7 L3,5 L3,5 Z M0,20 L1.5,18.5 L3,20 L4.5,18.5 L6,20 L7.5,18.5 L9,20 L10.5,18.5 L12,20 L13.5,18.5 L15,20 L16.5,18.5 L18,20 L18,0 L16.5,1.5 L15,0 L13.5,1.5 L12,0 L10.5,1.5 L9,0 L7.5,1.5 L6,0 L4.5,1.5 L3,0 L1.5,1.5 L0,0 L0,20 L0,20 Z" id="path-1"></path>
                                </g>
                            </g>
                        </g>
                    </g>
                </g>
            </g>
        </g>
    </g>
</svg>