<?xml version="1.0" encoding="UTF-8" standalone="no"?>
<svg width="62px" height="40px" viewBox="0 0 62 40" version="1.1" xmlns="http://www.w3.org/2000/svg" xmlns:xlink="http://www.w3.org/1999/xlink" xmlns:sketch="http://www.bohemiancoding.com/sketch/ns">
    <!-- Generator: Sketch 3.2.2 (9983) - http://www.bohemiancoding.com/sketch -->
    <title>Imported Layers</title>
    <desc>Created with Sketch.</desc>
    <defs></defs>
    <g id="Page-1" stroke="none" stroke-width="1" fill="none" fill-rule="evenodd" sketch:type="MSPage">
        <g id="platron_payment-terminals" sketch:type="MSArtboardGroup" transform="translate(-344.000000, -280.000000)">
            <g id="Content" sketch:type="MSLayerGroup" transform="translate(30.000000, 100.000000)">
                <g id="Imported-Layers" transform="translate(314.000000, 180.000000)" sketch:type="MSShapeGroup">
                    <path d="M31.3001159,0.364545455 C14.5124928,0.364545455 0.854521739,9.10545455 0.854521739,19.8481818 C0.854521739,30.5918182 14.5124928,39.3336364 31.3001159,39.3336364 C48.0886377,39.3336364 61.7448116,30.5918182 61.7448116,19.8481818 C61.7448116,9.10545455 48.0886377,0.364545455 31.3001159,0.364545455" id="Fill-1" fill="#005696"></path>
                    <path d="M11.6928406,19.7654545 L11.0746377,22.69 C11.0198261,22.9118182 10.7466667,23.0945455 10.5471884,23.0945455 C10.3468116,23.0945455 10.1653043,22.93 10.2201159,22.69 L12.2571304,12.9954545 C12.2930725,12.7927273 12.5833043,12.5709091 12.7477391,12.5709091 C12.8933043,12.5709091 13.1655652,12.7181818 13.1107536,12.9954545 L12.5833043,15.5145455 L14.384,15.5145455 L14.8575362,13.2709091 C14.9303188,12.9027273 14.9842319,12.6263636 14.9842319,12.3136364 C14.9842319,11.3936364 14.1485797,11.3936364 13.6391014,11.3936364 L12.4017971,11.3936364 C10.7835072,11.3936364 10.5651594,12.4809091 10.4016232,13.2881818 L8.4922029,22.34 C8.42031884,22.71 8.38347826,22.9845455 8.38347826,23.3345455 C8.38347826,24.3309091 9.01965217,24.2718182 9.69266667,24.2718182 L10.929971,24.2718182 C12.6390145,24.2718182 12.8205217,22.9472727 12.9481159,22.36 L13.4926377,19.7654545 L11.6928406,19.7654545 L11.6928406,19.7654545 Z M19.6575942,13.97 L18.1309565,13.97 L16.2763478,22.82 C16.2574783,22.9118182 16.2035652,23.1690909 15.8576232,23.1690909 C15.712058,23.1690909 15.4937101,23.0590909 15.5485217,22.82 L17.404029,13.97 L15.8755942,13.97 L14.0398551,22.6727273 C13.9850435,22.9672727 13.9661739,23.2245455 13.9661739,23.5 C13.9661739,23.96 14.2573043,24.2718182 14.711971,24.2718182 C15.2573913,24.2718182 15.765971,23.9790909 16.093942,23.6290909 L15.5305507,26.39 C15.5116812,26.4827273 15.4757391,26.7045455 15.1297971,26.7045455 C14.8575362,26.7045455 14.7658841,26.5372727 14.8027246,26.39 L14.9662609,25.5627273 L13.4387246,25.5627273 L13.347971,26.0427273 C13.2931594,26.3727273 13.2931594,26.6118182 13.2931594,26.8872727 C13.2931594,27.5872727 14.0030145,27.6245455 14.4208406,27.6245455 L15.3490435,27.6245455 C16.7849275,27.6245455 17.058087,26.3172727 17.1847826,25.7281818 L19.6575942,13.97 L19.6575942,13.97 Z M23.0037971,11.3936364 L21.4771594,11.3936364 L18.7671304,24.2718182 L20.2946667,24.2718182 L20.3854203,23.8490909 C20.8221159,24.3127273 21.204,24.3854545 21.4043768,24.3854545 C22.4224348,24.3854545 22.7315362,23.3718182 22.8402609,22.8572727 L24.4226087,15.3672727 C24.4953913,15.0372727 24.5313333,14.7972727 24.5313333,14.5027273 C24.5313333,13.9509091 24.0955362,13.86 23.6408696,13.86 C23.3497391,13.86 22.931913,13.9881818 22.3676232,14.3754545 L23.0037971,11.3936364 L23.0037971,11.3936364 Z M22.1313043,15.4972727 C22.1672464,15.35 22.3864928,15.1472727 22.568,15.1472727 C22.9489855,15.1472727 22.8771014,15.4045455 22.8591304,15.4972727 L21.3486667,22.7454545 C21.3315942,22.82 21.2767826,23.0945455 20.9128696,23.0945455 C20.7673043,23.0945455 20.5678261,22.9672727 20.6226377,22.7454545 L22.1313043,15.4972727 L22.1313043,15.4972727 Z M26.8415072,20.6654545 L26.367971,22.8572727 C26.332029,23.0590909 26.1136812,23.1690909 25.9133043,23.1690909 C25.6958551,23.1690909 25.6051014,23.0027273 25.6410435,22.8572727 L26.332029,19.6363636 L28.5873913,19.6363636 L29.4598841,15.4772727 C29.6413913,14.65 29.2604058,13.97 28.3142319,13.97 L27.368058,13.97 C26.5324058,13.97 25.8773623,14.4854545 25.6590145,15.4972727 L24.1314783,22.7645455 C24.0766667,23.04 24.0766667,23.2618182 24.0766667,23.5 C24.0766667,24.2718182 24.6957681,24.2718182 25.2043478,24.2718182 L26.1505217,24.2718182 C26.6591014,24.2718182 27.6232464,24.2172727 27.9323478,22.7454545 L28.3690435,20.6654545 L26.8415072,20.6654545 L26.8415072,20.6654545 Z M26.5324058,18.6063636 L27.2224928,15.3872727 C27.2413623,15.2772727 27.368058,15.0727273 27.6052754,15.0727273 C27.8227246,15.0727273 27.9871594,15.1845455 27.9503188,15.3872727 L27.2593333,18.6063636 L26.5324058,18.6063636 L26.5324058,18.6063636 Z M30.4051594,24.2718182 L32.2417971,15.5145455 C32.2966087,15.2572727 32.5877391,15.1472727 32.6964638,15.1472727 C32.824058,15.1472727 33.0235362,15.2572727 32.9696232,15.5145455 L32.5697681,17.4663636 L34.0973043,17.4663636 L34.5708406,15.2027273 C34.6058841,15 34.6606957,14.8154545 34.6606957,14.6145455 C34.6606957,14.1527273 34.4621159,13.86 33.9517391,13.86 C33.4422609,13.86 33.0963188,14.0254545 32.4781159,14.3927273 L32.5697681,13.97 L31.0413333,13.97 L28.8776232,24.2718182 L30.4051594,24.2718182 L30.4051594,24.2718182 Z M33.7342899,24.2718182 L35.5349855,24.2718182 L36.4982319,19.6736364 L37.4983188,19.6736364 C39.0995362,19.6736364 39.3906667,18.4763636 39.5533043,17.7045455 L40.4806087,13.2709091 C40.5542899,12.9027273 40.5893333,12.6263636 40.5893333,12.3136364 C40.5893333,11.3390909 39.6997681,11.3936364 39.2451014,11.3936364 L36.4443188,11.3936364 L33.7342899,24.2718182 L33.7342899,24.2718182 Z M36.7525217,18.4963636 L37.9898261,12.5709091 L38.2252464,12.5709091 C38.4444928,12.5709091 38.8254783,12.6636364 38.6987826,13.2336364 L37.7166667,17.8690909 C37.6250145,18.2936364 37.315913,18.4963636 36.9708696,18.4963636 L36.7525217,18.4963636 L36.7525217,18.4963636 Z M39.2253333,24.2718182 L40.7537681,24.2718182 L43.4637971,11.3936364 L41.9353623,11.3936364 L39.2253333,24.2718182 L39.2253333,24.2718182 Z M43.5356812,17.0618182 L45.0641159,17.0618182 L45.4082609,15.4045455 C45.4451014,15.2218182 45.6993913,15.0727273 45.8458551,15.0727273 C45.9734493,15.0727273 46.1908986,15.1472727 46.1369855,15.4045455 L45.7542029,17.2263636 C45.5906667,18.0163636 44.8628406,18.2563636 44.2446377,18.5509091 C43.1897391,19.0663636 42.9722899,19.7281818 42.9004058,20.0781818 L42.3001739,22.9472727 C42.2444638,23.1690909 42.2264928,23.3718182 42.2264928,23.5918182 C42.2264928,24.1818182 42.4637101,24.3854545 42.9552174,24.3854545 C43.5904928,24.3854545 44.1188406,24.0345455 44.3902029,23.7572727 L44.2814783,24.2718182 L45.8081159,24.2718182 L47.7004638,15.3127273 C47.846029,14.6145455 47.4830145,13.97 46.6635362,13.97 L45.6275072,13.97 C45.1189275,13.97 44.1907246,14.0427273 43.9184638,15.3127273 L43.5356812,17.0618182 L43.5356812,17.0618182 Z M44.6076522,22.69 C44.5366667,23.0027273 44.2994493,23.0945455 44.1538841,23.0945455 C43.9184638,23.0945455 43.8447826,22.8372727 43.8816232,22.69 L44.4818551,19.8936364 C44.5726087,19.4336364 44.5537391,19.2509091 45.428029,18.7909091 L44.6076522,22.69 L44.6076522,22.69 Z M48.5918261,15.0727273 L49.4095072,15.0727273 L47.8091884,22.71 C47.4830145,24.3127273 48.6268696,24.2718182 49.1183768,24.2718182 L50.1184638,24.2718182 L50.3556812,23.1690909 L49.8102609,23.1690909 C49.263942,23.1690909 49.3555942,22.6727273 49.3924348,22.4872727 L50.9361449,15.0727273 L52.0458551,15.0727273 L52.2821739,13.97 L51.1733623,13.97 L51.7196812,11.3936364 L50.1921449,11.3936364 L49.6467246,13.97 L48.8272464,13.97 L48.5918261,15.0727273 L48.5918261,15.0727273 Z" id="Fill-2" fill="#FFFFFF"></path>
                    <path d="M8.35742029,25.7245455 L12.9606957,25.7245455 L12.7576232,27.0827273 L8.35742029,27.0827273 L8.35742029,25.7245455 L8.35742029,25.7245455 Z M17.6322609,25.7245455 L52.39,25.7245455 L52.39,27.0827273 L17.3276522,27.0827273 L17.6322609,25.7245455 L17.6322609,25.7245455 Z" id="Fill-3" fill="#FFFFFF"></path>
                    <path d="M56.5493913,21.6836364 C56.5493913,20.1190909 55.2869275,18.8427273 53.7414203,18.8427273 C52.186029,18.8427273 50.9244638,20.1190909 50.9334493,21.6836364 C50.9334493,23.2545455 52.186029,24.5254545 53.7414203,24.5254545 C55.2869275,24.5172727 56.5493913,23.2545455 56.5493913,21.6836364 L56.5493913,21.6836364 Z M56.2223188,21.6836364 C56.2223188,23.0736364 55.1081159,24.1936364 53.7414203,24.1936364 C52.3648406,24.2027273 51.2596232,23.0736364 51.2596232,21.69 C51.2506377,20.3 52.3648406,19.1709091 53.7324348,19.1709091 C55.1081159,19.1709091 56.2223188,20.3 56.2223188,21.6836364 L56.2223188,21.6836364 Z M52.691913,23.1654545 L53.089971,23.1654545 L53.089971,21.8236364 L54.108029,21.8236364 C54.7504928,21.8236364 54.5707826,22.3990909 54.6363768,22.77 L54.7010725,23.1654545 L55.1728116,23.1654545 C55.0029855,22.8927273 55.0586957,22.8263636 55.0272464,22.4145455 C54.9778261,21.8718182 54.9697391,21.8236364 54.6516522,21.6172727 C54.9535652,21.3863636 55.0766667,21.2372727 55.0586957,20.8345455 C55.0182609,20.1263636 54.5555072,20.0354545 54.0747826,20.0354545 L52.691913,20.0354545 L52.691913,23.1654545 L52.691913,23.1654545 Z M54.0837681,20.3909091 C54.3272754,20.3909091 54.710058,20.4563636 54.6516522,20.9909091 C54.6112174,21.3936364 54.3515362,21.4681818 54.0837681,21.4681818 L53.089971,21.4681818 L53.089971,20.3909091 L54.0837681,20.3909091 L54.0837681,20.3909091 Z" id="Fill-4" fill="#FFFFFF"></path>
                </g>
            </g>
        </g>
    </g>
</svg>