<?xml version="1.0" encoding="UTF-8" standalone="no"?>
<svg width="90px" height="28px" viewBox="0 0 90 28" version="1.1" xmlns="http://www.w3.org/2000/svg" xmlns:xlink="http://www.w3.org/1999/xlink" xmlns:sketch="http://www.bohemiancoding.com/sketch/ns">
    <!-- Generator: Sketch 3.2.2 (9983) - http://www.bohemiancoding.com/sketch -->
    <title>payment-logo-eleksnet</title>
    <desc>Created with Sketch.</desc>
    <defs></defs>
    <g id="Page-1" stroke="none" stroke-width="1" fill="none" fill-rule="evenodd" sketch:type="MSPage">
        <g id="platron_payment-terminals" sketch:type="MSArtboardGroup" transform="translate(-495.000000, -151.000000)">
            <g id="Content" sketch:type="MSLayerGroup" transform="translate(30.000000, 100.000000)">
                <g id="payment-logo-eleksnet" transform="translate(465.000000, 51.000000)" sketch:type="MSShapeGroup">
                    <rect id="Rectangle-4" opacity="0" fill="#173386" x="13" y="0" width="90" height="27.0967742"></rect>
                    <path d="M33.2884261,13.6072118 L38.5598177,13.6072118 C38.3751536,11.4266982 37.0153935,9.69914937 34.6818714,9.69914937 C33.7753071,9.69914937 32.9862956,9.95070064 32.2643954,10.2693898 L31.9118234,9.1456503 C32.7176775,8.79339223 33.6913532,8.49153072 34.765739,8.49153072 C38.3247985,8.49153072 40.1379271,11.0576988 40.1379271,14.3452969 C40.1379271,18.0520321 37.6868522,20.1654078 34.6818714,20.1654078 C33.5570441,20.1654078 32.5330134,19.9473392 31.7271593,19.5783398 L32.0461324,18.4210314 C32.7008349,18.7229792 33.6409981,18.9409616 34.4803647,18.9409616 C36.9817946,18.9409616 38.4758637,17.1295336 38.5765739,14.7812616 L33.2884261,14.7812616 L33.2884261,13.6072118" id="Fill-1" fill="#727673"></path>
                    <path d="M46.7353071,11.8628354 L46.7353071,19.9809082 L45.2747505,19.9809082 L45.2747505,13.0201438 L42.4879463,13.0201438 L42.4879463,15.1335196 C42.4879463,17.4146538 42.2695969,18.9409616 41.2120537,19.6286501 C40.8091267,19.9473392 40.3558445,20.1318389 39.6003455,20.1318389 L39.4492802,18.9745305 C39.7346545,18.9242203 40.0536276,18.8068584 40.2551344,18.6391001 C41.010547,18.0855147 41.094501,16.9450339 41.094501,15.1335196 L41.094501,11.8628354 L46.7353071,11.8628354" id="Fill-2" fill="#727673"></path>
                    <path d="M48.9677735,16.1902075 C49.001286,18.1862215 50.2771785,19.0080994 51.7544914,19.0080994 C52.8121209,19.0080994 53.4500672,18.8235998 54.0040595,18.5887035 L54.2559213,19.6453914 C53.7355278,19.8802877 52.8457198,20.1486665 51.553071,20.1486665 C49.0516411,20.1486665 47.5574856,18.5049106 47.5574856,16.0561044 C47.5574856,13.6072118 49.001286,11.6783357 51.3683205,11.6783357 C54.0208157,11.6783357 54.7260461,14.0097802 54.7260461,15.5026053 C54.7260461,15.8044668 54.6923608,16.0392768 54.6756046,16.1902075 L48.9677735,16.1902075 L48.9677735,16.1902075 Z M53.2990019,15.1335196 C53.3157582,14.1942798 52.9128311,12.7349373 51.2508541,12.7349373 C49.7566987,12.7349373 49.1019962,14.1104007 48.9845298,15.1335196 L53.2990019,15.1335196 L53.2990019,15.1335196 Z" id="Fill-3" fill="#727673"></path>
                    <path d="M56.6730518,11.8628354 L56.6730518,15.3850709 L57.0255374,15.3850709 L60.0809597,11.8628354 L61.8772457,11.8628354 L58.3350288,15.5360879 C59.6445202,15.6702774 60.4334453,16.5424656 61.0713916,18.0017218 C61.2897409,18.5383933 61.5750288,19.3267886 61.9444434,19.9809082 L60.3999328,19.9809082 C60.1817562,19.6286501 59.8962956,18.9912718 59.6445202,18.3204109 C59.0905278,17.0120855 58.3350288,16.4082761 56.9584261,16.4082761 L56.6730518,16.4082761 L56.6730518,19.9809082 L55.2124088,19.9809082 L55.2124088,11.8628354 L56.6730518,11.8628354" id="Fill-4" fill="#727673"></path>
                    <path d="M67.9373896,19.6789603 C67.5512188,19.8802877 66.695096,20.1486665 65.6038676,20.1486665 C63.1527927,20.1486665 61.5579271,18.488083 61.5579271,16.0057941 C61.5579271,13.5065913 63.2702591,11.6951633 65.9227543,11.6951633 C66.7958061,11.6951633 67.567975,11.9131457 67.9709021,12.1143867 L67.6351727,13.2549538 C67.2826008,13.0537128 66.7286084,12.8692131 65.9227543,12.8692131 C64.059357,12.8692131 63.0520825,14.2445901 63.0520825,15.93857 C63.0520825,17.8172221 64.2607774,18.9745305 65.8723992,18.9745305 C66.7118522,18.9745305 67.2658445,18.7565482 67.6855278,18.5719622 L67.9373896,19.6789603" id="Fill-5" fill="#727673"></path>
                    <path d="M70.0859885,11.8628354 L70.0859885,15.1335196 L73.9472649,15.1335196 L73.9472649,11.8628354 L75.4078215,11.8628354 L75.4078215,19.9809082 L73.9472649,19.9809082 L73.9472649,16.3076556 L70.0859885,16.3076556 L70.0859885,19.9809082 L68.6254319,19.9809082 L68.6254319,11.8628354 L70.0859885,11.8628354" id="Fill-6" fill="#727673"></path>
                    <path d="M77.6401152,16.1902075 C77.673714,18.1862215 78.9496065,19.0080994 80.4269194,19.0080994 C81.4845489,19.0080994 82.1224952,18.8235998 82.6764875,18.5887035 L82.9283493,19.6453914 C82.4079559,19.8802877 81.5181478,20.1486665 80.225499,20.1486665 C77.7240691,20.1486665 76.2299136,18.5049106 76.2299136,16.0561044 C76.2299136,13.6072118 77.673714,11.6783357 80.0407486,11.6783357 C82.6932438,11.6783357 83.3983877,14.0097802 83.3983877,15.5026053 C83.3983877,15.8044668 83.3647889,16.0392768 83.3479463,16.1902075 L77.6401152,16.1902075 L77.6401152,16.1902075 Z M81.9714299,15.1335196 C81.9881862,14.1942798 81.5852591,12.7349373 79.9232821,12.7349373 C78.4291267,12.7349373 77.7744242,14.1104007 77.6569578,15.1335196 L81.9714299,15.1335196 L81.9714299,15.1335196 Z" id="Fill-7" fill="#727673"></path>
                    <path d="M89.9789251,11.8628354 L89.9789251,13.0368851 L87.4439827,13.0368851 L87.4439827,19.9809082 L85.9834261,19.9809082 L85.9834261,13.0368851 L83.4484837,13.0368851 L83.4484837,11.8628354 L89.9789251,11.8628354" id="Fill-8" fill="#727673"></path>
                    <path d="M27.0488868,14.4127799 C27.0488868,21.8953853 20.9970345,27.961167 13.5316123,27.961167 C6.06627639,27.961167 0.0143378119,21.8953853 0.0143378119,14.4127799 C0.0143378119,6.93017457 6.06627639,0.86439285 13.5316123,0.86439285 C20.9970345,0.86439285 27.0488868,6.93017457 27.0488868,14.4127799" id="Fill-9" fill="#E4E5E3"></path>
                    <path d="M9,13.3225806 L24.75,13.3225806 C24.75,7.67741935 19.3554792,3.16129032 14.625,3.16129032 C7.30118315,3.16129032 2.25,8.21621531 2.25,15.5806452 C2.25,20.6870992 7.30118315,25.7419355 14.625,25.7419355 C19.3554792,25.7419355 24.75,21.2258065 24.75,15.5806452 L9,15.5806452 L9,12.1935484 L9,13.3225806 Z M16.875,8.80645161 C16.875,9.17731439 16.1194566,9.93548387 14.625,9.93548387 C14.2554617,9.93548387 13.5,9.17731439 13.5,8.80645161 C13.5,7.30663853 14.2554617,6.5483871 14.625,6.5483871 C16.1194566,6.5483871 16.875,7.30663853 16.875,8.80645161 Z" id="Fill-10" fill="#E77A30"></path>
                </g>
            </g>
        </g>
    </g>
</svg>