<?xml version="1.0" encoding="UTF-8" standalone="no"?>
<svg width="100px" height="19px" viewBox="0 0 100 19" version="1.1" xmlns="http://www.w3.org/2000/svg" xmlns:xlink="http://www.w3.org/1999/xlink" xmlns:sketch="http://www.bohemiancoding.com/sketch/ns">
    <!-- Generator: Sketch 3.2.2 (9983) - http://www.bohemiancoding.com/sketch -->
    <title>payment-logo-megafon</title>
    <desc>Created with Sketch.</desc>
    <defs></defs>
    <g id="Page-1" stroke="none" stroke-width="1" fill="none" fill-rule="evenodd" sketch:type="MSPage">
        <g id="platron_payment-phone" sketch:type="MSArtboardGroup" transform="translate(-655.000000, -156.000000)">
            <g id="Content" sketch:type="MSLayerGroup" transform="translate(30.000000, 100.000000)">
                <g id="payment-logo-megafon" transform="translate(625.000000, 52.000000)" sketch:type="MSShapeGroup">
                    <rect id="Rectangle-5" opacity="0" fill="#173386" x="0" y="0" width="100" height="27"></rect>
                    <path d="M10,13.4654661 L10,14.0625 C9.99629122,14.4665635 9.41544608,14.5506604 9.0050615,14.5506604 L7.8790436,14.5506604 C7.82292814,14.5511379 7.77777778,14.595857 7.77777778,14.6513978 L7.77777778,22.4611692 C8.05658129,22.4863137 8.33844858,22.5 8.62370215,22.5 C13.6794145,22.5 17.7777778,18.4550687 17.7777778,13.465466 C17.7777778,8.99833916 14.4910095,5.28858934 10.1743859,4.5611587 C10.0347429,4.53762629 10.1417221,4.57837365 10,4.5611587 L10,13.4654661 Z M9.83014129,18.3527368 C9.21507064,18.3527368 8.71632653,17.8512632 8.71632653,17.2323158 C8.71632653,16.6136842 9.21507064,16.1118947 9.83014129,16.1118947 C10.4453689,16.1118947 10.944113,16.6136842 10.944113,17.2323158 C10.944113,17.8514211 10.4453689,18.3527368 9.83014129,18.3527368 L9.83014129,18.3527368 Z M12.4427002,18.3527368 C11.8276295,18.3527368 11.3288854,17.8512632 11.3288854,17.2323158 C11.3288854,16.6136842 11.8276295,16.1118947 12.4427002,16.1118947 C13.0579278,16.1118947 13.5566719,16.6136842 13.5566719,17.2323158 C13.5565149,17.8514211 13.0579278,18.3527368 12.4427002,18.3527368 L12.4427002,18.3527368 Z M16.1675039,17.2323158 C16.1673469,17.8514211 15.6687598,18.3527368 15.0536892,18.3527368 C14.4386185,18.3527368 13.9398744,17.8512632 13.9398744,17.2323158 C13.9398744,16.6136842 14.4386185,16.1118947 15.0536892,16.1118947 C15.6687598,16.1118947 16.1675039,16.6136842 16.1675039,17.2323158 L16.1675039,17.2323158 Z M8.94128728,4.50189474 L9.06389325,4.50189474 C9.0133438,4.50094737 8.96263736,4.5 8.91193093,4.5 C3.9899529,4.5 0,8.51305263 0,13.4632105 C0,17.76 2.65473574,21.6265263 6.66666667,22.5 L6.66666667,14.625 C6.67482993,14.2373684 7.33375196,13.4788421 7.71726845,13.464 L8.8422292,13.4633684 C8.89497645,13.4633684 8.93751962,13.4218421 8.94081633,13.3697368 L8.94128728,4.50189474 Z M7.20376766,11.8912105 C6.58854003,11.8912105 6.08979592,11.3897368 6.08979592,10.7711053 C6.08979592,10.1524737 6.58854003,9.65068421 7.20376766,9.65068421 C7.8188383,9.65068421 8.31758242,10.1524737 8.31758242,10.7711053 C8.31758242,11.3897368 7.8188383,11.8912105 7.20376766,11.8912105 L7.20376766,11.8912105 Z M97.6459969,9.42852632 L97.6459969,12.8103158 L93.132967,12.8103158 L93.132967,9.42852632 L90.9053375,9.42852632 L90.9053375,18.3592105 L93.132967,18.3592105 L93.132967,14.7498947 L97.6459969,14.7498947 L97.6459969,18.3592105 L99.8737834,18.3592105 L99.8737834,9.42852632 L97.6459969,9.42852632 L97.6459969,9.42852632 Z M59.0207221,9.21584211 L59.0197802,9.21584211 C58.3053375,9.21584211 57.5640502,9.61310526 57.1918367,10.4243684 L53.5529042,18.3592105 L55.9199372,18.3592105 L56.7135008,16.4741053 L61.3263736,16.4741053 L62.1199372,18.3592105 L64.4869702,18.3592105 L60.8486656,10.4243684 C60.4767661,9.61294737 59.7351648,9.21584211 59.0207221,9.21584211 L59.0207221,9.21584211 Z M57.4682889,14.6861053 L58.8386185,11.4431053 C58.8811617,11.3423684 58.9605965,11.3155263 59.0197802,11.3155263 L59.0200942,11.3155263 L59.0207221,11.3155263 C59.0799058,11.3155263 59.1593407,11.3423684 59.2018838,11.4431053 L60.5722135,14.6861053 L57.4682889,14.6861053 L57.4682889,14.6861053 Z M34.4979592,7.81089474 C33.45573,7.81089474 32.7905808,8.36952632 32.2974882,9.49405263 L29.3949765,16.2154737 L26.4924647,9.49405263 C25.9993721,8.36952632 25.3342229,7.81089474 24.2918367,7.81089474 C23.3172684,7.81089474 22.3091052,8.51289474 22.3091052,10.0384737 L22.3091052,18.3592105 L24.5320251,18.3592105 L24.5320251,10.2658421 L27.4519623,16.9304211 C27.844427,17.8613684 28.4756672,18.4463684 29.3941915,18.4468421 L29.3952904,18.4468421 C30.3139717,18.4462105 30.9450549,17.8612105 31.3376766,16.9304211 L34.2576138,10.2658421 L34.2576138,18.3592105 L36.4805338,18.3592105 L36.4805338,10.0384737 C36.4808477,8.51289474 35.4725275,7.81089474 34.4979592,7.81089474 L34.4979592,7.81089474 Z M37.9593407,10.7602105 L37.9593407,17.0276842 C37.9593407,17.7113684 38.5130298,18.3595263 39.2839874,18.3595263 L45.8656201,18.3595263 L45.8656201,16.4726842 L40.3783359,16.4725263 C40.2708006,16.4725263 40.1871272,16.3839474 40.1871272,16.2800526 L40.1871272,14.6861053 L45.7356358,14.6861053 L45.7356358,12.8665263 L40.1871272,12.8665263 L40.1871272,11.508 C40.1871272,11.4041053 40.2708006,11.3156842 40.3783359,11.3156842 L45.8656201,11.3156842 L45.8656201,9.42852632 L39.2839874,9.42852632 C38.5130298,9.42852632 37.9593407,10.0763684 37.9593407,10.7602105 L37.9593407,10.7602105 Z M55.2540031,9.42852632 L48.6725275,9.42852632 C47.9014129,9.42852632 47.3478807,10.0763684 47.3478807,10.7602105 L47.3478807,18.3595263 L49.5753532,18.3595263 L49.5753532,18.3592105 L49.5755102,18.3592105 L49.5755102,11.5078421 C49.5755102,11.4039474 49.6593407,11.3155263 49.766719,11.3155263 L55.2540031,11.3155263 L55.2540031,9.42852632 L55.2540031,9.42852632 Z M84.7259027,9.29178947 L83.9474097,9.29178947 C80.5762951,9.29178947 79.2409733,10.7510526 79.2394035,13.8783158 L79.2394035,13.8830526 C79.2394035,16.9615263 80.6043956,18.4462105 83.966405,18.4462105 L84.7059655,18.4462105 C88.067033,18.4462105 89.432967,16.9615263 89.432967,13.8830526 C89.43281,13.8817895 89.43281,13.8800526 89.43281,13.8783158 C89.4315542,10.7508947 88.0956044,9.29178947 84.7259027,9.29178947 L84.7259027,9.29178947 Z M87.2646782,13.8871579 C87.2646782,15.7574211 86.5343799,16.5982105 84.6921507,16.5982105 L83.9802198,16.5982105 C82.1233909,16.5982105 81.4067504,15.7574211 81.4067504,13.8871579 C81.4067504,13.8841579 81.4070644,13.8813158 81.4070644,13.8783158 C81.4070644,12.0644211 82.0372057,11.1726316 83.9802198,11.1726316 L84.6921507,11.1726316 C86.5794349,11.1726316 87.2646782,12.0641053 87.2646782,13.8783158 L87.2646782,13.8871579 L87.2646782,13.8871579 Z M73.1626374,8.022 L68.7566719,8.022 C65.4682889,8.022 64.1532182,9.69426316 64.1532182,12.6126316 C64.1532182,13.0686316 64.1802198,13.491 64.2455259,13.8787895 C64.5935636,15.9453158 65.8009419,17.2149474 68.8803768,17.2149474 L69.8494505,17.2149474 L69.8494505,18.3596842 L72.0697017,18.3596842 L72.0697017,17.2149474 L73.0386185,17.2149474 C76.1182104,17.2149474 77.3259027,15.9453158 77.6736264,13.8787895 C77.7389325,13.491 77.7659341,13.0687895 77.7659341,12.6126316 C77.7660911,9.69410526 76.4510204,8.022 73.1626374,8.022 L73.1626374,8.022 Z M69.8492936,15.3292105 L68.8295133,15.3292105 C67.3235479,15.3292105 66.7816327,14.7644211 66.4492936,13.8783158 C66.3215071,13.5380526 66.321821,13.1063684 66.321821,12.6159474 C66.321821,10.7107895 67.1974882,9.90442105 68.4803768,9.90442105 L69.8492936,9.90442105 L69.8492936,15.3292105 L69.8492936,15.3292105 Z M75.4698587,13.8783158 C75.1375196,14.7644211 74.5957614,15.3292105 73.0896389,15.3292105 L72.0698587,15.3292105 L72.0698587,9.90457895 L73.4386185,9.90457895 C74.7215071,9.90457895 75.5971743,10.7107895 75.5971743,12.6161053 C75.5971743,13.1066842 75.5974882,13.5380526 75.4698587,13.8783158 L75.4698587,13.8783158 Z" id="megaphone" fill="#00985F"></path>
                </g>
            </g>
        </g>
    </g>
</svg>