<?xml version="1.0" encoding="UTF-8" standalone="no"?>
<svg width="70px" height="26px" viewBox="0 0 70 26" version="1.1" xmlns="http://www.w3.org/2000/svg" xmlns:xlink="http://www.w3.org/1999/xlink" xmlns:sketch="http://www.bohemiancoding.com/sketch/ns">
    <!-- Generator: Sketch 3.2.2 (9983) - http://www.bohemiancoding.com/sketch -->
    <title>payment-logo-mts</title>
    <desc>Created with Sketch.</desc>
    <defs></defs>
    <g id="Page-1" stroke="none" stroke-width="1" fill="none" fill-rule="evenodd" sketch:type="MSPage">
        <g id="platron_payment-phone" sketch:type="MSArtboardGroup" transform="translate(-341.000000, -152.000000)" fill="#ED1D24">
            <g id="Content" sketch:type="MSLayerGroup" transform="translate(30.000000, 100.000000)">
                <g id="payment-logo-mts" transform="translate(311.000000, 52.000000)" sketch:type="MSShapeGroup">
                    <path d="M22.5011242,0.5 L2.49887576,0.5 C1.11810637,0.5 0,1.61908266 0,2.99877361 L0,22.9991824 C0,24.3798953 1.11810637,25.5 2.49887576,25.5 L22.5011242,25.5 C23.8798496,25.5 25,24.3798953 25,22.9991824 L25,2.99877361 C25,1.61908266 23.8798496,0.5 22.5011242,0.5 L22.5011242,0.5 Z M12.4971668,21.75 C8.18034149,21.75 6.25,18.2341681 6.25,14.7501931 C6.25,9.84328111 9.57898912,4.25 12.4971668,4.25 C15.4191221,4.25 18.75,9.84328111 18.75,14.7501931 C18.75,18.2341681 16.8187141,21.75 12.4971668,21.75 L12.4971668,21.75 Z M47.2885507,9.734 L50.8697101,9.734 L50.8697101,18.845 L54.593913,18.845 L54.593913,9.734 L58.1750725,9.734 L58.3911594,6.642 L47.0734783,6.642 L47.2885507,9.734 L47.2885507,9.734 Z M41.6073913,6.642 L38.6095652,13.575 L38.3924638,13.575 L35.2749275,6.642 L31.8418841,6.642 L31.0191304,18.844 L34.5242029,18.844 L34.8873913,12.942 L35.1055072,12.942 L37.3292754,17.62 L39.6971014,17.62 L41.6794203,12.942 L41.8965217,12.942 L42.3084058,18.844 L45.9088406,18.844 L45.0871014,6.642 L41.6073913,6.642 L41.6073913,6.642 Z M68.9165217,15.8 C68.9165217,15.8 67.4353623,15.988 65.7401449,15.988 C63.6634783,15.988 63.2576812,15.331 63.2576812,13.716 L63.2576812,11.771 C63.2576812,10.108 63.6157971,9.476 65.7401449,9.476 C67.2689855,9.476 68.7491304,9.687 68.7491304,9.687 L68.9631884,6.689 C68.9631884,6.689 67.0772464,6.431 65.454058,6.431 C61.1333333,6.431 59.5578261,7.837 59.5578261,11.256 L59.5578261,14.231 C59.5578261,18.002 61.4671014,19.056 65.4297101,19.056 C67.0295652,19.056 69.1549275,18.798 69.1549275,18.798 L68.9165217,15.8 L68.9165217,15.8 Z" id="mts"></path>
                </g>
            </g>
        </g>
    </g>
</svg>