<svg width="849" height="152" xmlns="http://www.w3.org/2000/svg">

 <g>
  <title>background</title>
  <rect fill="none" id="canvas_background" height="154" width="851" y="-1" x="-1"/>
 </g>
 <g>
  <title>Layer 1</title>
  <g id="svg_1">
   <g id="svg_2">
    <path fill="#00b956" id="svg_3" d="m65.699997,3c-29.199997,4.899994 -52.899994,26.200012 -60.799995,54.5c-3.200005,11.299988 -3.200005,27.899994 0,39c6.900002,24.5 26.799995,45.100006 49.999992,51.899994c3,0.899994 5.600006,1.600006 5.800003,1.600006c0.199997,0 0.300003,-15.700012 0.300003,-34.799988c0,-40.5 -0.600006,-38.200012 9.800003,-38.200012l6.199997,0l0,-37.5l0,-37.5l-3.199997,0.100006c-1.800003,0.099991 -5.5,0.5 -8.100006,0.899994zm3.400009,44.899994c2.099991,2.200012 2.899994,3.899994 2.899994,6.600006c0,5.100006 -4.399994,9.5 -9.5,9.5c-5.100006,0 -9.5,-4.399994 -9.5,-9.5c0,-5.100006 4.399994,-9.5 9.5,-9.5c2.699997,0 4.399994,0.799988 6.600006,2.899994z"/>
    <path fill="#00b956" id="svg_4" d="m87,41.5c0,27.200012 -0.300003,39.200012 -1.199997,41c-1.300003,2.799988 -2.800003,3.299988 -10.300003,3.700012l-5,0.299988l-0.300003,32.899994l-0.199997,32.899994l9.699997,-0.599976c20.600006,-1.300018 35.699997,-8 49.800003,-22.200012c15.199997,-15.200012 21.899994,-31.200012 21.899994,-52.5c0,-13.700012 -2.299988,-23.100006 -8.699997,-35.399994c-5.800003,-11.300018 -19,-24.5 -30.199997,-30.300003c-7.100006,-3.699997 -20.600006,-8.300003 -24.199997,-8.300003c-1,0 -1.300003,8 -1.300003,38.5zm3.899994,60.100006c6.600006,5.5 2.600006,16.399994 -5.899994,16.399994c-7.5,0 -12,-7.299988 -8.5,-13.899994c2.800003,-5.5 9.5,-6.700012 14.399994,-2.5zm22,0.100006c4.400009,4.099976 4.5,9.599976 0.5,13.699982c-7.199997,7.100006 -19.299988,-1.100006 -15.399994,-10.5c2.5,-6 10.100006,-7.699982 14.899994,-3.199982zm22,0c4.400009,4.099976 4.5,9.599976 0.5,13.699982c-7.199997,7.100006 -19.299988,-1.100006 -15.399994,-10.5c2.5,-6 10.100006,-7.699982 14.899994,-3.199982z"/>
    <path fill="#00b956" id="svg_5" d="m199.399994,32c-2.600006,1.299988 -4.899994,3.5 -6.5,6.299988l-2.399994,4.200012l-0.299988,37.700012l-0.300018,37.799988l9.100006,0l9,0l0,-33.5c0,-18.399994 0.299988,-33.5 0.799988,-33.5c0.400024,0 5.200012,10.299988 10.600006,22.799988c16,36.5 17.200012,38.900024 21.399994,41.700012c4.300018,2.899994 11.600006,3.399994 16.200012,1c4.799988,-2.5 7.299988,-6.899994 20,-36c6.799988,-15.399994 12.700012,-28.399994 13.200012,-28.899994c0.399994,-0.600006 0.799988,14.199982 0.799988,32.699982l0,33.700012l9,0l9,0l0,-37.299988c0,-36.700012 0,-37.300018 -2.200012,-41.700012c-2.699982,-5.200012 -6,-7.799988 -11,-8.600006c-5.599976,-0.899994 -10.5,0.399994 -14.399994,3.800018c-4.399994,3.899994 -4.699982,4.5 -19,37.399994c-6.399994,14.799988 -11.899994,27.199982 -12.299988,27.699982c-0.399994,0.400024 -6.5,-12.599976 -13.600006,-28.899994c-7,-16.199982 -14.100006,-31.199982 -15.600006,-33.299988c-4.799988,-6.700012 -13.899994,-8.800018 -21.5,-5.100006z"/>
    <path fill="#00b956" id="svg_6" d="m566.900024,34.299988c-9.100037,3.100006 -13.200012,6.5 -16.900024,14c-6.900024,14 -6.099976,35 1.799988,46.900024c5.400024,8.199982 17.400024,12.799988 33.100037,12.799988l8.099976,0l0,5l0,5l9,0l9,0l0,-4.899994l0,-4.800018l11.299988,-0.599976c6.900024,-0.300018 13.200012,-1.100006 16.5,-2.300018c7.100037,-2.299988 14.299988,-8.899994 17.299988,-15.600006c2.200012,-4.799988 2.400024,-6.699982 2.400024,-19.299988c0,-11.399994 -0.400024,-14.899994 -1.900024,-19c-2.699951,-7 -9.5,-13.899994 -16.5,-16.700012c-5.299988,-2.099976 -7.099976,-2.299988 -36.099976,-2.5c-29.599976,-0.299988 -30.700012,-0.199982 -37.099976,2zm26.099976,35.700012l0,23l-6.700012,0c-10,-0.100006 -16.099976,-2.5 -19.799988,-7.799988c-2.599976,-3.800018 -3,-5.400024 -3.299988,-12.100006c-0.400024,-8.700012 0.799988,-14.300018 4,-19.100006c3.599976,-5.299988 8,-7 17.5,-7l8.299988,0l0,23zm39,-20.799988c6.799988,3.5 9.5,9.599976 9.5,21.299988c0,8 -0.299988,9.5 -2.700012,13.600006c-3.700012,6.199982 -7.899963,8.199982 -19,8.699982l-8.799988,0.400024l0,-23.100006l0,-23.100006l8.299988,0c6.600037,0 9.200012,0.5 12.700012,2.200012z"/>
    <path fill="#00b956" id="svg_7" d="m493.5,43.399994c-1.599976,0.700012 -3.799988,2.200012 -4.799988,3.399994c-1.5,1.600006 -29.5,60.600006 -32.799988,69l-0.900024,2.300018l9.700012,-0.300018l9.700012,-0.299988l3.199951,-7.5l3.100037,-7.5l19.899963,-0.299988l19.900024,-0.200012l3.099976,7.700012l3.100037,7.799988l9.700012,0.299988c5.299988,0.100006 9.599976,0.100006 9.599976,-0.199982c0,-1.700012 -31.599976,-68.600006 -33.299988,-70.399994c-4.700012,-5.100006 -12.700012,-6.700012 -19.200012,-3.800018zm14.599976,30c3.300049,7.600006 5.900024,14.100006 5.900024,14.200012c0,0.199982 -5.799988,0.399994 -13,0.399994c-9.700012,0 -13,-0.299988 -13,-1.299988c0,-0.600006 2.5,-7.200012 5.599976,-14.5c4.100037,-9.600006 6.100037,-13.200012 7.200012,-13c0.799988,0.199982 3.900024,6 7.299988,14.199982z"/>
    <path fill="#00b956" id="svg_8" d="m702.099976,43.100006c-14,2.199982 -22.599976,9 -26.199951,21.199982c-1.800049,5.600006 -2,8.800018 -1.700012,18.5c0.299988,10.600006 0.599976,12.300018 3.399963,18.300018c3.400024,7.199982 6.900024,10.399994 15,14.100006c4.300049,2 6.900024,2.299988 21.100037,2.599976c14.5,0.400024 17,0.200012 23.399963,-1.799988c9.400024,-2.799988 16.900024,-9.799988 19.400024,-18.100006c2.200012,-7.299988 3,-21.100006 1.599976,-28.399994c-2.399963,-13.299988 -9.299988,-21.399994 -21.399963,-25c-6.400024,-2 -26,-2.700012 -34.600037,-1.399994zm27.700012,16c4.299988,1.600006 8.900024,6.699982 10.200012,11.399994c0.700012,2.399994 1.099976,7.899994 0.900024,12.200012c-0.5,10.299988 -2.900024,14.899994 -9.5,18.299988c-4.200012,2.200012 -6.100037,2.5 -14.900024,2.5c-13.700012,0 -18.799988,-2.200012 -22.5,-9.5c-3.900024,-7.700012 -3.400024,-22.799988 1.099976,-29.100006c4,-5.699982 12.300049,-8.100006 24.700012,-7.299988c4,0.299988 8.5,1 10,1.5z"/>
    <path fill="#00b956" id="svg_9" d="m329.5,44.399994c-1.600006,0.700012 -3.899994,2.300018 -5,3.600006c-1.899994,2.100006 -2,3.799988 -2.299988,31.100006c-0.200012,25 -0.100006,29.399994 1.299988,32.299988c3,6.300018 4.899994,6.600006 36.399994,6.600006l28.100006,0l0,-7.5l0,-7.5l-22.799988,0c-16.400024,0 -23.100006,-0.299988 -24,-1.200012c-0.700012,-0.699982 -1.200012,-4 -1.200012,-8l0,-6.799988l23.5,0l23.5,0l0,-7.5l0,-7.5l-23.5,0l-23.600006,0l0.300018,-6.299988l0.299988,-6.200012l23.799988,-0.299988l23.700012,-0.200012l0,-8l0,-8l-27.700012,0c-20.799988,0.100006 -28.599976,0.399994 -30.799988,1.399994z"/>
    <path fill="#00b956" id="svg_10" d="m409.200012,44.100006c-2,0.600006 -4,2.199982 -5.200012,4.199982c-1.899994,3 -2,5.200012 -2,36.400024l0,33.299988l9,0l9,0l0.200012,-29.299988l0.299988,-29.200012l23.799988,-0.299988l23.700012,-0.200012l0,-8l0,-8l-27.700012,0.100006c-15.299988,0 -29.299988,0.5 -31.099976,1z"/>
    <path fill="#00b956" id="svg_11" d="m772,80.5l0,37.5l9,0l9,0l0,-15.5l0,-15.5l19.5,0l19.5,0l0,15.5l0,15.5l9,0l9,0l0,-37.5l0,-37.5l-9,0l-9,0l0,14.5l0,14.5l-19.5,0l-19.5,0l0,-14.5l0,-14.5l-9,0l-9,0l0,37.5z"/>
   </g>
  </g>
 </g>
</svg>