<?xml version="1.0" encoding="UTF-8" standalone="no"?>
<svg width="60px" height="24px" viewBox="0 0 60 24" version="1.1" xmlns="http://www.w3.org/2000/svg" xmlns:xlink="http://www.w3.org/1999/xlink" xmlns:sketch="http://www.bohemiancoding.com/sketch/ns">
    <!-- Generator: Sketch 3.2.2 (9983) - http://www.bohemiancoding.com/sketch -->
    <title>payment-logo-tele2</title>
    <desc>Created with Sketch.</desc>
    <defs></defs>
    <g id="Page-1" stroke="none" stroke-width="1" fill="none" fill-rule="evenodd" sketch:type="MSPage">
        <g id="platron_payment-phone" sketch:type="MSArtboardGroup" transform="translate(-840.000000, -153.000000)">
            <g id="Content" sketch:type="MSLayerGroup" transform="translate(30.000000, 100.000000)">
                <g id="payment-logo-tele2" transform="translate(810.000000, 48.000000)" sketch:type="MSShapeGroup">
                    <rect id="Rectangle-5" opacity="0" fill="#173386" x="0" y="0" width="60" height="34"></rect>
                    <path d="M17.1563158,17.777235 L13.9534211,18.0545063 L13.9534211,21.8016226 L17.1563158,21.6255606 L17.1563158,17.777235 L17.1563158,17.777235 Z M0,16.853173 L8.76,15.8874676 L8.76,12.3675451 L0,13.6007699 L0,16.853173 L0,16.853173 Z M2.79605263,28.195204 L6.00315789,28.195204 L6.00315789,16.7234986 L2.79605263,17.0513745 L2.79605263,28.195204 L2.79605263,28.195204 Z M49.4639474,14.8803823 C49.2531579,11.9052505 50.1607895,11.1983668 51.0797368,10.8109249 L51.0776316,5.86695594 C46.6965789,6.80024276 44.5463158,10.0278707 44.795,15.2954986 L49.4639474,14.8803823 L49.4639474,14.8803823 Z M53.9189474,11.5802738 C54.4371053,12.6521962 53.9026316,14.2623203 52.6402632,15.7546304 C50.6931579,18.0550335 45.5147368,22.7662738 45.5147368,22.7662738 L52.9486842,22.5224753 C57.4902632,18.0766459 59.1215789,15.3798397 59.4144737,12.0122583 C59.5686842,10.2316071 58.9231579,8.51447532 57.6423684,7.30312648 C56.2421053,5.97870788 54.1902632,5.43391718 51.9442105,5.75783966 L51.9442105,10.6116691 C52.8539474,10.5610645 53.59,10.9002738 53.9189474,11.5802738 L53.9189474,11.5802738 Z M9.94421053,28.195204 L13.3236842,28.195204 L13.3236842,11.7249714 L9.94421053,12.2007079 L9.94421053,28.195204 L9.94421053,28.195204 Z M40.9444737,15.733018 L36.7123684,16.0959482 L36.7123684,20.5539017 L40.9444737,20.3232815 L40.9444737,15.733018 L40.9444737,15.733018 Z M24.6928947,28.195204 L30.2807895,28.195204 L30.2807895,24.0068784 L24.6928947,24.1768784 L24.6928947,28.195204 L24.6928947,28.195204 Z M36.7123684,12.8040102 L43.1689474,12.0937001 L43.1689474,7.51872338 L36.7123684,8.42749857 L36.7123684,12.8040102 L36.7123684,12.8040102 Z M44.5976316,23.5714676 L44.6007895,28.195204 L59.6765789,28.195204 L59.6765789,23.1154986 L44.5976316,23.5714676 L44.5976316,23.5714676 Z M36.7123684,28.195204 L43.1689474,28.195204 L43.1689474,23.6178552 L36.7123684,23.8123668 L36.7123684,28.195204 L36.7123684,28.195204 Z M13.9534211,15.3155296 L18.8336842,14.7781187 L18.8336842,10.9498242 L13.9534211,11.6358862 L13.9534211,15.3155296 L13.9534211,15.3155296 Z M13.9534211,28.195204 L18.8336842,28.195204 L18.8336842,24.3539947 L13.9534211,24.503173 L13.9534211,28.195204 L13.9534211,28.195204 Z M31.4542105,28.195204 L35.8826316,28.195204 L35.8826316,8.54373113 L31.4542105,9.1675916 L31.4542105,28.195204 L31.4542105,28.195204 Z M20.1242105,28.195204 L23.9731579,28.195204 L23.9731579,10.2255451 L20.1242105,10.7674366 L20.1242105,28.195204 L20.1242105,28.195204 Z" id="tele2" fill="#1A1918"></path>
                </g>
            </g>
        </g>
    </g>
</svg>