<?xml version="1.0" encoding="UTF-8" standalone="no"?>
<svg width="106px" height="25px" viewBox="0 0 106 25" version="1.1" xmlns="http://www.w3.org/2000/svg" xmlns:xlink="http://www.w3.org/1999/xlink" xmlns:sketch="http://www.bohemiancoding.com/sketch/ns">
    <!-- Generator: Sketch 3.3.2 (12043) - http://www.bohemiancoding.com/sketch -->
    <title>payment-receipt copy 16</title>
    <desc>Created with Sketch.</desc>
    <defs></defs>
    <g id="Page-1" stroke="none" stroke-width="1" fill="none" fill-rule="evenodd" sketch:type="MSPage">
        <g id="payment-receipt-copy-16" sketch:type="MSLayerGroup">
            <g id="Page-1">
                <g id="platron_payment-banks">
                    <g id="Content">
                        <g id="Оплата-квитанцией-в--+-Imported-Layers">
                            <g id="Оплата-квитанцией-в-" transform="translate(26.000000, 1.000000)" font-size="7.34313374" font-family="Open Sans" fill="#333333" sketch:type="MSTextLayer" font-weight="normal">
                                <text id="Оплата-с-баланса">
                                    <tspan x="0" y="8" fill="#000000">Оплата с баланса</tspan>
                                </text>
                                <text id="мобильного-телефона">
                                    <tspan x="0" y="22" fill="#000000">мобильного телефона</tspan>
                                </text>
                            </g>
                            <g id="Group" sketch:type="MSShapeGroup">
                                <rect id="Rectangle-22" fill="#8DC8D5" x="0" y="4" width="18" height="19" rx="4"></rect>
                                <rect id="Rectangle-22-Copy-2" fill="#8DC8D5" x="15" y="0" width="3" height="6" rx="2"></rect>
                                <path d="M2,7.99791312 C2,6.89449617 2.89706013,6 4.00585866,6 L13.9941413,6 C15.1019465,6 16,6.89826062 16,7.99791312 L16,10.0020869 C16,11.1055038 15.1029399,12 13.9941413,12 L4.00585866,12 C2.89805351,12 2,11.1017394 2,10.0020869 L2,7.99791312 Z" id="Rectangle-22-Copy" fill="#FFFFFF"></path>
                                <ellipse id="Oval-1" fill="#FFFFFF" cx="3.5" cy="15.490745" rx="1.5" ry="1.49074496"></ellipse>
                                <ellipse id="Oval-1-Copy-3" fill="#FFFFFF" cx="3.5" cy="19.490745" rx="1.5" ry="1.49074496"></ellipse>
                                <ellipse id="Oval-1-Copy" fill="#FFFFFF" cx="9" cy="15.490745" rx="1.5" ry="1.49074496"></ellipse>
                                <ellipse id="Oval-1-Copy-4" fill="#FFFFFF" cx="9" cy="19.490745" rx="1.5" ry="1.49074496"></ellipse>
                                <ellipse id="Oval-1-Copy-2" fill="#FFFFFF" cx="14.5" cy="15.490745" rx="1.5" ry="1.49074496"></ellipse>
                                <ellipse id="Oval-1-Copy-5" fill="#FFFFFF" cx="14.5" cy="19.490745" rx="1.5" ry="1.49074496"></ellipse>
                            </g>
                        </g>
                    </g>
                </g>
            </g>
        </g>
    </g>
</svg>