<?xml version="1.0" encoding="UTF-8" standalone="no"?>
<svg width="80px" height="32px" viewBox="0 0 80 32" version="1.1" xmlns="http://www.w3.org/2000/svg" xmlns:xlink="http://www.w3.org/1999/xlink" xmlns:sketch="http://www.bohemiancoding.com/sketch/ns">
    <!-- Generator: Sketch 3.2.2 (9983) - http://www.bohemiancoding.com/sketch -->
    <title>vendor-qiwi-wallet</title>
    <desc>Created with Sketch.</desc>
    <defs></defs>
    <g id="Page-1" stroke="none" stroke-width="1" fill="none" fill-rule="evenodd" sketch:type="MSPage">
        <g id="platron_payment-wallet" sketch:type="MSArtboardGroup" transform="translate(-335.000000, -149.000000)">
            <g id="Content" sketch:type="MSLayerGroup" transform="translate(30.000000, 100.000000)">
                <g id="vendor-qiwi-wallet" transform="translate(305.000000, 49.000000)" sketch:type="MSShapeGroup">
                    <path d="M21.2790671,22.4220444 C21.2737026,22.4192 21.2705539,22.4192 21.2658892,22.4163556 C21.2578426,22.4163556 21.2504956,22.4109037 21.2472303,22.4109037 C21.233586,22.4039111 21.2262391,22.4018963 21.2180758,22.4018963 C21.2099125,22.4018963 21.2038484,22.4018963 21.2017493,22.3977481 C21.187172,22.3919407 21.1732945,22.3907556 21.157551,22.3841185 C20.9710787,22.3498667 20.789621,22.3771259 20.6319534,22.4794074 C20.2882799,22.7239111 20.2341691,23.2663704 20.5156851,23.7018074 C20.6502624,23.8984296 20.8272886,24.034963 21.0239067,24.1061926 C21.0239067,24.1061926 21.0250729,24.1061926 21.036035,24.1155556 C21.036035,24.1155556 21.0494461,24.1208889 21.0546939,24.1208889 C21.0637901,24.1220741 21.0718367,24.1220741 21.0808163,24.1265778 C21.0876968,24.1265778 21.0896793,24.1304889 21.0953936,24.1332148 C21.1116035,24.1360593 21.1238484,24.144 21.1408746,24.144 C21.3252478,24.1755259 21.5110204,24.1498074 21.6644898,24.0502519 C22.0117784,23.8058667 22.0674052,23.2663704 21.7793586,22.8295111 C21.6510787,22.6350222 21.4707872,22.493037 21.2790671,22.4220444 M29.5161516,30.9733926 C28.6704373,29.2142222 27.1694461,27.9188148 25.5393586,26.9306074 C24.9771429,26.5844148 24.3418076,26.3397926 23.7828571,26.1572741 C22.5074052,25.7371259 21.2705539,25.6347259 19.8289213,25.3860741 C18.6577259,25.1797333 17.7344606,24.6885926 16.7408746,23.9982222 C16.2225073,23.6407704 15.8009329,23.1441778 15.4469971,22.617363 C15.3833236,22.5121185 15.0525948,22.1020444 15.0830321,21.9593481 C15.0830321,21.9593481 14.8576093,22.9010963 15.3117201,24.2248296 C11.1181341,24.0308148 7.44524781,21.6592593 5.76303207,18.7764148 C2.66332362,13.4827852 3.75276968,7.06085926 7.88548105,4.22340741 C12.0158601,1.38725926 18.3112536,3.38785185 21.6843149,8.50856296 C23.7982507,11.7211259 24.3418076,15.4618074 23.4318367,18.5010963 C23.4278717,18.5217185 23.4180758,18.5443556 23.4108455,18.5679407 C21.6209913,17.2399407 19.9848397,17.9182222 19.9848397,17.9182222 C21.7793586,17.7303704 23.1970845,19.1887407 23.1970845,19.1887407 C23.4075802,19.3745778 23.6065306,19.5876741 23.7909038,19.8179556 C23.8304373,19.8778074 23.8714869,19.9339852 23.9116035,19.9941926 C24.3836735,20.6478222 24.6756851,21.3738667 24.8,22.1054815 C28.3665306,17.4855111 28.9521866,11.0875259 25.802449,6.11875556 C21.7793586,-0.214874074 13.2190087,-1.83063704 6.67335277,2.50358519 C0.129795918,6.84065185 -1.92034985,15.4849185 2.09702624,21.8190222 C5.40116618,27.0280296 13.1409913,28.6153481 17.5849563,27.1808 C19.2613411,26.642963 25.010379,26.1261037 29.0075802,30.9581037 C29.0075802,30.9581037 29.356035,31.3609481 29.5420408,31.8225778 C29.5420408,31.8225778 29.5973178,31.9835259 29.7460058,31.9068444 C29.7865889,31.8837333 29.8979592,31.7522963 29.5161516,30.9733926 M23.6001166,21.4230519 C23.8981924,21.5420444 24.0740525,22.0315259 24.1240816,22.2677333 C24.2386006,22.8043852 24.058309,23.0305185 23.9022741,22.9310815 C23.7406414,22.8484741 23.5216327,22.4353185 23.3554519,21.8965333 C23.283965,21.6641185 23.3079883,21.3112889 23.6001166,21.4230519" id="Fill-1" fill="#F69F00"></path>
                    <path d="M36.858309,10.7163259 C35.4361516,10.7163259 34.5806414,9.45315556 34.5806414,7.62844444 C34.5806414,5.7888 35.4239067,4.57517037 36.858309,4.57517037 C38.2803499,4.57517037 39.1479883,5.7888 39.1479883,7.62844444 C39.1479883,9.45315556 38.2925948,10.7163259 36.858309,10.7163259 M40.762449,7.54216296 C40.762449,4.94340741 39.2325364,3.2269037 36.8709038,3.2269037 C34.4969096,3.2269037 32.9538192,5.00408889 32.9538192,7.62844444 C32.9538192,9.82139259 33.9173178,11.2067556 35.7858892,11.8929778 L40.3660641,13.5978667 L40.6665889,12.2000593 L38.5099708,11.4519704 C39.871137,10.863763 40.762449,9.50174815 40.762449,7.54216296" id="Fill-2" fill="#2B2E84"></path>
                    <path d="M42.8600583,3.38654815 L44.4629738,3.38654815 L44.4629738,11.8436741 L42.8600583,11.8436741 L42.8600583,3.38654815 Z" id="Fill-3" fill="#2B2E84"></path>
                    <path d="M55.3811079,11.8437926 L53.8621574,11.8437926 L52.0184257,5.68983704 L50.1755102,11.8437926 L48.6688047,11.8437926 L46.3429738,3.60663704 L48.0058309,3.30074074 L49.5722449,9.35608889 L51.3076385,3.38654815 L52.9105539,3.38654815 L54.6458309,9.35608889 L56.1641983,3.38654815 L57.7672303,3.38654815 L55.3811079,11.8437926" id="Fill-4" fill="#2B2E84"></path>
                    <path d="M59.6234402,3.38654815 L61.2262391,3.38654815 L61.2262391,11.8436741 L59.6234402,11.8436741 L59.6234402,3.38654815 Z" id="Fill-5" fill="#2B2E84"></path>
                    <path d="M41.9127697,25.2990815 L40.3944023,25.2990815 L38.5510204,19.1454815 L36.707172,25.2990815 L35.2005831,25.2990815 L32.8754519,17.0624 L34.5376093,16.7555556 L36.104723,22.8110222 L37.8397668,16.8411259 L39.4422157,16.8411259 L41.178309,22.8110222 L42.696793,16.8411259 L44.2995918,16.8411259 L41.9127697,25.2990815" id="Fill-6" fill="#2B2E84"></path>
                    <path d="M47.4206414,21.8298074 L48.5539359,18.5692444 L49.6868805,21.8298074 L47.4206414,21.8298074 L47.4206414,21.8298074 Z M49.4698542,16.8043852 L47.7695627,16.8043852 L44.6489796,25.2990815 L46.2283382,25.2990815 L46.9867055,23.1533037 L50.1316618,23.1533037 L50.9282799,25.3848889 L52.5181341,25.0917926 L49.4698542,16.8043852 L49.4698542,16.8043852 Z" id="Fill-7" fill="#2B2E84"></path>
                    <path d="M54.2534111,25.2990815 L54.2534111,16.8411259 L55.856793,16.8411259 L55.856793,23.8640593 L58.6282216,23.8640593 L58.8452478,25.2990815 L54.2534111,25.2990815" id="Fill-8" fill="#2B2E84"></path>
                    <path d="M60.6044315,25.2990815 L60.6044315,16.8411259 L62.2073469,16.8411259 L62.2073469,23.8640593 L64.9788921,23.8640593 L65.1967347,25.2990815 L60.6044315,25.2990815" id="Fill-9" fill="#2B2E84"></path>
                    <path d="M66.9555685,25.2990815 L66.9555685,16.8411259 L71.7878717,16.8411259 L71.7878717,18.214637 L68.5341108,18.214637 L68.5341108,20.2002963 L71.0411662,20.2002963 L71.2580758,21.5977481 L68.5341108,21.5977481 L68.5341108,23.9260444 L71.9088047,23.9260444 L71.9088047,25.2990815 L66.9555685,25.2990815" id="Fill-10" fill="#2B2E84"></path>
                    <path d="M77.3439067,18.2512593 L77.3439067,25.2990815 L75.7409913,25.2990815 L75.7409913,18.2512593 L73.2695044,18.2512593 L73.2695044,16.8411259 L79.7295627,16.8411259 L79.9590671,18.2512593 L77.3439067,18.2512593" id="Fill-11" fill="#2B2E84"></path>
                </g>
            </g>
        </g>
    </g>
</svg>