<?xml version="1.0" encoding="UTF-8" standalone="no"?>
<svg width="85px" height="21px" viewBox="0 0 85 21" version="1.1" xmlns="http://www.w3.org/2000/svg" xmlns:xlink="http://www.w3.org/1999/xlink" xmlns:sketch="http://www.bohemiancoding.com/sketch/ns">
    <!-- Generator: Sketch 3.2.2 (9983) - http://www.bohemiancoding.com/sketch -->
    <title>paypal</title>
    <desc>Created with Sketch.</desc>
    <defs></defs>
    <g id="Page-1" stroke="none" stroke-width="1" fill="none" fill-rule="evenodd" sketch:type="MSPage">
        <g id="platron_payment-wallet" sketch:type="MSArtboardGroup" transform="translate(-337.000000, -290.000000)">
            <g id="Content" sketch:type="MSLayerGroup" transform="translate(30.000000, 100.000000)">
                <g id="Button-/-Vendor-–-Default-3-+-payment-logo-paypal" transform="translate(270.000000, 165.000000)" sketch:type="MSShapeGroup">
                    <g id="payment-logo-paypal" transform="translate(35.000000, 22.000000)">
                        <g id="paypal" transform="translate(1.350000, 2.475000)">
                            <path d="M65.6307959,5.29609091 L61.0065887,5.29609091 C60.6904942,5.29609091 60.421367,5.52252273 60.3721136,5.82995455 L58.5021475,17.4998864 C58.4653633,17.73 58.6461669,17.9382273 58.8828741,17.9382273 L61.2555573,17.9382273 C61.476678,17.9382273 61.6651709,17.7797045 61.699669,17.5645227 L62.2298183,14.2562045 C62.2790717,13.9487727 62.5481989,13.7223409 62.8645012,13.7223409 L64.3277632,13.7223409 C67.3733682,13.7223409 69.1313193,12.2717045 69.5908097,9.39620455 C69.7975908,8.13865909 69.5991225,7.1505 69.0008082,6.45872727 C68.3430573,5.69822727 67.1776016,5.29609091 65.6307959,5.29609091 L65.6307959,5.29609091 Z M66.1642703,9.55820455 C65.911561,11.1919091 64.6438578,11.1919091 63.4179264,11.1919091 L62.720274,11.1919091 L63.2094828,8.14172727 C63.239201,7.95743182 63.4006773,7.82161364 63.5902094,7.82161364 L63.9100446,7.82161364 C64.7446506,7.82161364 65.5331204,7.82161364 65.9394089,8.28961364 C66.1825585,8.56963636 66.2561268,8.98465909 66.1642703,9.55820455 L66.1642703,9.55820455 Z" id="Fill-1" fill="#1E8FC3"></path>
                            <path d="M32.6503541,5.29609091 L28.0263547,5.29609091 C27.7100523,5.29609091 27.4409252,5.52252273 27.3916718,5.82995455 L25.5219135,17.4998864 C25.4849215,17.73 25.6657251,17.9382273 25.9026401,17.9382273 L28.1105219,17.9382273 C28.4266164,17.9382273 28.6957435,17.7117955 28.7449969,17.4045682 L29.2495844,14.2562045 C29.2988377,13.9487727 29.5679649,13.7223409 29.8842672,13.7223409 L31.3473214,13.7223409 C34.3931342,13.7223409 36.1510853,12.2717045 36.6103679,9.39620455 C36.817149,8.13865909 36.6186807,7.1505 36.0205742,6.45872727 C35.3628233,5.69822727 34.1973676,5.29609091 32.6503541,5.29609091 L32.6503541,5.29609091 Z M33.1840363,9.55820455 C32.931327,11.1919091 31.6636238,11.1919091 30.4374846,11.1919091 L29.74004,11.1919091 L30.2292488,8.14172727 C30.2587592,7.95743182 30.4202355,7.82161364 30.6099754,7.82161364 L30.9298107,7.82161364 C31.7644166,7.82161364 32.5526786,7.82161364 32.9591749,8.28961364 C33.2023245,8.56963636 33.2758929,8.98465909 33.1840363,9.55820455 L33.1840363,9.55820455 Z" id="Fill-2" fill="#263A6B"></path>
                            <path d="M46.4712284,9.50604545 L44.2571121,9.50604545 C44.0671644,9.50604545 43.9056881,9.64165909 43.8761776,9.82636364 L43.7789178,10.4357045 L43.6240917,10.2147955 C43.1444427,9.52977273 42.0758313,9.30088636 41.0086746,9.30088636 C38.5626308,9.30088636 36.4727909,11.1254318 36.0660868,13.6845 C35.8545259,14.9610682 36.1550339,16.1809773 36.8905095,17.0325 C37.566133,17.8148864 38.5304187,18.1405227 39.6792488,18.1405227 C41.650839,18.1405227 42.7443889,16.8938182 42.7443889,16.8938182 L42.6456743,17.4994773 C42.6086823,17.73 42.7894858,17.9382273 43.0264009,17.9382273 L45.0204357,17.9382273 C45.3363224,17.9382273 45.6056573,17.712 45.6549107,17.4045682 L46.851955,9.94438636 C46.888947,9.71406818 46.7079357,9.50604545 46.4712284,9.50604545 L46.4712284,9.50604545 Z M43.3853063,13.7477045 C43.1714594,14.9929773 42.1672722,15.8289545 40.8862685,15.8289545 C40.2441041,15.8289545 39.7299569,15.6256364 39.399315,15.2406818 C39.0717903,14.859 38.948553,14.3153182 39.0524631,13.7098636 C39.2517626,12.4758409 40.2721598,11.6130682 41.5338362,11.6130682 C42.1624923,11.6130682 42.6731065,11.8182273 43.0099831,12.2066591 C43.3491456,12.5979545 43.4825662,13.1453182 43.3853063,13.7477045 L43.3853063,13.7477045 Z" id="Fill-3" fill="#263A6B"></path>
                            <path d="M79.4514624,9.50604545 L77.2373461,9.50604545 C77.0476062,9.50604545 76.8861299,9.64165909 76.8566195,9.82636364 L76.7591518,10.4357045 L76.6043257,10.2147955 C76.1248845,9.52977273 75.0562731,9.30088636 73.9891164,9.30088636 C71.5428648,9.30088636 69.4532328,11.1254318 69.0465286,13.6845 C68.8347599,14.9610682 69.1352679,16.1809773 69.8707435,17.0325 C70.546367,17.8148864 71.5106527,18.1405227 72.6594828,18.1405227 C74.631073,18.1405227 75.7248307,16.8938182 75.7248307,16.8938182 L75.6259083,17.4994773 C75.5889163,17.73 75.7697198,17.9382273 76.0066349,17.9382273 L78.0006696,17.9382273 C78.3167642,17.9382273 78.5858913,17.712 78.6351447,17.4045682 L79.832189,9.94438636 C79.869181,9.71406818 79.6883775,9.50604545 79.4514624,9.50604545 L79.4514624,9.50604545 Z M76.3657482,13.7477045 C76.1519012,14.9929773 75.1475062,15.8289545 73.8665025,15.8289545 C73.2243381,15.8289545 72.7101909,15.6256364 72.3797568,15.2406818 C72.0522321,14.859 71.9287869,14.3153182 72.032697,13.7098636 C72.2322044,12.4758409 73.2526016,11.6130682 74.5140702,11.6130682 C75.1429341,11.6130682 75.6533405,11.8182273 75.9902171,12.2066591 C76.3295874,12.5979545 76.4628002,13.1453182 76.3657482,13.7477045 L76.3657482,13.7477045 Z" id="Fill-4" fill="#1E8FC3"></path>
                            <path d="M58.2639855,9.50604545 L56.038439,9.50604545 C55.8256312,9.50604545 55.6265394,9.60995455 55.506835,9.78320455 L52.436915,14.2335 L51.1359606,9.95706818 C51.0544951,9.68952273 50.8042796,9.50604545 50.5203972,9.50604545 L48.332674,9.50604545 C48.0685345,9.50604545 47.8827432,9.76172727 47.9679495,10.0077955 L50.4185653,17.0875227 L48.1134236,20.2886591 C47.9326201,20.5398409 48.1150862,20.8873636 48.4280634,20.8873636 L50.6513239,20.8873636 C50.8620536,20.8873636 51.0594828,20.7857045 51.179395,20.6151136 L58.5809113,10.1016818 C58.7579741,9.85009091 58.5748845,9.50604545 58.2639855,9.50604545" id="Fill-5" fill="#263A6B"></path>
                            <path d="M82.0612685,5.61661364 L80.1634544,17.4998864 C80.1266703,17.7302045 80.3074738,17.9382273 80.544181,17.9382273 L82.4528017,17.9382273 C82.7688962,17.9382273 83.0380234,17.7117955 83.0874846,17.4045682 L84.9586977,5.73463636 C84.9956897,5.50431818 84.8146783,5.29609091 84.5779711,5.29609091 L82.4419951,5.29609091 C82.2522552,5.29609091 82.0907789,5.43211364 82.0612685,5.61661364" id="Fill-6" fill="#1E8FC3"></path>
                            <path d="M16.4507697,5.90727273 C16.6995305,4.34515909 16.4488993,3.28213636 15.5906019,2.31934091 C14.6454357,1.25938636 12.9377771,0.805295455 10.7531712,0.805295455 L4.41174569,0.805295455 C3.96514009,0.805295455 3.58503695,1.125 3.51541718,1.55904545 L0.874853756,18.0398864 C0.822690887,18.3651136 1.07810191,18.6590455 1.41248461,18.6590455 L5.3276093,18.6590455 L5.05723522,20.3457273 C5.0117226,20.6300455 5.23512931,20.8873636 5.52774015,20.8873636 L8.82750924,20.8873636 C9.21800339,20.8873636 9.55072352,20.6075455 9.61140702,20.2279091 L9.64382697,20.0628409 L10.265625,16.1830227 L10.3055265,15.9686591 C10.3664178,15.5888182 10.6989301,15.3092045 11.0896321,15.3092045 L11.583205,15.3092045 C14.7801031,15.3092045 17.2830896,14.0307955 18.0146167,10.3338409 C18.3203202,8.78911364 18.162169,7.49965909 17.3539563,6.59311364 C17.1095597,6.31902273 16.805311,6.09218182 16.4507697,5.90727273" id="Fill-7" fill="#1E8FC3"></path>
                            <path d="M16.4507697,5.90727273 C16.6995305,4.34515909 16.4488993,3.28213636 15.5906019,2.31934091 C14.6454357,1.25938636 12.9377771,0.805295455 10.7531712,0.805295455 L4.41174569,0.805295455 C3.96514009,0.805295455 3.58503695,1.125 3.51541718,1.55904545 L0.874853756,18.0398864 C0.822690887,18.3651136 1.07810191,18.6590455 1.41248461,18.6590455 L5.3276093,18.6590455 L6.31101447,12.5214545 L6.2804649,12.7139318 C6.35008467,12.2798864 6.72686268,11.9601818 7.17346829,11.9601818 L9.03408251,11.9601818 C12.6883929,11.9601818 15.5498692,10.4987045 16.3859298,6.27279545 C16.4106604,6.14781818 16.4316502,6.02652273 16.4507697,5.90727273" id="Fill-8" fill="#212B4D"></path>
                            <path d="M7.36736453,5.92813636 C7.40913639,5.66693182 7.57954895,5.45318182 7.80877463,5.34497727 C7.91289255,5.29588636 8.02927186,5.26847727 8.15126232,5.26847727 L13.1223214,5.26847727 C13.711076,5.26847727 14.260137,5.30652273 14.7622306,5.38609091 C14.9056265,5.40879545 15.0452817,5.43497727 15.1807805,5.46463636 C15.3164871,5.49409091 15.4480373,5.52722727 15.575431,5.56404545 C15.6392318,5.58225 15.7019935,5.60147727 15.7635083,5.62172727 C16.0099831,5.70211364 16.2394166,5.79722727 16.4507697,5.90727273 C16.6995305,4.34515909 16.4488993,3.28213636 15.5906019,2.31934091 C14.6454357,1.25938636 12.9377771,0.805295455 10.7531712,0.805295455 L4.41174569,0.805295455 C3.96514009,0.805295455 3.58503695,1.125 3.51541718,1.55904545 L0.874853756,18.0398864 C0.822690887,18.3651136 1.07810191,18.6590455 1.41248461,18.6590455 L5.3276093,18.6590455 L7.36736453,5.92813636" id="Fill-9" fill="#263A6B"></path>
                        </g>
                    </g>
                </g>
            </g>
        </g>
    </g>
</svg>