<?xml version="1.0" encoding="UTF-8" standalone="no"?>
<svg width="90px" height="48px" viewBox="0 0 90 48" version="1.1" xmlns="http://www.w3.org/2000/svg" xmlns:xlink="http://www.w3.org/1999/xlink" xmlns:sketch="http://www.bohemiancoding.com/sketch/ns">
    <!-- Generator: Sketch 3.2.2 (9983) - http://www.bohemiancoding.com/sketch -->
    <title>Imported Layers 3</title>
    <desc>Created with Sketch.</desc>
    <defs></defs>
    <g id="Page-1" stroke="none" stroke-width="1" fill="none" fill-rule="evenodd" sketch:type="MSPage">
        <g id="platron_payment-internet-banking" sketch:type="MSArtboardGroup" transform="translate(-825.000000, -141.000000)">
            <g id="Content" sketch:type="MSLayerGroup" transform="translate(30.000000, 100.000000)">
                <g id="Imported-Layers-3" transform="translate(795.000000, 41.000000)" sketch:type="MSShapeGroup">
                    <path d="M76.502236,44.7286588 L76.502236,37.8494118 L78.4604348,37.8494118 L78.4604348,40.3984941 L80.6193168,40.3984941 L80.6193168,37.8494118 L82.5780745,37.8494118 L82.5780745,44.7286588 L80.6193168,44.7286588 L80.6193168,41.6589176 L78.4604348,41.6589176 L78.4604348,44.7286588 L76.502236,44.7286588" id="Fill-1" fill="#1A4188"></path>
                    <path d="M69.7840994,42.7629176 C69.7840994,41.8221176 70.2765839,41.1218824 71.2101242,40.7587765 C71.6304969,40.5944471 72.0078261,40.4899765 72.3409938,40.4448 C72.6730435,40.3905882 73.1085093,40.3318588 73.6339752,40.2601412 L73.6339752,40.0297412 C73.6742236,39.0319059 73.1018012,38.8608 72.4175776,38.8478118 C71.7680124,38.8478118 71.1106211,39.0646588 70.5387578,39.3724235 L70.4096273,38.1306353 C71.2011801,37.8358588 72.0212422,37.6918588 72.8608696,37.6918588 C73.3880124,37.6918588 73.8424845,37.7500235 74.2147826,37.8680471 C74.967764,38.1040941 75.3708075,38.6829176 75.4552174,39.3859765 C75.4759006,39.5378824 75.4820497,39.7739294 75.4820497,40.0828235 L75.4820497,44.3796706 C73.7603106,45.0381176 69.7840994,45.4870588 69.7840994,42.7629176 L69.7840994,42.7629176 Z M73.6468323,43.6455529 L73.6468323,41.1998118 C72.8217391,41.3150118 71.5919255,41.4550588 71.5919255,42.6528 C71.5919255,44.1295059 73.1532298,43.8369882 73.6468323,43.6455529 L73.6468323,43.6455529 Z" id="Fill-2" fill="#1A4188"></path>
                    <path d="M69.2239752,39.7411765 C69.1004348,39.1962353 68.7873913,38.7230118 68.3636646,38.3226353 C67.682236,37.6664471 65.3187578,37.1412706 64.174472,38.8664471 C64.173354,37.0475294 64.9263354,36.1417412 66.4585714,35.8938353 C67.9891304,35.6459294 68.8427329,35.4889412 68.8427329,35.4889412 L68.6856522,34.0088471 C68.6856522,34.0088471 67.1254658,34.2330353 65.8252174,34.5340235 C64.437205,34.8570353 63.093354,35.8819765 62.7585093,37.9572706 C62.5444099,39.2899765 62.5706832,41.6244706 62.9636646,42.7002353 C63.4198137,43.9499294 64.3438509,44.8929882 66.0314907,44.8929882 C68.3524845,44.8929882 69.4129193,43.4535529 69.4129193,41.2133647 C69.4129193,40.7723294 69.3486335,40.2855529 69.2239752,39.7411765 L69.2239752,39.7411765 Z M66.8437267,43.4083765 C66.6547826,43.6709647 66.3898137,43.8019765 66.0432298,43.8019765 C64.9252174,43.8019765 64.6462733,41.9356235 64.6462733,41.0812235 C64.6462733,40.3905882 64.7899379,39.6559059 65.1840373,39.1764706 C65.3863975,38.9325176 65.6603106,38.8077176 66.0052174,38.8077176 C66.4473913,38.8077176 66.8437267,39.0844235 67.0589441,39.6559059 C67.2870186,40.2285176 67.3501863,40.8384 67.3501863,41.3906824 C67.3501863,42.1078588 67.2355901,42.8752941 66.8437267,43.4083765 L66.8437267,43.4083765 Z" id="Fill-3" fill="#1A4188"></path>
                    <path d="M83.703354,44.7286588 L83.703354,37.8494118 L85.6492547,37.8494118 L85.6492547,41.0027294 L87.8467081,37.8494118 L89.7534783,37.8494118 L87.5291925,40.9180235 L89.9670186,44.7286588 L87.7947205,44.7286588 L85.6492547,41.2969412 L85.6492547,44.7286588 L83.703354,44.7286588" id="Fill-4" fill="#1A4188"></path>
                    <path d="M52.6097516,44.8783059 C51.9920497,44.8783059 51.3357764,44.8274824 50.7437888,44.5970824 L50.9064596,43.3936941 C51.3737888,43.6760471 51.8042236,43.8019765 52.3436646,43.8019765 C53.3185714,43.8138353 53.8652795,43.3411765 53.8328571,42.7109647 C53.8328571,42.3890824 53.7367081,42.1451294 53.5326708,41.9887059 C53.3392547,41.8243765 53.1111801,41.7317647 52.8512422,41.712 C52.5901863,41.6854588 52.3699379,41.6719059 52.1871429,41.6719059 L51.7058385,41.6719059 L51.7058385,40.6345412 L51.836087,40.6345412 C52.5650311,40.6345412 53.7026087,40.6091294 53.7026087,39.6683294 C53.7227329,38.9325176 52.9624845,38.7557647 52.5717391,38.7681882 C51.9540373,38.7681882 51.4593168,38.9138824 50.9187578,39.2080941 L50.8019255,38.0521412 C51.4973292,37.7833412 52.2452795,37.6771765 52.9943478,37.6771765 C54.5752174,37.6455529 55.5568323,38.3553882 55.5177019,39.4384941 C55.5383851,40.3318588 54.7954658,40.8451765 54.2616149,41.0157176 C54.6132298,41.0755765 54.9061491,41.1800471 55.1409317,41.3381647 C55.6093789,41.6470588 55.797764,42.1784471 55.797764,42.6573176 C55.797764,43.5450353 55.3209317,44.1628235 54.6395031,44.4847059 C53.9636646,44.7998118 53.2084472,44.8783059 52.6097516,44.8783059" id="Fill-5" fill="#1A4188"></path>
                    <path d="M35.0446584,44.8783059 C32.8069565,44.8783059 31.5469565,43.4851765 31.5469565,41.2461176 C31.5469565,39.0121412 32.8840994,37.6771765 35.0904969,37.6771765 C35.6813665,37.6771765 36.1313665,37.7568 36.6970807,37.9476706 L36.4622981,39.1962353 C36.1050932,39.0172235 35.7926087,38.9003294 35.3951553,38.9003294 C34.0753416,38.9003294 33.5163354,40.0032 33.5163354,41.1998118 C33.5163354,42.4009412 34.0613665,43.6246588 35.4085714,43.6246588 C35.8060248,43.6246588 36.1509317,43.5314824 36.5142857,43.3552941 L36.6445342,44.6224941 C36.0983851,44.7998118 35.6237888,44.8783059 35.0446584,44.8783059" id="Fill-6" fill="#1A4188"></path>
                    <path d="M58.5670807,43.6286118 C58.5670807,43.6286118 60.3357764,43.9860706 60.3357764,42.2908235 C60.3357764,41.9819294 60.2832298,41.7458824 60.1803727,41.5804235 C59.9707453,41.2387765 59.5224224,41.1738353 59.0483851,41.1738353 L58.767764,41.1738353 C58.7481988,41.1738353 58.683913,41.1800471 58.5670807,41.1868235 L58.5670807,43.6286118 L58.5670807,43.6286118 Z M56.6357143,44.7286588 L56.6357143,37.8494118 L58.5670807,37.8494118 L58.5670807,40.0156235 C58.9829814,39.9969882 59.2418012,39.9913412 59.3541615,39.9913412 C60.2569565,39.9913412 60.9154658,40.1488941 61.3257764,40.4634353 C61.8193789,40.8327529 62.1402484,41.4878118 62.1240373,42.1982118 C62.0737267,44.4570353 59.8047205,44.8783059 58.5972671,44.8783059 C57.3165839,44.8783059 56.6357143,44.7286588 56.6357143,44.7286588 L56.6357143,44.7286588 Z" id="Fill-7" fill="#1A4188"></path>
                    <path d="M42.0355901,41.0688 C42.8489441,40.8118588 43.2586957,40.2855529 43.2586957,39.4904471 C43.2586957,39.1476706 43.1765217,38.8687059 43.0328571,38.6422588 C42.8657143,38.3678118 42.6136025,38.1549176 42.2944099,38.0335059 C41.6621739,37.7421176 40.8152795,37.6771765 40.0606211,37.6771765 C38.6306832,37.6771765 37.7044099,37.8494118 37.7044099,37.8494118 L37.7044099,44.7286588 C37.7044099,44.7286588 38.6754037,44.8783059 40.0606211,44.8783059 C41.4273913,44.8783059 43.5108075,44.5253647 43.563354,42.7781647 C43.564472,42.7561412 43.5655901,42.7329882 43.5655901,42.7109647 C43.5968944,41.9480471 43.1295652,41.2190118 42.0355901,41.0688 L42.0355901,41.0688 Z M40.1053416,41.7769412 C40.2814286,41.7769412 40.4821118,41.7848471 40.7224845,41.7978353 C40.9634161,41.8102588 41.1635404,41.8893176 41.3401863,42.0350118 C41.5151553,42.1728 41.6079503,42.4009412 41.6079503,42.7233882 C41.6079503,43.4733176 40.9550311,43.7590588 40.0924845,43.7590588 C39.866087,43.7590588 39.6106211,43.7302588 39.6106211,43.7302588 L39.6106211,41.7769412 L40.1053416,41.7769412 L40.1053416,41.7769412 Z M39.6106211,40.7068235 L39.6106211,38.8190118 C39.6106211,38.8190118 39.8029193,38.7992471 40.3021118,38.7992471 C41.2267081,38.7992471 41.4190062,39.3481412 41.4190062,39.6948706 C41.4190062,40.3781647 41.0019876,40.7068235 40.0662112,40.7068235 L39.6106211,40.7068235 L39.6106211,40.7068235 Z" id="Fill-8" fill="#1A4188"></path>
                    <path d="M47.3897516,37.6771765 C45.9598137,37.6771765 44.1626087,37.9154824 44.1626087,39.7739294 C44.1626087,40.7469176 44.638882,41.3647059 45.5897516,41.6205176 L43.7740994,44.7286588 L45.7904348,44.7286588 L47.253354,41.9819294 L47.8257764,41.9819294 L47.8257764,44.7286588 L49.7448447,44.7286588 L49.7448447,37.8494118 C49.7448447,37.8494118 48.8202484,37.6771765 47.3897516,37.6771765 L47.3897516,37.6771765 Z M47.8257764,40.8248471 L47.343913,40.8248471 C46.4081366,40.8248471 46.0185093,40.512 46.0185093,39.7451294 C46.0185093,38.9432471 46.622236,38.7557647 47.1147205,38.7557647 C47.5887578,38.7557647 47.8257764,38.8032 47.8257764,38.8032 L47.8257764,40.8248471 L47.8257764,40.8248471 Z" id="Fill-9" fill="#1A4188"></path>
                    <path d="M0.050310559,44.7286588 L0.050310559,35.2274824 L7.23018634,35.2274824 L7.23018634,44.7286588 L5.14229814,44.7286588 L5.14229814,36.5613176 L2.14434783,36.5613176 L2.14434783,44.7286588 L0.050310559,44.7286588" id="Fill-10" fill="#1A4188"></path>
                    <path d="M8.37726708,47.5143529 L8.37726708,38.0256 C10.0850311,37.6771765 14.7186335,36.6945882 14.7186335,40.8914824 C14.7186335,42.0016941 14.4206832,42.9667765 13.8549689,43.6246588 C12.7537267,44.9624471 10.9442236,44.8178824 10.349441,44.5739294 L10.349441,47.5143529 L8.37726708,47.5143529 L8.37726708,47.5143529 Z M12.7883851,41.0558118 C12.7883851,38.4649412 10.9934161,38.6863059 10.349441,38.8483765 L10.349441,43.3519059 C10.6082609,43.3982118 12.7883851,44.2418824 12.7883851,41.0558118 L12.7883851,41.0558118 Z" id="Fill-11" fill="#1A4188"></path>
                    <path d="M18.629441,44.8783059 C16.3922981,44.8783059 15.4095652,43.4337882 15.4095652,41.2850824 C15.4095652,39.0505412 16.5812422,37.6771765 18.8446584,37.6771765 C19.6451553,37.6771765 20.2947205,37.8612706 20.789441,38.2300235 C21.2774534,38.5903059 21.602236,39.0505412 21.7587578,39.6096 C21.9147205,40.1624471 21.9924224,40.7006118 21.9924224,41.2331294 C21.9924224,43.5580235 21.0225466,44.8783059 18.629441,44.8783059 L18.629441,44.8783059 Z M18.7803727,43.7872941 C19.352236,43.7872941 19.7357143,43.3287529 19.890559,42.7177412 C20.0465217,42.0931765 20.0610559,41.6589176 20.0610559,41.1868235 C20.0610559,40.5295059 19.9889441,40.0365176 19.8,39.5299765 C19.6110559,39.0121412 19.1895652,38.7557647 18.7803727,38.7557647 C18.2135404,38.7557647 17.817205,39.1696941 17.6338509,39.7287529 C17.4449068,40.2793412 17.4197516,40.8248471 17.4197516,41.1868235 C17.4197516,42.0468706 17.6086957,43.7872941 18.7803727,43.7872941 L18.7803727,43.7872941 Z" id="Fill-12" fill="#1A4188"></path>
                    <path d="M22.409441,44.7286588 L23.1188199,37.8494118 L25.382236,37.8494118 L26.7808696,42.5325176 L28.1918012,37.8494118 L30.4418012,37.8494118 L31.0936025,44.7286588 L29.2857764,44.7286588 L28.9078882,39.7739294 L27.4175776,44.7286588 L25.8585093,44.7286588 L24.3547826,39.7473882 L23.9847205,44.7286588 L22.409441,44.7286588" id="Fill-13" fill="#1A4188"></path>
                    <path d="M59.9947826,7.41684706 C59.9947826,3.34814118 56.7290683,0.0502588235 52.7014286,0.0502588235 L42.3995031,0.0502588235 C39.0756522,0.0502588235 36.2403727,2.3136 35.3800621,5.44150588 L47.8330435,5.44150588 C52.6242857,5.44150588 54.6568323,7.69298824 54.6568323,12.9758118 L54.6568323,24.9153882 C57.7470186,24.0463059 59.9947826,21.1719529 59.9947826,17.8266353 L59.9947826,7.41684706" id="Fill-14" fill="#1A4188"></path>
                    <path d="M30.0225466,22.9400471 C30.0225466,27.0098824 33.2871429,30.3066353 37.3147826,30.3066353 L47.6172671,30.3066353 C50.941677,30.3066353 53.7769565,28.0444235 54.6372671,24.9153882 L42.1842857,24.9153882 C37.3936025,24.9153882 35.3604969,22.6639059 35.3604969,17.3810824 L35.3604969,5.44150588 C32.2708696,6.31171765 30.0225466,9.18607059 30.0225466,12.5313882 L30.0225466,22.9400471" id="Fill-15" fill="#E15D29"></path>
                    <path d="M50.8891304,11.6854588 L50.8891304,11.6532706 C51.4665839,11.4691765 52.2374534,10.9829647 52.2374534,9.7056 C52.2374534,8.26842353 51.0814286,7.60884706 49.4547205,7.60884706 L46.6921118,7.60884706 L46.6921118,11.0479059 L45.0665217,11.0479059 C42.8830435,11.0479059 42.4330435,12.5952 42.4330435,13.4377412 C42.4330435,14.6366118 43.1189441,15.1685647 44.3817391,15.8049882 C45.1514907,16.1929412 46.0710559,16.4312471 46.0710559,17.3189647 C46.0710559,17.7859765 45.6439752,18.3484235 44.7238509,18.3484235 L43.0116149,18.3484235 C43.2681988,17.904 43.3744099,17.4172235 43.3744099,16.9948235 C43.3744099,16.4448 43.1821118,14.2373647 40.141677,14.2373647 L37.6585714,14.2373647 L37.6585714,22.7469176 L39.3501242,22.7469176 L39.3501242,19.0384941 L40.0343478,19.7313882 L44.6606832,19.7313882 C46.8201242,19.7313882 47.8486957,18.6076235 47.8486957,17.2664471 C47.8486957,16.7909647 47.7620497,16.4092235 47.612795,16.0980706 L49.3473913,16.0980706 C52.023913,16.0980706 52.6438509,14.7568941 52.6438509,13.7071059 C52.6438509,12.6381176 51.9590683,11.8475294 50.8891304,11.6854588 L50.8891304,11.6854588 Z M40.141677,18.3484235 L39.3501242,18.3484235 L39.3501242,15.5666824 L40.141677,15.5666824 C41.126087,15.5666824 41.576087,16.1709176 41.576087,16.9067294 C41.576087,17.5905882 41.1696894,18.3484235 40.141677,18.3484235 L40.141677,18.3484235 Z M46.6921118,13.0706824 L46.6921118,15.1341176 C46.2851553,14.8873412 45.8155901,14.6919529 45.3242236,14.4756706 C44.7881366,14.2373647 44.2106832,13.9341176 44.2106832,13.2513882 C44.2106832,12.9052235 44.4247826,12.3890824 45.452236,12.3890824 L47.3562112,12.3890824 L46.6921118,13.0706824 L46.6921118,13.0706824 Z M48.3836646,8.94042353 L49.1545342,8.94042353 C50.4603727,8.94042353 50.5246584,9.74964706 50.5246584,9.99811765 C50.5246584,10.3651765 50.3323602,11.0479059 49.2188199,11.0479059 L48.3836646,11.0479059 L48.3836646,8.94042353 L48.3836646,8.94042353 Z M49.3473913,14.7568941 L48.3836646,14.7568941 L48.3836646,12.3890824 L49.3473913,12.3890824 C50.5246584,12.3890824 50.845528,12.9628235 50.845528,13.5681882 C50.845528,14.1735529 50.4173292,14.7568941 49.3473913,14.7568941 L49.3473913,14.7568941 Z" id="Fill-16" fill="#1A4188"></path>
                </g>
            </g>
        </g>
    </g>
</svg>