<?xml version="1.0" encoding="UTF-8" standalone="no"?>
<svg width="89px" height="26px" viewBox="0 0 89 26" version="1.1" xmlns="http://www.w3.org/2000/svg" xmlns:xlink="http://www.w3.org/1999/xlink" xmlns:sketch="http://www.bohemiancoding.com/sketch/ns">
    <!-- Generator: Sketch 3.2.2 (9983) - http://www.bohemiancoding.com/sketch -->
    <title>payment-logo-beeline</title>
    <desc>Created with Sketch.</desc>
    <defs></defs>
    <g id="Page-1" stroke="none" stroke-width="1" fill="none" fill-rule="evenodd" sketch:type="MSPage">
        <g id="platron_payment-phone" sketch:type="MSArtboardGroup" transform="translate(-496.000000, -152.000000)">
            <g id="Content" sketch:type="MSLayerGroup" transform="translate(30.000000, 100.000000)">
                <g id="payment-logo-beeline" transform="translate(466.000000, 52.000000)" sketch:type="MSShapeGroup">
                    <g id="beeline" transform="translate(0.323529, 0.666667)">
                        <path d="M84.5109798,10.2510145 C84.49716,10.2510145 84.4839162,10.2631884 84.4839162,10.2788406 L84.4839162,10.5269565 C84.4839162,10.542029 84.49716,10.5547826 84.5109798,10.5547826 L84.9716367,10.5547826 L84.9716367,12.1397101 C84.9716367,12.155942 84.9843048,12.1686957 85.0004278,12.1686957 L85.2589715,12.1686957 C85.2745187,12.1686957 85.2860351,12.155942 85.2860351,12.1397101 L85.2860351,10.5547826 L85.7466921,10.5547826 C85.7622393,10.5547826 85.7749074,10.542029 85.7749074,10.5269565 L85.7749074,10.2788406 C85.7749074,10.2631884 85.7622393,10.2510145 85.7466921,10.2510145 L84.5109798,10.2510145 L84.5109798,10.2510145 Z M87.7707038,10.2510145 L87.4580328,10.2510145 C87.4470922,10.2510145 87.4355758,10.2573913 87.4326967,10.2672464 C87.4326967,10.2672464 86.9610991,11.3733333 86.9150334,11.4828986 C86.8689677,11.3733333 86.3985218,10.2672464 86.3985218,10.2672464 C86.394491,10.2573913 86.3829746,10.2510145 86.372034,10.2510145 L86.0593631,10.2510145 C86.0449675,10.2510145 86.0322995,10.2631884 86.0322995,10.2788406 L86.0322995,12.1397101 C86.0322995,12.155942 86.0449675,12.1686957 86.0593631,12.1686957 L86.3133002,12.1686957 C86.3213617,12.1686957 86.3271199,12.1652174 86.3340298,12.16 C86.3386364,12.1553623 86.3420913,12.1478261 86.3420913,12.1397101 C86.3420913,12.1397101 86.3323023,11.0585507 86.3305749,10.8318841 C86.4180997,11.0353623 86.7912319,11.9031884 86.7912319,11.9031884 C86.7958384,11.9136232 86.8050516,11.92 86.816568,11.92 L87.0134989,11.92 C87.0244395,11.92 87.0359559,11.9136232 87.038835,11.9031884 C87.038835,11.9031884 87.4119672,11.0353623 87.499492,10.8318841 C87.4977645,11.0585507 87.489703,12.1397101 87.489703,12.1397101 C87.489703,12.1478261 87.4914305,12.1553623 87.4977645,12.16 C87.5023711,12.1652174 87.5087051,12.1686957 87.5167666,12.1686957 L87.7707038,12.1686957 C87.7868268,12.1686957 87.7977674,12.155942 87.7977674,12.1397101 L87.7977674,10.2788406 C87.7977674,10.2631884 87.7868268,10.2510145 87.7707038,10.2510145 L87.7707038,10.2510145 Z M67.1528485,8.40521739 L73.503581,8.40521739 C73.6907229,8.40521739 73.8369815,8.25855072 73.8369815,8.09101449 L73.8369815,7.14782609 C73.8369815,6.97913043 73.6907229,6.83304348 73.503581,6.83304348 L67.1528485,6.83304348 C66.9858604,6.83304348 66.8396018,6.97913043 66.8396018,7.14782609 L66.8396018,8.09101449 C66.8396018,8.25855072 66.9858604,8.40521739 67.1528485,8.40521739 L67.1528485,8.40521739 Z M35.8022613,10.9634783 L33.7212433,10.9634783 L33.7212433,8.40521739 L38.5305023,8.40521739 C38.6974905,8.40521739 38.843749,8.25855072 38.843749,8.09101449 L38.843749,7.14782609 C38.843749,6.97913043 38.6974905,6.83304348 38.5305023,6.83304348 L32.3456064,6.83304348 C32.179194,6.83304348 32.0329354,6.97913043 32.0329354,7.14782609 L32.0329354,15.0307246 C32.0329354,17.1489855 32.7003123,18.5542029 35.3237538,18.5542029 L35.6358489,18.5542029 C39.3844452,18.5542029 39.9464467,16.0573913 39.9464467,14.7791304 C39.9464467,13.6475362 39.5307038,10.9634783 35.8022613,10.9634783 L35.8022613,10.9634783 Z M35.86445,16.9814493 L35.3237538,16.9814493 C34.1790212,16.9814493 33.7212433,16.4985507 33.7212433,15.1988406 L33.7212433,12.5147826 L35.86445,12.5147826 C37.3851939,12.5147826 38.2397126,13.3530435 38.2397126,14.7791304 C38.2397126,16.204058 37.3851939,16.9814493 35.86445,16.9814493 L35.86445,16.9814493 Z M47.8726261,10.2510145 L46.874152,10.2510145 C46.6870101,10.2510145 46.5609053,10.3971014 46.5609053,10.5657971 L46.5609053,15.9530435 C46.0196333,16.5397101 45.041313,17.0434783 44.3128992,17.0434783 C43.2919681,17.0434783 42.7915794,16.4776812 42.7915794,15.0307246 L42.7915794,10.5657971 C42.7915794,10.3971014 42.6458967,10.2510145 42.4789085,10.2510145 L41.478707,10.2510145 C41.3140222,10.2510145 41.1677636,10.3971014 41.1677636,10.5657971 L41.1677636,15.5547826 C41.1677636,17.3791304 42.145508,18.657971 44.0416874,18.657971 C45.2083012,18.657971 46.2280806,18.0284058 46.7278934,17.5889855 L46.8943058,18.3443478 C46.9357649,18.4486957 47.0405644,18.5333333 47.1643659,18.5333333 L47.8927798,18.5333333 C48.0390384,18.5333333 48.185297,18.4069565 48.185297,18.2376812 L48.185297,10.5657971 C48.185297,10.3971014 48.059768,10.2510145 47.8726261,10.2510145 L47.8726261,10.2510145 Z M56.8462242,10.2510145 L54.0966778,10.2510145 C51.8256388,10.2510145 51.1605653,11.5715942 50.9734234,13.4371014 L50.7655519,15.6173913 C50.6607525,16.7286957 50.3682353,17.0017391 49.4313741,17.106087 C49.286843,17.1269565 49.1411602,17.2736232 49.1411602,17.4417391 L49.1411602,18.2805797 C49.1411602,18.4486957 49.286843,18.5953623 49.4313741,18.5953623 C51.2642131,18.5953623 52.1820722,17.7136232 52.3692141,15.5344928 L52.556356,13.5843478 C52.6801576,12.2214493 52.9513694,11.8017391 54.1807477,11.8017391 L55.5350793,11.8017391 L55.5350793,18.2168116 C55.5350793,18.3866667 55.6796104,18.5333333 55.8460227,18.5333333 L56.8462242,18.5333333 C56.9924828,18.5333333 57.1588951,18.3866667 57.1588951,18.2168116 L57.1588951,10.5657971 C57.1588951,10.3971014 56.9924828,10.2510145 56.8462242,10.2510145 L56.8462242,10.2510145 Z M82.4374475,10.2510145 L81.4165164,10.2510145 C81.2501041,10.2510145 81.105573,10.3971014 81.105573,10.5657971 L81.105573,13.5426087 L77.3771304,13.5426087 L77.3771304,10.5657971 C77.3771304,10.3971014 77.2314477,10.2510145 77.0650353,10.2510145 L76.0435285,10.2510145 C75.8771161,10.2510145 75.7515871,10.3971014 75.7515871,10.5657971 L75.7515871,18.2168116 C75.7515871,18.3866667 75.8771161,18.5333333 76.0435285,18.5333333 L77.0650353,18.5333333 C77.2314477,18.5333333 77.3771304,18.3866667 77.3771304,18.2168116 L77.3771304,15.0307246 L81.105573,15.0307246 L81.105573,18.2168116 C81.105573,18.3866667 81.2501041,18.5333333 81.4165164,18.5333333 L82.4374475,18.5333333 C82.5831303,18.5333333 82.7293888,18.3866667 82.7293888,18.2168116 L82.7293888,10.5657971 C82.7293888,10.3971014 82.5831303,10.2510145 82.4374475,10.2510145 L82.4374475,10.2510145 Z M73.5444643,10.2510145 L72.5459903,10.2510145 C72.3588484,10.2510145 72.2333193,10.3971014 72.2333193,10.5657971 L72.2333193,15.9530435 C71.6914715,16.5397101 70.7119996,17.0434783 69.9835858,17.0434783 C68.9638063,17.0434783 68.4639935,16.4776812 68.4639935,15.0307246 L68.4639935,10.5657971 C68.4639935,10.3971014 68.3177349,10.2510145 68.1513226,10.2510145 L67.1528485,10.2510145 C66.9858604,10.2510145 66.8396018,10.3971014 66.8396018,10.5657971 L66.8396018,15.5547826 C66.8396018,17.3791304 67.8179221,18.657971 69.7135256,18.657971 C70.878412,18.657971 71.8999188,18.0284058 72.3997317,17.5889855 L72.5667198,18.3443478 C72.6076031,18.4486957 72.711251,18.5333333 72.83678,18.5333333 L73.5651939,18.5333333 C73.7114524,18.5333333 73.8571352,18.4069565 73.8571352,18.2376812 L73.8571352,10.5657971 C73.8571352,10.3971014 73.7316062,10.2510145 73.5444643,10.2510145 L73.5444643,10.2510145 Z M61.9480004,9.95710145 C61.0318688,9.95710145 60.1364668,10.124058 59.491547,10.3971014 C59.3867475,10.4394203 59.3044051,10.5657971 59.3044051,10.6689855 L59.3044051,11.6133333 C59.3044051,11.6973913 59.366018,11.8017391 59.4282066,11.8446377 C59.5122765,11.8857971 59.5951948,11.9072464 59.6775372,11.8857971 C60.2412662,11.6973913 60.8856102,11.5084058 61.9480004,11.5084058 C63.2591453,11.5084058 63.4894738,11.9072464 63.4894738,12.8498551 L63.4894738,13.0173913 L61.6779402,13.1437681 C58.7625573,13.3530435 58.6162987,15.2614493 58.6162987,15.8486957 C58.6162987,17.5889855 59.5330061,18.657971 61.7193994,18.657971 C62.4063541,18.657971 63.1768029,18.4486957 63.8436039,18.0284058 L63.9892867,18.3443478 C64.0313216,18.4486957 64.1355453,18.5333333 64.2593468,18.5333333 L64.864535,18.5333333 C65.0090661,18.5333333 65.1553247,18.4069565 65.1553247,18.2376812 L65.1553247,12.8713043 C65.1553247,10.9002899 64.1130882,9.95710145 61.9480004,9.95710145 L61.9480004,9.95710145 Z M61.7395531,17.1269565 C61.0525984,17.1269565 60.3437624,16.8550725 60.3437624,15.8486957 C60.3437624,15.2614493 60.4491377,14.6533333 61.656059,14.5489855 L63.4687443,14.3814493 L63.4894738,16.5814493 C62.9073186,16.937971 62.448389,17.1269565 61.7395531,17.1269565 L61.7395531,17.1269565 Z" id="Fill-1" fill="#17160D"></path>
                        <path d="M25.1470588,12.6672497 C25.1470588,19.6629534 19.5191418,25.3333333 12.5749765,25.3333333 C5.62907462,25.3333333 0,19.6629534 0,12.6672497 C0,5.67154606 5.62907462,0 12.5749765,0 C19.5191418,0 25.1470588,5.67154606 25.1470588,12.6672497" id="Fill-2" fill="#F3B337"></path>
                        <path d="M24.7071122,9.33333333 C24.9939615,10.3956138 25.1470588,11.5134211 25.1470588,12.6672497 C25.1470588,13.8206868 24.9940654,14.9380953 24.7074042,16 L24.7074042,16 L0.439746404,16 C0.153024864,14.9380953 0,13.8206868 0,12.6672497 C0,11.5134211 0.153128777,10.3956138 0.440038452,9.33333333 L24.7071122,9.33333333 Z M21.7436887,4 C19.4502842,1.53796608 16.1910954,0 12.5749765,0 C8.95795332,0 5.69801721,1.53796608 3.40410408,4 L21.7436887,4 Z M21.7442657,21.3333333 C19.4508308,23.7954256 16.1913986,25.3333333 12.5749765,25.3333333 C8.95765,25.3333333 5.69747046,23.7954256 3.40352701,21.3333333 L21.7442657,21.3333333 L21.7442657,21.3333333 Z" id="Fill-3" fill="#17170E"></path>
                    </g>
                </g>
            </g>
        </g>
    </g>
</svg>