<?xml version="1.0" encoding="UTF-8" standalone="no"?>
<svg width="100px" height="32px" viewBox="0 0 100 32" version="1.1" xmlns="http://www.w3.org/2000/svg" xmlns:xlink="http://www.w3.org/1999/xlink" xmlns:sketch="http://www.bohemiancoding.com/sketch/ns">
    <!-- Generator: Sketch 3.2.2 (9983) - http://www.bohemiancoding.com/sketch -->
    <title>payment-logo-svyaznoy</title>
    <desc>Created with Sketch.</desc>
    <defs></defs>
    <g id="Page-1" stroke="none" stroke-width="1" fill="none" fill-rule="evenodd" sketch:type="MSPage">
        <g id="platron_payment-banks" sketch:type="MSArtboardGroup" transform="translate(-490.000000, -149.000000)">
            <g id="Content" sketch:type="MSLayerGroup" transform="translate(30.000000, 100.000000)">
                <g id="payment-logo-svyaznoy" transform="translate(460.000000, 49.000000)" sketch:type="MSShapeGroup">
                    <path d="M0.0130434783,0.0187210884 L99.828913,0.0187210884 L99.828913,32 L0.0130434783,32 L0.0130434783,0.0187210884 Z" id="Fill-1" fill="#FFFFFF"></path>
                    <path d="M36.7258969,10.944603 L34.5341303,10.944603 C33.5568296,10.944603 33.2155199,10.4426076 33.2155199,9.96763178 C33.2155199,9.49289296 33.5568296,9.00345929 34.5341303,9.00345929 L36.7258969,9.00345929 L36.7258969,10.944603 L36.7258969,10.944603 Z M20.1688281,10.5907413 L20.1688281,9.00345929 L22.419531,9.00345929 C22.9359926,9.00345929 23.528669,9.15088192 23.528669,9.77304338 C23.528669,10.398286 22.9359926,10.5907413 22.419531,10.5907413 L20.1688281,10.5907413 L20.1688281,10.5907413 Z M20.1688281,13.6593601 L20.1688281,11.9836719 L22.507817,11.9836719 C23.3080722,11.9836719 23.7665443,12.207176 23.7665443,12.8293374 C23.7665443,13.4507879 23.3080722,13.6593601 22.507817,13.6593601 L20.1688281,13.6593601 L20.1688281,13.6593601 Z M44.0415688,12.1322796 L47.0340639,12.1322796 C47.9521916,12.1322796 48.21847,12.4275989 48.21847,12.7992367 C48.21847,13.3941415 47.5675674,13.6593601 46.4697905,13.6593601 C45.21201,13.6593601 43.5243971,13.332992 42.3080376,13.0075719 L41.95442,15.0676966 C43.3456947,15.4827079 45.0046679,15.8991413 47.3147805,15.8991413 C50.2781625,15.8991413 53.3880568,15.1878626 53.3880568,13.2580956 C53.3880568,11.9412464 51.9222241,11.3607994 50.6632602,11.2726302 L50.6632602,11.2138508 C51.6701473,11.0197364 52.6905259,10.3233896 52.6905259,9.28503178 C52.6905259,7.52117444 50.2173327,6.85208424 47.6253202,6.85208424 C45.7445667,6.85208424 43.699549,7.25405979 42.323896,7.62403847 L42.6062694,9.61092588 C43.8342267,9.30043769 45.3881087,8.98900144 46.5460053,8.98900144 C47.5675674,8.98900144 48.0996507,9.18193074 48.0996507,9.74199456 C48.0996507,10.1017816 47.8930187,10.398286 47.0783253,10.398286 L44.0415688,10.398286 L44.0415688,12.1322796 L44.0415688,12.1322796 Z M74.4619163,13.6733439 C73.3970396,13.6733439 71.9139284,13.0959781 71.9139284,11.405832 C71.9139284,9.61092588 73.3804712,9.09305054 74.4619163,9.09305054 C75.5440715,9.09305054 77.0070638,9.61092588 77.0070638,11.405832 C77.0070638,13.0959781 75.5277397,13.6733439 74.4619163,13.6733439 L74.4619163,13.6733439 Z M14.6865713,10.0712068 L14.6865713,7.62403847 C13.4891472,7.121095 12.1101805,6.80634056 10.4819772,6.80634056 C7.31243652,6.80634056 3.89152911,8.01084513 3.89152911,11.4202899 C3.89152911,14.7114647 7.29918178,15.9581578 10.5409134,15.9581578 C12.080594,15.9581578 13.5771966,15.6777703 14.6865713,15.2035055 L14.6865713,12.7546781 C13.7551889,13.1388776 12.8363511,13.3472128 11.8583403,13.3472128 C10.4677757,13.3472128 8.94111319,12.8885909 8.94111319,11.4202899 C8.94111319,9.99796956 10.2601969,9.44880838 11.6812948,9.44880838 C12.5994225,9.44880838 13.7109275,9.69980609 14.6865713,10.0712068 L14.6865713,10.0712068 Z M53.9942247,15.5132827 L58.689481,15.5132827 L58.689481,12.4275989 L61.8876614,12.4275989 L61.8876614,15.5132827 L66.5983027,15.5132827 L66.5983027,7.25405979 L61.8876614,7.25405979 L61.8876614,10.1164765 L58.689481,10.1164765 L58.689481,7.25405979 L53.9942247,7.25405979 L53.9942247,15.5132827 L53.9942247,15.5132827 Z M86.4432581,15.5132827 L91.3307082,11.3762053 L91.3307082,15.5132827 L95.9367318,15.5132827 L95.9367318,7.25405979 L91.8481166,7.25405979 L86.9597197,11.3913742 L86.9597197,7.25405979 L82.3555897,7.25405979 L82.3555897,15.5132827 L86.4432581,15.5132827 L86.4432581,15.5132827 Z M33.335286,15.5132827 L35.0214788,12.7416423 L36.7258969,12.7416423 L36.7258969,15.5132827 L41.243161,15.5132827 L41.243161,7.25405979 C39.3186195,7.04619861 36.5777278,6.97153924 35.718773,6.97153924 C32.0739551,6.97153924 28.6395563,7.20926417 28.6395563,9.99796956 C28.6395563,11.1974968 29.6909415,11.9099606 30.8755842,12.207176 L28.4187228,15.5132827 L33.335286,15.5132827 L33.335286,15.5132827 Z M15.6513273,15.5132827 C17.8421472,15.705975 19.6935509,15.808839 21.7222368,15.808839 C24.684672,15.808839 28.5219204,15.6474326 28.5219204,13.332992 C28.5219204,11.9836719 27.0096961,11.2726302 25.7071809,11.2726302 L25.7071809,11.1820909 C26.9512333,11.0349053 27.9593039,10.1897138 27.9593039,9.19567755 C27.9593039,7.13460479 24.684672,6.97153924 21.6048376,6.97153924 C19.5600566,6.97153924 17.9164684,7.04619861 15.6513273,7.25405979 L15.6513273,15.5132827 L15.6513273,15.5132827 Z M74.4619163,6.80634056 C71.2315458,6.80634056 67.0719231,7.96604951 67.0719231,11.4202899 C67.0719231,14.801056 71.2786475,15.9581578 74.4619163,15.9581578 C77.647552,15.9581578 81.8519094,14.801056 81.8519094,11.4202899 C81.8519094,7.96604951 77.6920501,6.80634056 74.4619163,6.80634056 L74.4619163,6.80634056 Z" id="Fill-2" fill="#777776"></path>
                    <path d="M91.1830125,6.52666417 L87.805183,3.63556879 L87.805183,9.41918164 L91.1830125,6.52666417" id="Fill-3" fill="#F2AB61"></path>
                    <path d="M3.94736842,20 L22.3684211,20 L22.3684211,25.3333333 L3.94736842,25.3333333 L3.94736842,20 Z" id="Fill-4" fill="#93B8D8"></path>
                    <path d="M22.3684211,20 L40.7894737,20 L40.7894737,25.3333333 L22.3684211,25.3333333 L22.3684211,20 Z" id="Fill-5" fill="#F2AB61"></path>
                    <path d="M40.7894737,20 L59.2105263,20 L59.2105263,25.3333333 L40.7894737,25.3333333 L40.7894737,20 Z" id="Fill-6" fill="#AED284"></path>
                    <path d="M59.2035402,20 L77.6245929,20 L77.6245929,25.3333333 L59.2035402,25.3333333 L59.2035402,20 Z" id="Fill-7" fill="#FEDB6D"></path>
                    <path d="M77.6315789,20 L96.0526316,20 L96.0526316,25.3333333 L77.6315789,25.3333333 L77.6315789,20 Z" id="Fill-8" fill="#A98EB6"></path>
                </g>
            </g>
        </g>
    </g>
</svg>