<?xml version="1.0" encoding="UTF-8" standalone="no"?>
<svg width="70px" height="37px" viewBox="0 0 70 37" version="1.1" xmlns="http://www.w3.org/2000/svg" xmlns:xlink="http://www.w3.org/1999/xlink" xmlns:sketch="http://www.bohemiancoding.com/sketch/ns">
    <!-- Generator: Sketch 3.2.2 (9983) - http://www.bohemiancoding.com/sketch -->
    <title>Imported Layers 2</title>
    <desc>Created with Sketch.</desc>
    <defs></defs>
    <g id="Page-1" stroke="none" stroke-width="1" fill="none" fill-rule="evenodd" sketch:type="MSPage">
        <g id="platron_payment-banks" sketch:type="MSArtboardGroup" transform="translate(-835.000000, -147.000000)" fill="#003A65">
            <g id="Content" sketch:type="MSLayerGroup" transform="translate(30.000000, 100.000000)">
                <g id="Imported-Layers-2" transform="translate(805.000000, 47.000000)" sketch:type="MSShapeGroup">
                    <path d="M27.3272632,21.48146 L26.6466667,21.48146 L25.2329123,23.1772933 L25.2329123,21.48146 L24.6670175,21.48146 L24.6670175,23.1772933 L23.2535088,21.48146 L22.5758596,21.48146 L23.7889474,22.86896 L22.5117544,24.7406667 L23.1935789,24.7406667 L24.1600702,23.2939667 L24.6670175,23.8743733 L24.6670175,24.7406667 L25.2329123,24.7406667 L25.2329123,23.8743733 L25.7423158,23.2939667 L26.7080702,24.7406667 L27.3928421,24.7406667 L26.1122105,22.86896 L27.3272632,21.48146" id="Fill-1"></path>
                    <path d="M33.1647719,22.6560867 L32.4210526,22.6560867 L32.4210526,21.48146 L31.8573684,21.48146 L31.8573684,24.7406667 L33.1593684,24.7406667 C33.9089825,24.7406667 34.380807,24.3321867 34.380807,23.6772867 C34.380807,23.01918 33.8927719,22.6560867 33.1647719,22.6560867 L33.1647719,22.6560867 Z M33.1502807,24.2313 L32.4210526,24.2313 L32.4210526,23.15312 L33.1409474,23.15312 C33.5717544,23.15312 33.8171228,23.33442 33.8171228,23.6706267 C33.8171228,24.0386533 33.5717544,24.2313 33.1502807,24.2313 L33.1502807,24.2313 Z" id="Fill-2"></path>
                    <path d="M30.2230526,22.8361533 L28.6801053,22.8361533 L28.6801053,21.48146 L28.1110175,21.48146 L28.1110175,24.7406667 L28.6801053,24.7406667 L28.6801053,23.3679667 L30.2230526,23.3679667 L30.2230526,24.7406667 L30.7909123,24.7406667 L30.7909123,21.48146 L30.2230526,21.48146 L30.2230526,22.8361533" id="Fill-3"></path>
                    <path d="M67.4861404,22.6560867 L66.7409474,22.6560867 L66.7409474,21.48146 L66.1775088,21.48146 L66.1775088,24.7406667 L67.4817193,24.7406667 C68.2303509,24.7406667 68.7007018,24.3321867 68.7007018,23.6772867 C68.7007018,23.01918 68.2109474,22.6560867 67.4861404,22.6560867 L67.4861404,22.6560867 Z M67.4694386,24.2313 L66.7409474,24.2313 L66.7409474,23.15312 L67.4605965,23.15312 C67.8909123,23.15312 68.1365263,23.33442 68.1365263,23.6706267 C68.1365263,24.0386533 67.8909123,24.2313 67.4694386,24.2313 L67.4694386,24.2313 Z" id="Fill-4"></path>
                    <path d="M20.0961404,23.3546467 L21.7198947,23.3546467 L21.7198947,22.8410867 L20.0961404,22.8410867 L20.0961404,21.9955133 L21.9267018,21.9955133 L21.9267018,21.48146 L19.5277895,21.48146 L19.5277895,24.7406667 L21.9505263,24.7406667 L21.9505263,24.2313 L20.0961404,24.2313 L20.0961404,23.3546467" id="Fill-5"></path>
                    <path d="M17.8939649,22.8361533 L16.3495439,22.8361533 L16.3495439,21.48146 L15.7804561,21.48146 L15.7804561,24.7406667 L16.3495439,24.7406667 L16.3495439,23.3679667 L17.8939649,23.3679667 L17.8939649,24.7406667 L18.4635439,24.7406667 L18.4635439,21.48146 L17.8939649,21.48146 L17.8939649,22.8361533" id="Fill-6"></path>
                    <path d="M11.3092982,21.48146 L9.05308772,21.48146 L9.05308772,21.9414933 C9.05308772,23.0322533 8.91014035,23.6943067 8.64168421,24.2313 L8.32557895,24.2313 L8.32557895,25.4402133 L8.82589474,25.4402133 L8.88042105,24.7406667 L11.1604561,24.7406667 L11.1604561,25.4402133 L11.6327719,25.4402133 L11.7118596,24.2313 L11.3092982,24.2313 L11.3092982,21.48146 L11.3092982,21.48146 Z M10.7394737,24.2313 L9.24614035,24.2313 C9.46915789,23.7766933 9.59859649,23.1267267 9.59859649,22.3706933 L9.59859649,21.9989667 L10.7394737,21.9989667 L10.7394737,24.2313 L10.7394737,24.2313 Z" id="Fill-7"></path>
                    <path d="M13.0209825,24.2313 L13.0209825,23.3546467 L14.6420351,23.3546467 L14.6420351,22.8410867 L13.0209825,22.8410867 L13.0209825,21.9955133 L14.8505614,21.9955133 L14.8505614,21.48146 L12.4516491,21.48146 L12.4516491,24.7406667 L14.8731579,24.7406667 L14.8731579,24.2313 L13.0209825,24.2313" id="Fill-8"></path>
                    <path d="M59.9045263,21.42448 L59.9005965,21.42448 C58.9095439,21.42744 58.2095439,22.19408 58.2095439,23.1102 C58.2095439,24.0386533 58.9029123,24.7978933 59.8971579,24.7978933 L59.9005965,24.7978933 C60.8909123,24.7954267 61.5926316,24.02854 61.5926316,23.1102 C61.5926316,22.1839667 60.8980351,21.42448 59.9045263,21.42448 L59.9045263,21.42448 Z M59.9045263,24.2717533 L59.9005965,24.2717533 C59.2595439,24.2700267 58.8041754,23.7438867 58.8041754,23.1102 C58.8041754,22.4681267 59.2534035,21.95358 59.8971579,21.95358 L59.9005965,21.95358 C60.5389474,21.9545667 60.998,22.4787333 60.998,23.1102 C60.998,23.7544933 60.5455789,24.2717533 59.9045263,24.2717533 L59.9045263,24.2717533 Z" id="Fill-9"></path>
                    <path d="M69.0860702,21.48146 L69.6490175,21.48146 L69.6490175,24.7406667 L69.0860702,24.7406667 L69.0860702,21.48146 Z" id="Fill-10"></path>
                    <path d="M65.0341754,21.48146 L62.7782105,21.48146 L62.7782105,21.9414933 C62.7782105,23.0322533 62.6337895,23.6943067 62.3672982,24.2313 L62.0526667,24.2313 L62.0526667,25.4402133 L62.5505263,25.4402133 L62.6050526,24.7406667 L64.8870526,24.7406667 L64.8870526,25.4402133 L65.3578947,25.4402133 L65.4357544,24.2313 L65.0341754,24.2313 L65.0341754,21.48146 L65.0341754,21.48146 Z M64.4658246,24.2313 L62.9717544,24.2313 C63.1937895,23.7766933 63.3249474,23.1267267 63.3249474,22.3706933 L63.3249474,21.9989667 L64.4658246,21.9989667 L64.4658246,24.2313 L64.4658246,24.2313 Z" id="Fill-11"></path>
                    <path d="M49.9544561,21.57248 C49.7952982,21.5122933 49.6113333,21.48146 49.4077193,21.48146 L48.1302807,21.48146 L48.1302807,24.7406667 L48.7003509,24.7406667 L48.7003509,23.6943067 L49.3428772,23.6943067 C49.5627018,23.6943067 49.7712281,23.65706 49.9544561,23.58528 C50.3599649,23.4229733 50.6367719,23.0847933 50.6367719,22.5798667 C50.6367719,22.09418 50.3830526,21.7328133 49.9544561,21.57248 L49.9544561,21.57248 Z M49.9544561,22.92298 C49.8380351,23.0808467 49.6317193,23.1772933 49.3620351,23.1772933 L48.7003509,23.1772933 L48.7003509,22.0021733 L49.3620351,22.0021733 C49.6302456,22.0021733 49.8380351,22.0825867 49.9544561,22.2387267 C50.022,22.3297467 50.0585965,22.44494 50.0585965,22.5850467 C50.0585965,22.7138067 50.0234737,22.8294933 49.9544561,22.92298 L49.9544561,22.92298 Z" id="Fill-12"></path>
                    <path d="M56.8326316,23.0453267 C57.0728421,22.9205133 57.2961053,22.7108467 57.2961053,22.31914 C57.2961053,22.0914667 57.2234035,21.9151 57.0797193,21.7705533 C56.8942807,21.58358 56.6039649,21.48146 56.2335789,21.48146 L54.7832281,21.48146 L54.7832281,24.7406667 L56.2795088,24.7406667 C57.0001404,24.7406667 57.4768772,24.4278933 57.4768772,23.84798 C57.4768772,23.3960867 57.2133333,23.1772933 56.8326316,23.0453267 L56.8326316,23.0453267 Z M55.3422456,21.9891 L56.1594035,21.9891 C56.5234035,21.9891 56.728,22.1482 56.728,22.40498 C56.728,22.7081333 56.4855789,22.8516933 56.1250175,22.8544067 L55.3422456,22.8544067 L55.3422456,21.9891 L55.3422456,21.9891 Z M56.2836842,24.2332733 L55.3422456,24.2332733 L55.3422456,23.3400933 L56.2409474,23.3400933 C56.6916491,23.3400933 56.9095088,23.5033867 56.9095088,23.7766933 C56.9095088,24.0805867 56.672,24.2332733 56.2836842,24.2332733 L56.2836842,24.2332733 Z" id="Fill-13"></path>
                    <path d="M52.0178596,23.3546467 L53.6433333,23.3546467 L53.6433333,22.8410867 L52.0178596,22.8410867 L52.0178596,21.9955133 L53.8528421,21.9955133 L53.8528421,21.48146 L51.4519649,21.48146 L51.4519649,24.7406667 L53.8749474,24.7406667 L53.8749474,24.2313 L52.0178596,24.2313 L52.0178596,23.3546467" id="Fill-14"></path>
                    <path d="M36.9617193,23.3546467 L38.5869474,23.3546467 L38.5869474,22.8410867 L36.9617193,22.8410867 L36.9617193,21.9955133 L38.7942456,21.9955133 L38.7942456,21.48146 L36.3938596,21.48146 L36.3938596,24.7406667 L38.8158596,24.7406667 L38.8158596,24.2313 L36.9617193,24.2313 L36.9617193,23.3546467" id="Fill-15"></path>
                    <path d="M45.3715439,23.3546467 L46.9921053,23.3546467 L46.9921053,22.8410867 L45.3715439,22.8410867 L45.3715439,21.9955133 L47.2021053,21.9955133 L47.2021053,21.48146 L44.8034386,21.48146 L44.8034386,24.7406667 L47.2229825,24.7406667 L47.2229825,24.2313 L45.3715439,24.2313 L45.3715439,23.3546467" id="Fill-16"></path>
                    <path d="M34.7639649,21.48146 L35.3276491,21.48146 L35.3276491,24.7406667 L34.7639649,24.7406667 L34.7639649,21.48146 Z" id="Fill-17"></path>
                    <path d="M41.0981053,24.7406667 L41.6657193,24.7406667 L41.6657193,21.9989667 L43.1698596,21.9989667 L43.1698596,24.7406667 L43.7374737,24.7406667 L43.7374737,21.48146 L41.0981053,21.48146 L41.0981053,24.7406667" id="Fill-18"></path>
                    <path d="M17.1676842,14.73044 C17.1676842,13.4714533 16.1471579,12.4477867 14.8932982,12.4477867 L13.9467018,12.4477867 C12.6724561,12.4477867 11.6740351,13.45024 11.6740351,14.73044 L11.6740351,15.1909667 C11.6678947,15.3591933 11.5318246,15.4886933 11.3704561,15.4886933 L10.3541053,15.4886933 C10.1949474,15.4886933 10.0647719,15.36832 10.0524912,15.20774 L10.052,14.04002 C10.0483158,13.49612 9.90782456,13.0166 9.63421053,12.7835 C9.42764912,12.60664 9.14003509,12.5175933 8.77898246,12.5175933 L8.54687719,12.5175933 L8.54933333,19.53082 L10.052,19.53082 L10.052,16.9210867 C10.0623158,16.7553267 10.1851228,16.63298 10.338386,16.62558 L11.3800351,16.62558 C11.5455789,16.6339667 11.668386,16.7582867 11.6740351,16.9161533 L11.6740351,17.3310467 C11.6740351,18.54736 12.7363158,19.61518 13.9467018,19.61518 L14.8932982,19.61518 C16.1046667,19.61518 17.1676842,18.54736 17.1676842,17.3310467 L17.1676842,14.73044 L17.1676842,14.73044 Z M15.746807,17.3431333 C15.746807,17.8571867 15.263193,18.4790333 14.6616842,18.4790333 L14.1780702,18.4790333 C13.576807,18.4790333 13.0927018,17.8571867 13.0927018,17.3431333 L13.0927018,14.71934 C13.0927018,14.2047933 13.5750877,13.5836867 14.1736491,13.5836867 L14.6658596,13.5836867 C15.2649123,13.5836867 15.746807,14.2047933 15.746807,14.71934 L15.746807,17.3431333 L15.746807,17.3431333 Z" id="Fill-19"></path>
                    <path d="M23.3313684,18.0979333 C23.3370175,19.04908 23.7651228,19.58706 24.6029123,19.58706 L24.8355088,19.58706 L24.8355088,12.58888 L23.3330877,12.58888 L23.3330877,15.1147467 C23.3264561,15.26842 23.2100351,15.3917533 23.0624211,15.4068 L20.2990175,15.4077867 C20.1361754,15.3917533 20.0239298,15.2819867 20.0079649,15.13892 L20.0069825,14.0197933 C20.0023158,13.0681533 19.5747018,12.5099467 18.7366667,12.5099467 L18.5070175,12.5099467 L18.5055439,19.53082 L20.0069825,19.53082 L20.0069825,17.0010067 C20.0249123,16.83722 20.1354386,16.7272067 20.2774035,16.7129 L23.0474386,16.7124067 C23.2115088,16.7281933 23.3264561,16.8498 23.3330877,16.9965667 L23.3330877,17.8189533 L23.3313684,17.8189533 L23.3313684,18.0979333" id="Fill-20"></path>
                    <path d="M40.8168772,12.5908533 C40.0554737,12.5908533 39.7059649,13.3116133 39.6755088,13.7282333 L41.8504211,13.7282333 C42.0159649,13.73736 42.1392632,13.8606933 42.1458947,14.01486 L42.1473684,19.5323 L43.6502807,19.5323 L43.6502807,14.0197933 C43.6664912,13.8491 43.7836491,13.7383467 43.9342105,13.7282333 L45.0343158,13.7282333 C45.7922807,13.7282333 46.1403158,13.0089533 46.1705263,12.5908533 L40.8168772,12.5908533" id="Fill-21"></path>
                    <path d="M52.9224561,14.78964 L52.9224561,14.66236 C52.9209825,14.6344867 52.9195088,14.6080933 52.9180351,14.5804667 C52.8323158,13.3338133 52.0475789,12.59036 50.8197544,12.59036 L47.1696842,12.59036 L47.1696842,19.5323 L48.6723509,19.5323 L48.6723509,17.5737667 C48.6863509,17.4050467 48.8049825,17.2881267 48.9557895,17.2765333 L50.8197544,17.2765333 C51.9490877,17.2765333 52.8310877,16.42874 52.9163158,15.2597867 C52.92,15.20404 52.9224561,14.84736 52.9224561,14.78964 L52.9224561,14.78964 Z M51.5037895,15.2597867 C51.5037895,15.80418 51.1518246,16.1428533 50.5876491,16.1428533 L48.9683158,16.1428533 C48.8025263,16.1366867 48.6755439,16.0066933 48.6723509,15.8461133 L48.6723509,14.02744 C48.6755439,13.8621733 48.7993333,13.7346467 48.9604561,13.7272467 L50.5876491,13.7272467 C51.2380351,13.7272467 51.5037895,13.9823 51.5037895,14.6080933 L51.5037895,15.2597867 L51.5037895,15.2597867 Z" id="Fill-22"></path>
                    <path d="M34.0160702,17.3310467 C34.0160702,18.5446467 34.9975439,19.5323 36.2047368,19.5323 L39.1587368,19.5323 C39.1287719,19.1144467 38.7804912,18.3931933 38.0225263,18.3931933 L36.2531228,18.38086 C35.7952982,18.31426 35.5187368,17.99532 35.5187368,17.51358 L35.5187368,14.60612 C35.5187368,14.0641933 35.8699649,13.7272467 36.4346316,13.72626 L37.8542807,13.72626 C38.6112632,13.72626 38.9590526,13.0089533 38.9909825,12.5908533 L36.2047368,12.5908533 C34.9975439,12.5908533 34.0160702,13.5765333 34.0160702,14.7876667 L34.0160702,17.3310467" id="Fill-23"></path>
                    <path d="M68.2072632,12.57926 C67.9464211,12.57926 67.7735088,12.57926 67.6720702,12.6086133 C67.5504912,12.6433933 67.5038246,12.7363867 67.3240351,13.19124 C67.3240351,13.19124 66.157614,16.49312 65.9827368,16.81502 C65.9223158,16.9257733 65.8397895,16.9691867 65.7597193,16.9701733 C65.6798947,16.9691867 65.5968772,16.9257733 65.5367018,16.81502 C65.3615789,16.49312 64.1956491,13.19124 64.1956491,13.19124 C64.0161053,12.7363867 63.9689474,12.6433933 63.8478596,12.6086133 C63.7456842,12.57926 63.5730175,12.57926 63.3124211,12.57926 L61.8701754,12.57926 L61.8716491,19.58706 L62.1030175,19.58706 C62.9400702,19.58706 63.3615439,19.10532 63.3659649,18.1524467 L63.3659649,16.9373667 L63.3610526,15.48154 C63.3610526,15.2753267 63.4870526,15.2319133 63.5789123,15.2319133 C63.7046667,15.2319133 63.815193,15.31282 63.8535088,15.4331933 L65.0864912,18.5994067 L66.4329474,18.5994067 L67.6664211,15.4331933 C67.704,15.31282 67.8147719,15.2319133 67.9402807,15.2319133 C68.0321404,15.2319133 68.158386,15.2753267 68.158386,15.48154 L68.1534737,16.9373667 L68.1534737,18.1524467 C68.1578947,19.10532 68.5798596,19.58706 69.4164211,19.58706 L69.6475439,19.58706 L69.6490175,12.57926 L68.2072632,12.57926" id="Fill-24"></path>
                    <path d="M55.6431228,19.5229267 L54.1048421,19.5229267 L54.1048421,12.5099467 L54.3354737,12.5099467 C55.1749825,12.5099467 55.5841754,12.9867533 55.5888421,13.9272933 L55.5888421,16.7851733 C55.6129123,16.9575933 55.8496842,17.02888 56.0046667,16.8367267 C56.0046667,16.8367267 58.8754035,12.6034333 58.8842456,12.5869067 L60.4225263,12.5869067 L60.4225263,19.58706 L60.1921404,19.58706 C59.3526316,19.58706 58.9434386,19.1102533 58.9387719,18.1697133 L58.9387719,15.3735 C58.9147018,15.20108 58.6779298,15.1297933 58.5229474,15.32244 C58.5229474,15.32244 55.6519649,19.50714 55.6431228,19.5229267" id="Fill-25"></path>
                    <path d="M27.8246316,19.5229267 L26.2863509,19.5229267 L26.2863509,12.5099467 L26.5164912,12.5099467 C27.3562456,12.5099467 27.7654386,12.9867533 27.7703509,13.9272933 L27.7703509,16.7851733 C27.7939298,16.9575933 28.0307018,17.02888 28.1859298,16.8367267 C28.1859298,16.8367267 31.0566667,12.6034333 31.0655088,12.5869067 L32.6037895,12.5869067 L32.6037895,19.58706 L32.3736491,19.58706 C31.5341404,19.58706 31.1249474,19.1102533 31.1197895,18.1697133 L31.1197895,15.3735 C31.0959649,15.20108 30.8594386,15.1297933 30.7042105,15.32244 C30.7042105,15.32244 27.8332281,19.50714 27.8246316,19.5229267" id="Fill-26"></path>
                    <path d="M68.6444561,26.4278667 L64.666,26.4278667 C64.1885263,26.4278667 63.7277544,26.60374 63.3642456,26.9081267 C57.505614,31.8130933 46.641614,35.1053533 34.2093684,35.1053533 C20.0762456,35.1053533 7.97066667,30.84986 2.93950877,24.80702 C2.8682807,24.7236467 2.92329825,24.5921733 3.03529825,24.5921733 C3.19887719,24.5921733 3.36073684,24.6543333 3.47445614,24.7719933 C8.25361404,29.79018 18.6396491,33.26892 30.681614,33.26892 C40.393193,33.26892 49.0243158,31.0064933 54.5098596,27.5011133 C55.0094386,27.1826667 54.7596491,26.4278667 54.1652632,26.4278667 L52.8880702,26.4278667 C52.4027368,26.4278667 51.9296842,26.5775933 51.5256491,26.8415267 C46.3920702,30.18608 38.2278596,32.34836 29.0310877,32.34836 C13.4940351,32.34836 1.04803509,26.1742933 1.04803509,18.5579667 C1.04803509,10.9441067 13.4940351,4.7693 29.0310877,4.7693 C38.2278596,4.7693 46.3920702,6.93182667 51.5256491,10.2758867 C51.9296842,10.53908 52.4027368,10.6902867 52.8880702,10.6902867 L54.1642807,10.6902867 C54.7596491,10.6902867 55.0087018,9.93425333 54.5098596,9.6163 C49.0243158,6.11116667 40.3924561,3.84923333 30.681614,3.84923333 C18.6163158,3.84923333 8.21505263,7.34055333 3.44915789,12.3740333 C3.33789474,12.4921867 3.17677193,12.55336 3.01270175,12.55336 C2.89898246,12.55336 2.84642105,12.4226267 2.91764912,12.3375267 C7.93505263,6.2826 20.0531579,2.01156667 34.2093684,2.01156667 C46.641614,2.01156667 57.5046316,5.30604667 63.3642456,10.2110133 C63.7277544,10.51392 64.1885263,10.6902867 64.666,10.6902867 L68.6444561,10.6902867 C69.7285965,10.6902867 70.2802456,9.37851333 69.4306667,8.72213333 C62.7784561,3.58332667 51.0705263,0.17316 37.7371228,0.17316 C17.016386,0.17316 0.22277193,8.40566 0.22277193,18.5579667 C0.22277193,28.7117533 17.016386,36.94376 37.7371228,36.94376 C51.0705263,36.94376 62.7784561,33.53384 69.4314035,28.3947867 C70.2802456,27.7391467 69.7285965,26.4278667 68.6444561,26.4278667" id="Fill-27"></path>
                </g>
            </g>
        </g>
    </g>
</svg>