<?xml version="1.0" encoding="UTF-8" standalone="no"?>
<svg width="80px" height="23px" viewBox="0 0 80 23" version="1.1" xmlns="http://www.w3.org/2000/svg" xmlns:xlink="http://www.w3.org/1999/xlink" xmlns:sketch="http://www.bohemiancoding.com/sketch/ns">
    <!-- Generator: Sketch 3.2.2 (9983) - http://www.bohemiancoding.com/sketch -->
    <title>Imported Layers 4</title>
    <desc>Created with Sketch.</desc>
    <defs></defs>
    <g id="Page-1" stroke="none" stroke-width="1" fill="none" fill-rule="evenodd" sketch:type="MSPage">
        <g id="platron_payment-internet-banking" sketch:type="MSArtboardGroup" transform="translate(-335.000000, -285.000000)">
            <g id="Content" sketch:type="MSLayerGroup" transform="translate(30.000000, 100.000000)">
                <g id="Imported-Layers-4" transform="translate(305.000000, 185.000000)" sketch:type="MSShapeGroup">
                    <path d="M13.757546,7.91046667 L2.82208589,7.91046667 C2.82208589,7.91046667 3.15288344,9.0114 3.53472393,9.57566667 L13.2638037,9.57566667 C13.2638037,9.57566667 15.1214724,11.0900889 16.0093252,13.7402 L5.78306748,13.7402 C4.01815951,12.2421333 2.69693252,10.2160889 2.00294479,7.91046667 C2.09128834,7.62782222 2.18846626,7.35131111 2.29546012,7.07837778 L13.7536196,7.07837778 C14.6463804,6.43233333 15.5332515,5.41471111 15.5332515,5.41471111 L3.09693252,5.41471111 C3.26184049,5.12797778 3.43754601,4.85197778 3.62453988,4.58211111 L16.1850307,4.58211111 C16.5158282,4.16453333 17.1823313,2.91793333 17.1823313,2.91793333 L5.00858896,2.91793333 C5.30159509,2.62353333 5.60932515,2.346 5.92883436,2.08584444 L17.5558282,2.08584444 C17.8743558,1.29106667 18.1020859,0.420644444 18.1020859,0.420644444 L5.47190184,0.420644444 C3.0591411,2.20953333 1.23877301,4.83102222 0.416687117,7.91046667 C1.23239264,10.9556667 3.03509202,13.5965778 5.46650307,15.4033556 L18.0687117,15.4033556 C18.0687117,15.4033556 17.8463804,11.4182222 13.757546,7.91046667 L13.757546,7.91046667 Z M51.195092,16.4214889 C51.6505521,16.4214889 52.0819632,16.5375111 52.3474847,16.7337778 C52.7700613,17.0409556 52.9752147,17.5168 52.9752147,18.1919778 C52.9752147,18.9003778 52.7744785,19.2423111 52.6242945,19.4401111 C52.3371779,19.8152667 51.9023313,19.9982444 51.2957055,19.9982444 L49.5715337,19.9982444 L49.5715337,16.4214889 L51.195092,16.4214889 L51.195092,16.4214889 Z M46.3381595,7.91251111 L46.3381595,22.8942 L51.7158282,22.8942 C52.9344785,22.8942 54.0785276,22.5747556 54.8515337,22.0171333 C55.646135,21.4528667 56.5948466,20.3274 56.5948466,18.1919778 C56.5948466,16.1868889 55.6746012,15.1104889 55.127362,14.6464 C54.5428221,14.1552222 53.4557055,13.5694889 51.597546,13.5694889 L49.5715337,13.5694889 L49.5715337,10.7921111 L55.0139877,10.7921111 L55.9656442,7.91251111 L46.3381595,7.91251111 L46.3381595,7.91251111 Z M33.7968098,7.91251111 L33.7968098,10.7834222 C33.7968098,10.7834222 37.4233129,10.7916 37.8252761,10.7921111 L37.8252761,22.8942 L41.0650307,22.8942 L41.0650307,10.7880222 C41.4596319,10.7875111 44.593865,10.7880222 44.593865,10.7880222 L45.527362,7.91251111 L33.7968098,7.91251111 L33.7968098,7.91251111 Z M28.3887117,16.5850444 C28.8078528,16.5850444 29.241227,16.6300222 29.5700613,16.9571333 C29.8444172,17.2259778 30.0201227,17.733 30.0201227,18.2497333 C30.0201227,18.6821333 29.8964417,19.1124889 29.6814724,19.4304 C29.3256442,19.941 28.9374233,20.0406667 28.3887117,20.0406667 L26.6380368,20.0406667 L26.6380368,16.5850444 L28.3887117,16.5850444 L28.3887117,16.5850444 Z M27.9896933,10.8616222 C28.2321472,10.8616222 28.6831902,10.8616222 29.0596319,11.0287556 C29.4669939,11.2112222 29.7202454,11.6865556 29.7202454,12.2748444 C29.7202454,12.6745333 29.590184,13.0706444 29.3811043,13.3052444 C29.0566871,13.6804 28.6773006,13.7100444 28.249816,13.7100444 L26.5992638,13.7100444 L26.5992638,10.8616222 L27.9896933,10.8616222 L27.9896933,10.8616222 Z M23.391411,7.91251111 L23.391411,22.8942 L29.1882209,22.8942 C31.8851534,22.8942 33.6274847,21.2100889 33.6274847,18.6054667 C33.6274847,17.3026444 33.2265031,16.3714 32.3293252,15.5832667 C32.0014724,15.2944889 31.6358282,15.0931111 31.2564417,14.9316 C31.5489571,14.7813333 31.8287117,14.6044889 32.0746012,14.3724444 C32.7381595,13.7284444 33.0871166,12.8319556 33.0871166,11.7734444 C33.0871166,10.6812 32.6964417,9.77704444 31.8964417,9.01037778 C30.9207362,8.096 29.8007362,7.91251111 28.310184,7.91251111 L23.391411,7.91251111 L23.391411,7.91251111 Z" id="Fill-1" fill="#004277"></path>
                    <path d="M73.5465031,7.91251111 C73.4846626,8.0132 67.8031902,17.2878222 67.7688344,17.3430222 L67.7688344,19.9726889 L74.1761963,19.9726889 L74.1761963,22.8942 L76.8588957,22.8942 L76.8588957,19.9726889 L78.6247853,19.9726889 L79.5582822,17.0910444 L76.8588957,17.0910444 L76.8588957,14.1404 L74.1761963,14.1404 L74.1761963,17.0910444 L71.0110429,17.0910444 C71.2402454,16.6857333 75.835092,9.15911111 76.6007362,7.91251111 L73.5465031,7.91251111 L73.5465031,7.91251111 Z M58.8893252,8.62857778 C58.8888344,8.7538 58.8868712,11.5204444 58.8868712,11.8363111 C59.0478528,11.7560667 59.2839264,11.6369778 59.2839264,11.6369778 C59.5705521,11.4586 61.1087117,10.5401333 62.4971779,10.4660222 C63.0709202,10.4328 63.5847853,10.6116889 63.9440491,10.9684444 C64.2380368,11.2577333 64.3995092,11.6456667 64.3995092,12.0612 C64.3995092,13.4371111 63.4841718,14.1312 62.3779141,14.8334667 C59.6628221,16.5293333 57.9788957,18.2972667 57.9788957,21.8643111 C57.9788957,21.8643111 57.9823313,22.7112222 57.9828221,22.8942 C58.191411,22.8942 66.8058896,22.8926667 67.0139877,22.8926667 L67.0139877,19.9987556 L61.4198773,19.9987556 C61.7060123,18.8058222 62.4083436,18.0836222 63.3860123,17.4365556 C63.3884663,17.4360444 64.7911656,16.5334222 64.7911656,16.5334222 C66.4431902,15.4815556 67.4900613,13.7371333 67.5229448,11.983 C67.5229448,10.8437333 67.2206135,9.77346667 66.4382822,8.94342222 C65.609816,8.06175556 64.3990184,7.59511111 62.9369325,7.59511111 C61.5646626,7.59511111 60.1069939,7.97333333 58.8893252,8.62857778 L58.8893252,8.62857778 Z" id="Fill-2" fill="#DC3C37"></path>
                </g>
            </g>
        </g>
    </g>
</svg>