<?xml version="1.0" encoding="UTF-8" standalone="no"?>
<svg width="45px" height="39px" viewBox="0 0 45 39" version="1.1" xmlns="http://www.w3.org/2000/svg" xmlns:xlink="http://www.w3.org/1999/xlink" xmlns:sketch="http://www.bohemiancoding.com/sketch/ns">
    <!-- Generator: Sketch 3.2.2 (9983) - http://www.bohemiancoding.com/sketch -->
    <title>Imported Layers</title>
    <desc>Created with Sketch.</desc>
    <defs></defs>
    <g id="Page-1" stroke="none" stroke-width="1" fill="none" fill-rule="evenodd" sketch:type="MSPage">
        <g id="platron_payment-wallet" sketch:type="MSArtboardGroup" transform="translate(-848.000000, -146.000000)">
            <g id="Content" sketch:type="MSLayerGroup" transform="translate(30.000000, 100.000000)">
                <g id="Imported-Layers" transform="translate(818.000000, 46.000000)" sketch:type="MSShapeGroup">
                    <path d="M5.89993151,36.7729113 C5.81563356,37.1753347 5.76616438,37.6540282 5.76616438,37.6540282 L5.74998288,37.6540282 C5.74998288,37.6540282 5.66537671,37.1753347 5.5672089,36.7729113 L4.71143836,33.4557097 L3.48071918,33.4557097 L2.62818493,36.7729113 C2.52631849,37.1753347 2.44417808,37.6540282 2.44417808,37.6540282 L2.42984589,37.6540282 C2.42984589,37.6540282 2.37544521,37.1753347 2.28929795,36.7729113 L1.53123288,33.4557097 L0.182928082,33.4557097 L1.72972603,38.8712056 L3.1177911,38.8712056 L3.92871575,35.7865887 C4.0355137,35.4148306 4.09284247,34.9737218 4.09284247,34.9737218 L4.10917808,34.9737218 C4.10917808,34.9737218 4.16219178,35.4148306 4.25804795,35.7865887 L5.0769863,38.8712056 L6.46690068,38.8712056 L8.01107877,33.4557097 L6.66215753,33.4557097 L5.89993151,36.7729113 L5.89993151,36.7729113 Z M10.5395548,33.3338347 C9.77193493,33.3338347 9.01510274,33.535754 8.56957192,33.7271371 L8.90660959,34.6518145 C9.28464041,34.491254 9.89121575,34.3300645 10.3917637,34.3300645 C11.0043493,34.3300645 11.389161,34.5404758 11.389161,35.104246 L11.389161,35.3854234 C9.77732877,35.4758468 8.27337329,35.7663024 8.27337329,37.2429556 C8.27337329,38.3481653 9.07058219,38.9904073 10.6660788,38.9904073 C11.4614384,38.9904073 12.2628082,38.8101895 12.6542466,38.5985202 L12.6542466,35.2648065 C12.6542466,33.8777903 11.9021918,33.3338347 10.5395548,33.3338347 L10.5395548,33.3338347 Z M11.389161,37.9075282 C11.248613,37.9660282 10.9115753,38.01525 10.6263185,38.01525 C9.93282534,38.01525 9.53429795,37.7241653 9.53429795,37.2140202 C9.53429795,36.4000524 10.3983904,36.309629 11.389161,36.2572621 L11.389161,37.9075282 L11.389161,37.9075282 Z M13.6690582,38.8712056 L15.0065753,38.8712056 L15.0065753,30.9847137 L13.6690582,30.9847137 L13.6690582,38.8712056 Z M16.1286473,38.8712056 L17.4703253,38.8712056 L17.4703253,30.9847137 L16.1286473,30.9847137 L16.1286473,38.8712056 Z M20.7687329,33.3338347 C19.222089,33.3338347 18.3054452,34.4992742 18.3054452,36.1575605 C18.3054452,37.8263831 19.2334932,38.9904073 20.9852568,38.9904073 C21.7553425,38.9904073 22.5012329,38.8279597 22.9438356,38.5985202 L22.5584075,37.575871 C22.1839212,37.7759032 21.615411,37.9186935 21.0829623,37.9186935 C20.3044007,37.9186935 19.7334247,37.523504 19.6127568,36.7310806 L23.0293664,36.2572621 C23.0529452,36.0985887 23.0529452,35.9477782 23.0529452,35.7969677 C23.0529452,34.3196855 22.232774,33.3338347 20.7687329,33.3338347 L20.7687329,33.3338347 Z M19.5266096,35.866004 C19.5471062,34.8524758 20.0367123,34.3300645 20.7368322,34.3300645 C21.3548116,34.3300645 21.7553425,34.7405081 21.7553425,35.5546331 L19.5266096,35.866004 L19.5266096,35.866004 Z M25.4570548,31.8596976 L24.1449658,32.2509556 L24.1449658,33.4557097 L23.4671918,33.4557097 L23.4671918,34.480875 L24.1449658,34.480875 L24.1449658,37.2429556 C24.1449658,38.3783589 24.6279452,38.9498347 25.6506164,38.9498347 C25.9750171,38.9498347 26.2969521,38.8784395 26.4567637,38.8010685 L26.4567637,37.6662944 C26.3681507,37.7057661 26.2126541,37.7457097 26.073339,37.7457097 C25.725976,37.7457097 25.4570548,37.5948992 25.4570548,37.1525323 L25.4570548,34.480875 L26.4567637,34.480875 L26.4567637,33.4557097 L25.4570548,33.4557097 L25.4570548,31.8596976 L25.4570548,31.8596976 Z M36.0662671,8.9280121 C34.7378425,7.56993145 32.4844521,7.65060484 31.0607877,9.10209677 L25.8899486,14.3771613 L25.8899486,3.74510081 C25.8899486,1.69052419 24.3530137,0.00943548387 22.470411,0.00943548387 C21.6678082,0.00943548387 20.9370205,0.329455645 20.3507877,0.840229839 C20.1427397,0.982391129 19.9480993,1.14295161 19.7653253,1.32993145 L6.95835616,14.4031089 L6.95835616,3.74510081 C6.95835616,1.69052419 5.41710616,0.00943548387 3.53696918,0.00943548387 C1.65128425,0.00943548387 0.116044521,1.69052419 0.116044521,3.74510081 L0.116044521,22.4231129 C0.116044521,23.2032702 0.339811644,23.9276008 0.722157534,24.5298992 C0.854075342,24.769246 1.0109589,24.9956976 1.20929795,25.1999758 C1.62955479,25.6258306 2.14212329,25.8934839 2.68597603,26.0405202 L2.69815068,26.0442944 C3.88664384,26.3544073 5.24450342,26.0189758 6.21292808,25.0265202 L19.0513356,11.9313266 L19.0513356,22.4231129 C19.0513356,22.9799637 19.1701541,23.5048911 19.3709589,23.9798105 C19.5307705,24.4265806 19.7798116,24.8480323 20.1236301,25.1999758 C21.4512842,26.5586855 23.7071404,26.4786411 25.1289555,25.0265202 L35.8992123,14.0368548 C37.3228767,12.586621 37.3976199,10.2890806 36.0662671,8.9280121 L36.0662671,8.9280121 Z" id="Fill-1" fill="#0B0B0A"></path>
                    <path d="M31.675839,33.3338347 C30.1290411,33.3338347 29.2721918,34.5404758 29.2721918,36.1575605 C29.2721918,37.7759032 30.1290411,38.9904073 31.675839,38.9904073 C33.2218664,38.9904073 34.0764041,37.7759032 34.0764041,36.1575605 C34.0764041,34.5404758 33.2218664,33.3338347 31.675839,33.3338347 L31.675839,33.3338347 Z M31.675839,37.8754476 C30.9660103,37.8754476 30.6120205,37.2338347 30.6120205,36.1465524 C30.6120205,35.0647742 30.9660103,34.4107379 31.675839,34.4107379 C32.387363,34.4107379 32.7411986,35.0647742 32.7411986,36.1465524 C32.7411986,37.2338347 32.387363,37.8754476 31.675839,37.8754476 L31.675839,37.8754476 Z M37.0092637,33.3338347 C36.1337671,33.3338347 35.4553767,33.4956532 34.893339,33.7271371 L34.893339,38.8712056 L36.2302397,38.8712056 L36.2302397,34.5613911 C36.4074658,34.491254 36.7179966,34.4297661 37.0303767,34.4297661 C37.6418836,34.4297661 37.9662842,34.7607944 37.9662842,35.30475 L37.9662842,38.8712056 L39.3139726,38.8712056 L39.3139726,35.1619597 C39.3139726,33.9990363 38.586113,33.3338347 37.0092637,33.3338347 L37.0092637,33.3338347 Z M44.8747089,35.7969677 C44.8747089,34.3196855 44.0588527,33.3338347 42.5918836,33.3338347 C41.0469349,33.3338347 40.1316781,34.4992742 40.1316781,36.1575605 C40.1316781,37.8263831 41.0589555,38.9904073 42.8088699,38.9904073 C43.5764897,38.9904073 44.3254623,38.8279597 44.7680651,38.5985202 L44.3803253,37.575871 C44.0064555,37.7759032 43.439024,37.9186935 42.904726,37.9186935 C42.1257021,37.9186935 41.558887,37.523504 41.4377568,36.7310806 L44.8525171,36.2572621 C44.8747089,36.0985887 44.8747089,35.9477782 44.8747089,35.7969677 L44.8747089,35.7969677 Z M41.3502226,35.866004 C41.3707192,34.8524758 41.8646404,34.3300645 42.5635274,34.3300645 C43.1810445,34.3300645 43.5764897,34.7405081 43.5764897,35.5546331 L41.3502226,35.866004 L41.3502226,35.866004 Z M36.4997774,13.3453911 L37.6961301,12.1245968 L37.6961301,22.6354113 C37.6961301,24.6904597 39.2373801,26.3715484 41.1150514,26.3715484 C42.9945719,26.3715484 44.5304281,24.6904597 44.5304281,22.6354113 L44.5304281,3.74761694 C44.573887,2.80674194 44.2615068,1.87278629 43.5861986,1.18179435 C42.8813014,0.460451613 41.9141096,0.148608871 40.9498459,0.227395161 C40.5397603,0.248939516 40.1472432,0.351629032 39.788476,0.518951613 C39.3471062,0.709233871 38.937637,0.988524194 38.5782534,1.35525 L31.6698288,8.40858871 C30.2424658,9.8651129 30.1658733,12.1620242 31.4924486,13.5182177 C32.8250342,14.8762984 35.0748801,14.796254 36.4997774,13.3453911 L36.4997774,13.3453911 Z" id="Fill-2" fill="#A52437"></path>
                </g>
            </g>
        </g>
    </g>
</svg>