<?xml version="1.0" encoding="UTF-8" standalone="no"?>
<svg width="110px" height="28px" viewBox="0 0 110 28" version="1.1" xmlns="http://www.w3.org/2000/svg" xmlns:xlink="http://www.w3.org/1999/xlink" xmlns:sketch="http://www.bohemiancoding.com/sketch/ns">
    <!-- Generator: Sketch 3.2.2 (9983) - http://www.bohemiancoding.com/sketch -->
    <title>vendor-webmoney</title>
    <desc>Created with Sketch.</desc>
    <defs></defs>
    <g id="Page-1" stroke="none" stroke-width="1" fill="none" fill-rule="evenodd" sketch:type="MSPage">
        <g id="platron_payment-wallet" sketch:type="MSArtboardGroup" transform="translate(-485.000000, -151.000000)" fill="#0068A3">
            <g id="Content" sketch:type="MSLayerGroup" transform="translate(30.000000, 100.000000)">
                <g id="vendor-webmoney" transform="translate(455.000000, 51.000000)" sketch:type="MSShapeGroup">
                    <path d="M96.1247607,0.06776 C98.2807053,0.06776 100.322494,0.57512 102.140957,1.47588 C102.426625,1.6128 102.711461,1.76344 102.997128,1.92976 L101.733098,3.073 L99.834005,1.08864 L96.6287657,3.97768 L94.7249622,1.87796 L88.7542065,7.31668 L92.5820403,11.57968 L91.0777834,12.91668 L94.8479849,17.18612 L93.3525945,18.52004 L98.7401008,24.58008 L101.938136,21.6048 L104.703098,24.79316 C104.153098,25.2252 103.554055,25.63176 102.894055,26.00752 C100.89466,27.15972 98.5838287,27.8194 96.1247607,27.8194 C88.5621914,27.8194 82.3941562,21.58548 82.3941562,13.944 C82.3941562,6.30084 88.5621914,0.06776 96.1247607,0.06776" id="Fill-1"></path>
                    <path d="M93.6224685,13.06676 L96.8875567,10.0954 L99.8276322,13.39576 L96.5628212,16.366 L93.6224685,13.06676" id="Fill-2"></path>
                    <path d="M95.9441058,18.76812 L99.209471,15.7976 L102.149824,19.09712 L98.8847355,22.06848 L95.9441058,18.76812" id="Fill-3"></path>
                    <path d="M91.2861461,7.43204 L94.5512343,4.46152 L97.4904786,7.76104 L94.2253904,10.73156 L91.2861461,7.43204" id="Fill-4"></path>
                    <path d="M97.2776826,5.83296 L99.7264987,3.60528 L101.931209,6.07992 L99.4823929,8.30844 L97.2776826,5.83296" id="Fill-5"></path>
                    <path d="M101.62864,16.03868 L104.078287,13.81016 L106.282997,16.28536 L103.834181,18.51332 L101.62864,16.03868" id="Fill-6"></path>
                    <path d="M103.782922,21.03724 L106.231184,18.80844 L108.436448,21.28308 L105.987632,23.51104 L103.782922,21.03724" id="Fill-7"></path>
                    <path d="M104.76932,9.58104 L106.401864,8.09564 L107.871486,9.7454 L106.239773,11.23052 L104.76932,9.58104" id="Fill-8"></path>
                    <path d="M102.683476,4.67908 L104.31602,3.19396 L105.785919,4.84372 L104.153098,6.32884 L102.683476,4.67908" id="Fill-9"></path>
                    <path d="M106.856549,14.48272 L108.489093,12.99732 L109.958992,14.6468 L108.326448,16.1322 L106.856549,14.48272" id="Fill-10"></path>
                    <path d="M99.5350378,10.80968 L101.983577,8.58088 L104.188287,11.05552 L101.740302,13.28348 L99.5350378,10.80968" id="Fill-11"></path>
                    <path d="M6.54042821,11.55168 L6.43070529,11.55168 L4.36231738,19.45216 L2.67075567,19.45216 L0.132720403,8.22696 L1.88717884,8.22696 L3.64191436,16.60232 L3.75163728,16.60232 L5.78816121,8.22696 L7.18241814,8.22696 L9.36052897,16.60232 L9.46969773,16.60232 L11.0676071,8.22696 L12.9007557,8.22696 L10.3624433,19.45216 L8.67060453,19.45216 L6.54042821,11.55168" id="Fill-12"></path>
                    <path d="M19.8429471,17.71028 L19.8429471,18.91344 C19.1380605,19.3256 18.1982116,19.64228 17.0699496,19.64228 C14.438262,19.64228 13.3573804,17.9956 13.3573804,15.4938 C13.3573804,13.08776 14.5637783,11.34616 16.9136776,11.34616 C18.8715113,11.34616 20.0779093,12.62884 20.0779093,15.20904 L20.0779093,15.79452 L14.9710831,15.79452 C14.9710831,17.69404 15.7385894,18.53348 17.3522922,18.53348 C18.1982116,18.53348 18.9812343,18.23276 19.8429471,17.71028 L19.8429471,17.71028 Z M15.00267,14.73416 L18.5894458,14.73416 C18.511864,13.07152 17.7124937,12.40708 16.8665743,12.40708 C15.9103778,12.40708 15.1744584,13.15132 15.00267,14.73416 L15.00267,14.73416 Z" id="Fill-13"></path>
                    <path d="M23.1324181,11.9322 C23.6023426,11.6788 24.4011587,11.34616 25.2473552,11.34616 C27.1896725,11.34616 28.2395214,12.7078 28.2395214,15.24152 C28.2395214,18.2014 26.8300252,19.64228 24.558262,19.64228 C23.7275819,19.64228 22.4430479,19.3732 21.5029219,18.86584 L21.5029219,7.81592 L23.1324181,7.42 L23.1324181,11.9322 L23.1324181,11.9322 Z M23.1169018,18.28036 C23.6178589,18.50212 24.1664736,18.53348 24.558262,18.53348 C25.7175567,18.53348 26.5947859,17.80548 26.5947859,15.24152 C26.5947859,13.23028 25.8741058,12.58124 24.824534,12.58124 C24.1975063,12.58124 23.7436524,12.7554 23.1169018,13.10372 L23.1169018,18.28036 L23.1169018,18.28036 Z" id="Fill-14"></path>
                    <path d="M35.3676322,17.0772 L35.4463224,17.0772 L38.7986902,8.22696 L40.7415617,8.22696 L40.7415617,19.45216 L39.0497229,19.45216 L39.0497229,11.31452 L38.9084131,11.31452 L35.7123174,19.45216 L34.7101259,19.45216 L31.5137531,11.50464 L31.3729975,11.50464 L31.3729975,19.45216 L29.9629471,19.45216 L29.9629471,8.22696 L31.8584383,8.22696 L35.3676322,17.0772" id="Fill-15"></path>
                    <path d="M42.4647103,15.4938 C42.4647103,12.7232 43.9686902,11.34616 46.0365239,11.34616 C48.1046348,11.34616 49.6088917,12.7232 49.6088917,15.4938 C49.6088917,18.2014 48.1830479,19.64228 46.0365239,19.64228 C43.89,19.64228 42.4647103,18.2014 42.4647103,15.4938 L42.4647103,15.4938 Z M47.963602,15.4938 C47.963602,13.35684 47.1016121,12.45468 46.0365239,12.45468 C45.0024685,12.45468 44.1094458,13.35684 44.1094458,15.4938 C44.1094458,17.66352 44.9246096,18.53348 46.0365239,18.53348 C47.1487154,18.53348 47.963602,17.66352 47.963602,15.4938 L47.963602,15.4938 Z" id="Fill-16"></path>
                    <path d="M51.096801,12.51768 C51.8016877,12.09012 53.2904282,11.34616 55.0911587,11.34616 C56.9719647,11.34616 57.6762972,12.09012 57.6762972,13.72056 L57.6762972,19.45216 L56.0470781,19.45216 L56.0470781,14.08512 C56.0470781,12.83436 55.4366751,12.6126 54.6378589,12.6126 C54.0108312,12.6126 53.211738,12.8982 52.7262972,13.18268 L52.7262972,19.45216 L51.096801,19.45216 L51.096801,12.51768" id="Fill-17"></path>
                    <path d="M65.6187406,17.71028 L65.6187406,18.91344 C64.914131,19.3256 63.9745592,19.64228 62.8460202,19.64228 C60.2146096,19.64228 59.1334509,17.9956 59.1334509,15.4938 C59.1334509,13.08776 60.3401259,11.34616 62.6897481,11.34616 C64.6484131,11.34616 65.8550882,12.62884 65.8550882,15.20904 L65.8550882,15.79452 L60.7477078,15.79452 C60.7477078,17.69404 61.5152141,18.53348 63.1286398,18.53348 C63.9745592,18.53348 64.7578589,18.23276 65.6187406,17.71028 L65.6187406,17.71028 Z M60.7787406,14.73416 L64.3660705,14.73416 C64.2882116,13.07152 63.4885642,12.40708 62.6426448,12.40708 C61.6867254,12.40708 60.9513602,13.15132 60.7787406,14.73416 L60.7787406,14.73416 Z" id="Fill-18"></path>
                    <path d="M71.9488665,11.61524 L73.6251889,11.61524 L70.7892947,19.53112 C70.0057179,21.71624 69.0497985,22.85556 67.249068,22.85556 L67.249068,21.55804 C68.3144332,21.55804 68.9716625,20.70236 69.3482116,19.53112 L66.3402519,11.61524 L68.0636776,11.61524 L70.0688917,17.44092 L70.162267,17.44092 L71.9488665,11.61524" id="Fill-19"></path>
                </g>
            </g>
        </g>
    </g>
</svg>