<?xml version="1.0" encoding="UTF-8" standalone="no"?>
<svg width="79px" height="36px" viewBox="0 0 79 36" version="1.1" xmlns="http://www.w3.org/2000/svg" xmlns:xlink="http://www.w3.org/1999/xlink" xmlns:sketch="http://www.bohemiancoding.com/sketch/ns">
    <!-- Generator: Sketch 3.2.2 (9983) - http://www.bohemiancoding.com/sketch -->
    <title>payment-logo-yandexmoney</title>
    <desc>Created with Sketch.</desc>
    <defs></defs>
    <g id="Page-1" stroke="none" stroke-width="1" fill="none" fill-rule="evenodd" sketch:type="MSPage">
        <g id="platron_payment-wallet" sketch:type="MSArtboardGroup" transform="translate(-665.000000, -146.000000)">
            <g id="Content" sketch:type="MSLayerGroup" transform="translate(30.000000, 100.000000)">
                <g id="payment-logo-yandexmoney" transform="translate(635.000000, 46.000000)" sketch:type="MSShapeGroup">
                    <rect id="Rectangle-7" opacity="0" fill="#173386" x="1.56862745" y="2.42553191" width="78.4313725" height="35.5744681"></rect>
                    <path d="M7.60845588,0.767218845 L5.87316176,0.767218845 C4.16911765,0.767218845 2.72303922,2.11333131 2.72303922,4.72487842 C2.72303922,6.29206079 3.42279412,7.44696049 4.67095588,8.01742249 L2.34313725,12.385459 C2.26654412,12.5283921 2.34313725,12.6389271 2.46384804,12.6389271 L3.54473039,12.6389271 C3.63602941,12.6389271 3.69730392,12.6071641 3.72732843,12.5283921 L5.84313725,8.23912766 L6.60416667,8.23912766 L6.60416667,12.5283921 C6.60416667,12.5754012 6.65012255,12.6389271 6.71078431,12.6389271 L7.65441176,12.6389271 C7.74571078,12.6389271 7.77634804,12.5912827 7.77634804,12.5125106 L7.77634804,0.926033435 C7.77634804,0.81549848 7.71507353,0.767218845 7.60845588,0.767218845 L7.60845588,0.767218845 Z M6.60416667,7.22652584 L5.96446078,7.22652584 C4.96017157,7.22652584 3.98651961,6.46612158 3.98651961,4.56669909 C3.98651961,2.58850456 4.89889706,1.78045593 5.82781863,1.78045593 L6.60416667,1.78045593 L6.60416667,7.22652584 L6.60416667,7.22652584 Z" id="Fill-1" fill="#D9222A"></path>
                    <path d="M12.2634804,12.5061581 C12.2634804,12.5842948 12.3088235,12.6319392 12.3848039,12.6319392 L13.3290441,12.6319392 C13.4050245,12.6319392 13.4356618,12.5690486 13.4356618,12.5061581 L13.4356618,4.81381459 C13.4356618,4.75092401 13.3903186,4.70327964 13.3290441,4.70327964 L12.3848039,4.70327964 C12.3088235,4.70327964 12.2634804,4.76617021 12.2634804,4.81381459 L12.2634804,7.83700912 L10.5134804,7.83700912 L10.5134804,4.81381459 C10.5134804,4.73440729 10.4834559,4.70327964 10.4068627,4.70327964 L9.46262255,4.70327964 C9.3872549,4.70327964 9.34191176,4.75092401 9.34191176,4.81381459 L9.34191176,12.5061581 C9.34191176,12.5842948 9.37193627,12.6319392 9.44791667,12.6319392 L10.4068627,12.6319392 C10.4681373,12.6319392 10.5134804,12.5842948 10.5134804,12.5061581 L10.5134804,8.83436474 L12.2634804,8.83436474 L12.2634804,12.5061581 L12.2634804,12.5061581 Z M33.2150735,12.823152 C33.8553922,12.823152 34.5392157,12.5061581 34.8137255,12.2996991 C34.8743873,12.25269 34.8890931,12.1891641 34.8743873,12.1262736 L34.7512255,11.5875745 C34.7371324,11.5405653 34.721201,11.5259544 34.6758578,11.5259544 C34.6004902,11.5259544 34.1887255,11.6987447 33.5955882,11.6987447 C32.4387255,11.6987447 31.8756127,10.543845 31.8756127,8.70731307 C31.8756127,7.09248632 32.3480392,5.49417629 33.1390931,5.49417629 C33.3529412,5.49417629 33.6115196,5.55770213 34.0214461,5.95346809 C34.067402,6.00111246 34.0980392,6.01699392 34.1433824,6.01699392 C34.1887255,6.01699392 34.2346814,5.98459574 34.2800245,5.90582371 L34.6917892,5.20958055 C34.721201,5.16130091 34.7371324,5.11365653 34.7371324,5.06601216 C34.7371324,5.00375684 34.6758578,4.95611246 34.5851716,4.90910334 C33.9607843,4.57622796 33.5349265,4.51270213 33.1697304,4.51270213 C31.7383578,4.51270213 30.6280637,6.28634347 30.6280637,9.05543465 C30.6280637,11.4459119 31.6930147,12.823152 33.2150735,12.823152 L33.2150735,12.823152 Z M30.3897059,12.5220395 L28.2591912,8.27978419 L30.0857843,4.81381459 C30.1151961,4.76617021 30.1004902,4.70327964 30.0392157,4.70327964 L29.1421569,4.70327964 C28.8829657,4.70327964 28.7916667,4.79856839 28.7009804,5.00375684 L27.3308824,7.96279027 C27.2555147,8.13812158 27.1783088,8.24865653 27.1029412,8.29566565 L27.1029412,4.81381459 C27.1029412,4.75092401 27.0723039,4.70327964 27.0110294,4.70327964 L26.0220588,4.70327964 C25.9761029,4.70327964 25.9301471,4.75092401 25.9301471,4.81381459 L25.9301471,12.5220395 C25.9301471,12.5690486 25.9613971,12.6319392 26.0220588,12.6319392 L27.0110294,12.6319392 C27.0723039,12.6319392 27.1029412,12.5842948 27.1029412,12.5220395 L27.1029412,8.54913374 C27.1476716,8.58089666 27.1783088,8.62790578 27.2089461,8.69206687 L28.9436275,12.3949878 C29.0355392,12.5842948 29.1721814,12.6319392 29.3707108,12.6319392 L30.3443627,12.6319392 C30.4050245,12.6319392 30.4203431,12.5690486 30.3897059,12.5220395 L30.3897059,12.5220395 Z M19.5392157,11.6352188 L19.3560049,11.6352188 C19.127451,11.6352188 19.0667892,11.5405653 19.0667892,11.3506231 L19.0667892,4.81381459 C19.0667892,4.73440729 19.0355392,4.70327964 18.9748775,4.70327964 L15.9313725,4.70327964 C15.8547794,4.70327964 15.8106618,4.75092401 15.8106618,4.81381459 L15.8106618,5.3842766 C15.8106618,7.29894529 15.7034314,9.76755927 14.7297794,11.6352188 L14.3946078,11.6352188 C14.3033088,11.6352188 14.2726716,11.6828632 14.2726716,11.7622705 C14.2720588,11.7622705 14.2726716,13.661693 14.2726716,14.0733404 C14.2726716,14.153383 14.3333333,14.1838754 14.3792892,14.1838754 L15.1096814,14.1838754 C15.2769608,14.1838754 15.3376225,14.057459 15.3376225,13.9462888 L15.3376225,12.6319392 L18.5949755,12.6319392 L18.5949755,14.0733404 C18.5949755,14.136231 18.6403186,14.1838754 18.7015931,14.1838754 L19.4779412,14.1838754 C19.5686275,14.1838754 19.6605392,14.1051033 19.6605392,13.9462888 L19.6605392,11.7622705 C19.6605392,11.6828632 19.6145833,11.6352188 19.5392157,11.6352188 L19.5392157,11.6352188 Z M17.8952206,11.6352188 L15.6881127,11.6352188 C16.4644608,10.2579787 16.7689951,8.70731307 16.875,6.80789058 C16.9050245,6.39687842 16.9203431,5.96934954 16.9203431,5.7 L17.8952206,5.7 L17.8952206,11.6352188 L17.8952206,11.6352188 Z M22.8259804,12.823152 C23.5716912,12.823152 24.2261029,12.5220395 24.5606618,12.2996991 C24.6219363,12.2685714 24.6366422,12.2215623 24.6219363,12.1574012 L24.4993873,11.6199726 C24.4852941,11.5558116 24.4540441,11.5259544 24.3780637,11.5259544 C24.317402,11.5259544 23.8756127,11.6987447 23.252451,11.6987447 C22.0796569,11.6987447 21.5324755,10.6384985 21.5324755,9.2453769 L21.5324755,8.87120973 C21.5324755,8.87120973 22.1256127,8.9448997 22.4761029,8.9448997 L24.6979167,8.9448997 L24.6979167,8.27978419 C24.6979167,5.82705167 23.8609069,4.51270213 22.6427696,4.51270213 C21,4.51270213 20.2689951,6.66622796 20.2689951,9.00779027 C20.2689951,11.3976322 21.3045343,12.823152 22.8259804,12.823152 L22.8259804,12.823152 Z M21.6090686,7.5200152 C21.7444853,6.17453799 22.064951,5.49417629 22.5974265,5.49417629 C23.0845588,5.49417629 23.3884804,6.19105471 23.4650735,7.40884498 C23.4803922,7.66231307 23.4803922,7.94754407 23.4803922,7.94754407 L22.4761029,7.94754407 C22.1256127,7.94754407 21.5778186,8.01043465 21.5778186,8.01043465 C21.5778186,8.01043465 21.5778186,7.77348328 21.6090686,7.5200152 L21.6090686,7.5200152 Z M32.7965686,23.4859635 L32.1642157,23.4859635 L32.1642157,18.6256018 C32.1642157,18.5531824 32.09375,18.4559878 32.0012255,18.4559878 L30.2867647,18.4559878 C30.1458333,18.4559878 30.098652,18.5290426 30.098652,18.6491064 L30.098652,32.1756626 C30.098652,32.3465471 30.1917892,32.4202371 30.4203431,32.4202371 L32.9307598,32.4202371 C35.2285539,32.4202371 37.1470588,31.0449027 37.1470588,27.7745927 C37.1470588,24.6116413 35.2585784,23.4859635 32.7965686,23.4859635 L32.7965686,23.4859635 Z M32.841299,30.7520486 L32.1642157,30.7520486 L32.1642157,25.1852796 L32.7493873,25.1852796 C34.2898284,25.1852796 35.1789216,26.275383 35.1789216,27.7993678 C35.1789216,29.6873556 34.2659314,30.7520486 32.841299,30.7520486 L32.841299,30.7520486 Z M27.4613971,18.4477295 L25.7984069,18.4477295 C25.6642157,18.4477295 25.5845588,18.5588997 25.5845588,18.6421185 L25.5845588,23.9693951 L22.4993873,23.9693951 L22.4993873,18.6421185 C22.4993873,18.502997 22.4473039,18.4477295 22.3131127,18.4477295 L20.6482843,18.4477295 C20.5159314,18.4477295 20.4356618,18.5309483 20.4356618,18.6421185 L20.4356618,32.1978967 C20.4356618,32.3376535 20.4883578,32.4208723 20.6219363,32.4208723 L22.3131127,32.4208723 C22.4203431,32.4208723 22.4993873,32.3376535 22.4993873,32.1978967 L22.4993873,25.7277903 L25.5845588,25.7277903 L25.5845588,32.1978967 C25.5845588,32.3376535 25.6642157,32.4208723 25.7984069,32.4208723 L27.4613971,32.4208723 C27.5955882,32.4208723 27.6495098,32.3090669 27.6495098,32.1978967 L27.6495098,18.6421185 C27.6495098,18.5309483 27.5686275,18.4477295 27.4613971,18.4477295 L27.4613971,18.4477295 Z M14.8762255,18.1135836 C11.9810049,18.1135836 10.6936275,21.9067112 10.6936275,26.0333495 C10.6936275,30.2451125 12.5165441,32.7556535 15.1985294,32.7556535 C16.5122549,32.7556535 17.6660539,32.2252128 18.2555147,31.8357994 C18.3621324,31.7792614 18.3897059,31.6960426 18.3621324,31.5848723 L18.1482843,30.6357964 C18.1213235,30.5246261 18.0680147,30.4687234 17.9338235,30.4687234 C17.8272059,30.4687234 17.0490196,30.7755532 15.9491422,30.7755532 C13.8841912,30.7755532 12.9185049,28.9078936 12.9185049,26.4519848 L12.9185049,25.7925866 C12.9185049,25.7925866 13.9644608,25.9228146 14.5814951,25.9228146 L18.4963235,25.9228146 L18.4963235,24.7507629 C18.4963235,20.4291003 17.0214461,18.1135836 14.8762255,18.1135836 L14.8762255,18.1135836 Z M14.5814951,24.16569 C13.9644608,24.16569 12.9993873,24.2762249 12.9993873,24.2762249 C12.9993873,24.2762249 12.9993873,23.8582249 13.0526961,23.411003 C13.2935049,21.0421246 13.8578431,19.8427568 14.7959559,19.8427568 C15.653799,19.8427568 16.1905637,21.0694407 16.3247549,23.2159787 C16.3511029,23.6625653 16.3511029,24.16569 16.3511029,24.16569 L14.5814951,24.16569 L14.5814951,24.16569 Z M9.41605392,30.6637477 L9.09313725,30.6637477 C8.69056373,30.6637477 8.58333333,30.4960395 8.58333333,30.1612584 L8.58333333,18.6421185 C8.58333333,18.502997 8.52941176,18.4477295 8.42279412,18.4477295 L3.05882353,18.4477295 C2.92463235,18.4477295 2.84436275,18.5309483 2.84436275,18.6421185 L2.84436275,19.646462 C2.84436275,23.0209544 2.65686275,27.3724742 0.940563725,30.6637477 L0.349877451,30.6637477 C0.189338235,30.6637477 0.135416667,30.7482371 0.135416667,30.8873587 L0.135416667,34.96 C0.135416667,35.0997568 0.243259804,35.1531185 0.323529412,35.1531185 L1.61090686,35.1531185 C1.90502451,35.1531185 2.0122549,34.9326839 2.0122549,34.7351185 L2.0122549,32.4208723 L7.75245098,32.4208723 L7.75245098,34.96 C7.75245098,35.070535 7.83210784,35.1531185 7.93933824,35.1531185 L9.30759804,35.1531185 C9.46813725,35.1531185 9.62990196,35.0159027 9.62990196,34.7351185 L9.62990196,30.8873587 C9.62990196,30.7482371 9.54901961,30.6637477 9.41605392,30.6637477 L9.41605392,30.6637477 Z M6.51838235,30.6637477 L2.62928922,30.6637477 C3.99816176,28.237696 4.53431373,25.5035441 4.72181373,22.157003 C4.77512255,21.4321733 4.80208333,20.6781216 4.80208333,20.2048541 L6.51838235,20.2048541 L6.51838235,30.6637477 L6.51838235,30.6637477 Z M44.7248775,18.4477295 L39.0968137,18.4477295 C38.9632353,18.4477295 38.8829657,18.5309483 38.8829657,18.6421185 L38.8829657,32.1978967 C38.8829657,32.3376535 38.9362745,32.4208723 39.0698529,32.4208723 L40.7604167,32.4208723 C40.8682598,32.4208723 40.9460784,32.3376535 40.9460784,32.1978967 L40.9460784,20.216924 L44.7248775,20.216924 C44.8051471,20.216924 44.9123775,20.1648328 44.9123775,20.0218997 L44.9123775,18.6421185 C44.9123775,18.5309483 44.8321078,18.4477295 44.7248775,18.4477295 L44.7248775,18.4477295 Z M53.067402,18.4477295 L51.5324755,18.4477295 C51.4393382,18.4477295 51.3719363,18.5017264 51.3394608,18.562076 C51.3278186,18.58431 48.1936275,27.4626809 48.1936275,27.4626809 L47.9871324,28.1728997 L47.9871324,18.6421185 C47.9871324,18.502997 47.9338235,18.4477295 47.8014706,18.4477295 L46.223652,18.4477295 C46.0919118,18.4477295 46.0416667,18.544924 46.0416667,18.6421185 L46.0416667,32.0549635 C46.0416667,32.3376535 46.0949755,32.4208723 46.2285539,32.4208723 L47.8014706,32.4208723 C47.8762255,32.4208723 47.9381127,32.3789453 47.9675245,32.3052553 C47.9779412,32.2811155 51.1887255,23.3366778 51.1887255,23.3366778 L51.317402,22.8729392 L51.317402,32.1978967 C51.317402,32.3376535 51.3982843,32.4208723 51.5324755,32.4208723 L53.067402,32.4208723 C53.2022059,32.4208723 53.2555147,32.3090669 53.2555147,32.0549635 L53.2555147,18.5677933 C53.2555147,18.4928328 53.1752451,18.4477295 53.067402,18.4477295 L53.067402,18.4477295 Z" id="Fill-2" fill="#1A1918"></path>
                    <path d="M76.7022059,18.4077082 L75.6207108,18.4077082 L75.6207108,25.3980912 C75.6207108,26.6508207 75.1029412,27.3750152 73.5698529,27.7402888 L63.7689951,30.6141976 C63.7689951,30.6141976 62.9344363,30.8479726 62.9344363,30.0634286 C62.9344363,29.4097477 63.6807598,29.3297052 63.7959559,29.2134529 L63.7506127,29.2312401 L72.6942402,25.5461064 C73.4258578,25.1204833 74.0257353,24.1428207 74.0257353,23.371617 L74.0257353,12.3492492 C74.0257353,10.6080061 72.3903186,11.2045137 72.033701,11.4249483 C71.6427696,11.665076 61.6727941,17.4560912 61.6727941,17.4560912 C60.9411765,17.8817143 60.3425245,18.8619179 60.3425245,19.6343921 L60.3425245,30.6141976 C60.3425245,31.384766 61.4044118,32.4119787 62.088848,32.4170608 L62.088848,32.417696 L76.7022059,32.417696 C77.5784314,32.4202371 78.2959559,31.7894255 78.2959559,31.0169514 L78.2959559,19.8109939 C78.2959559,19.0385198 77.5784314,18.4077082 76.7022059,18.4077082 L76.7022059,18.4077082 Z M69.6348039,17.5685319 C70.3241422,17.0933587 70.9797794,17.2477264 71.098652,17.9122067 C71.2169118,18.579228 70.8186275,19.4253921 70.1280637,19.9005653 C69.4405637,20.3751033 68.783701,20.2220061 68.6648284,19.5562553 C68.5477941,18.8911398 68.9448529,18.0443404 69.6348039,17.5685319 L69.6348039,17.5685319 Z" id="Fill-3" fill="#E5722A"></path>
                </g>
            </g>
        </g>
    </g>
</svg>